M48
; DRILL file {KiCad (5.1.9)-1} date 10/17/22 20:07:10
; FORMAT={-:-/ absolute / inch / decimal}
; #@! TF.CreationDate,2022-10-17T20:07:10-04:00
; #@! TF.GenerationSoftware,Kicad,Pcbnew,(5.1.9)-1
; #@! TF.FileFunction,Plated,1,2,PTH
FMAT,2
INCH
T1C0.0118
T2C0.0236
T3C0.0315
T4C0.0394
%
G90
G05
T1
X4.4843Y-3.2598
X4.5039Y-3.3898
X4.655Y-3.3312
X4.7126Y-2.7126
X4.7126Y-3.185
X4.7126Y-3.5394
X4.7421Y-4.1654
X4.7421Y-4.185
X4.7421Y-4.2047
X4.7618Y-4.1654
X4.7618Y-4.185
X4.7618Y-4.2047
X4.7746Y-3.3976
X4.7815Y-4.1654
X4.7815Y-4.185
X4.7815Y-4.2047
X4.8022Y-3.3976
X4.8297Y-3.3976
X4.8583Y-3.3976
X4.9134Y-3.8268
X4.9567Y-2.9016
X4.9646Y-3.6969
X4.9724Y-4.2402
X4.9882Y-3.8583
X4.998Y-3.5453
X5.0Y-4.2126
X5.012Y-4.1616
X5.0276Y-4.1811
X5.0433Y-3.8228
X5.0787Y-3.1801
X5.0787Y-3.2077
X5.0787Y-3.2362
X5.0945Y-4.0354
X5.1181Y-3.9055
X5.1299Y-3.8583
X5.1654Y-4.0472
X5.1654Y-4.0787
X5.2047Y-4.0472
X5.2244Y-3.8228
X5.2874Y-4.0315
X5.311Y-2.9488
X5.374Y-3.4921
T3
X4.374Y-3.5945
X4.374Y-3.6732
X4.374Y-3.752
T4
X4.374Y-3.5157
X4.374Y-3.8307
X4.4Y-2.85
X4.4Y-2.95
X4.4Y-3.05
X4.4Y-3.15
X4.4Y-3.25
X4.5551Y-3.5984
X4.5551Y-3.6984
X4.5551Y-3.7984
X4.6551Y-3.5984
X4.6551Y-3.6984
X4.6551Y-3.7984
X5.1929Y-3.5669
X5.1929Y-3.6669
T2
G00X4.3858Y-3.9205
M15
G01X4.3622Y-3.9205
M16
G05
G00X4.3858Y-4.2606
M15
G01X4.3622Y-4.2606
M16
G05
G00X4.5354Y-3.9205
M15
G01X4.5118Y-3.9205
M16
G05
G00X4.5354Y-4.2606
M15
G01X4.5118Y-4.2606
M16
G05
T0
M30
