%TF.GenerationSoftware,KiCad,Pcbnew,(5.1.9)-1*%
%TF.CreationDate,2022-10-17T20:04:13-04:00*%
%TF.ProjectId,slime,736c696d-652e-46b6-9963-61645f706362,rev?*%
%TF.SameCoordinates,Original*%
%TF.FileFunction,Legend,Top*%
%TF.FilePolarity,Positive*%
%FSLAX46Y46*%
G04 Gerber Fmt 4.6, Leading zero omitted, Abs format (unit mm)*
G04 Created by KiCad (PCBNEW (5.1.9)-1) date 2022-10-17 20:04:13*
%MOMM*%
%LPD*%
G01*
G04 APERTURE LIST*
%ADD10C,0.120000*%
%ADD11C,0.010000*%
%ADD12C,0.200000*%
%ADD13C,0.150000*%
G04 APERTURE END LIST*
D10*
%TO.C,U7*%
X124690000Y-90890000D02*
X124950000Y-90890000D01*
X124690000Y-90890000D02*
X124690000Y-91150000D01*
X128710000Y-90890000D02*
X128450000Y-90890000D01*
X128710000Y-90890000D02*
X128710000Y-91150000D01*
X124690000Y-96310000D02*
X124690000Y-96050000D01*
X128710000Y-96310000D02*
X128450000Y-96310000D01*
X128710000Y-96310000D02*
X128710000Y-96050000D01*
X124741421Y-96500000D02*
G75*
G03*
X124741421Y-96500000I-141421J0D01*
G01*
X124823607Y-96500000D02*
G75*
G03*
X124823607Y-96500000I-223607J0D01*
G01*
%TO.C,B+*%
X134300000Y-104200000D02*
X138700000Y-104200000D01*
X138700000Y-104200000D02*
X138700000Y-108600000D01*
X138700000Y-108600000D02*
X134300000Y-108600000D01*
X134300000Y-108600000D02*
X134300000Y-104200000D01*
%TO.C,~*%
X114370000Y-90070000D02*
X115700000Y-90070000D01*
X114370000Y-91400000D02*
X114370000Y-90070000D01*
X116970000Y-90070000D02*
X119570000Y-90070000D01*
X116970000Y-92670000D02*
X116970000Y-90070000D01*
X114370000Y-92670000D02*
X116970000Y-92670000D01*
X119570000Y-90070000D02*
X119570000Y-97810000D01*
X114370000Y-92670000D02*
X114370000Y-97810000D01*
X114370000Y-97810000D02*
X119570000Y-97810000D01*
%TO.C,U5*%
X119180000Y-60280000D02*
X135420000Y-60280000D01*
X135420000Y-60280000D02*
X135420000Y-67900000D01*
X135420000Y-83900000D02*
X135420000Y-84520000D01*
X135420000Y-84520000D02*
X133300000Y-84520000D01*
X121300000Y-84520000D02*
X119180000Y-84520000D01*
X119180000Y-84520000D02*
X119180000Y-83900000D01*
X119180000Y-67900000D02*
X119180000Y-60280000D01*
X119180000Y-67900000D02*
X118570000Y-67900000D01*
%TO.C,R12*%
X137653641Y-76520000D02*
X137346359Y-76520000D01*
X137653641Y-77280000D02*
X137346359Y-77280000D01*
%TO.C,R11*%
X137346359Y-81230000D02*
X137653641Y-81230000D01*
X137346359Y-80470000D02*
X137653641Y-80470000D01*
%TO.C,U1*%
X121800000Y-104200000D02*
X122200000Y-104200000D01*
X122200000Y-104200000D02*
X122200000Y-104700000D01*
X120300000Y-104200000D02*
X119900000Y-104200000D01*
X119900000Y-104200000D02*
X119900000Y-104700000D01*
X122200000Y-107800000D02*
X122200000Y-108300000D01*
X122200000Y-108300000D02*
X121800000Y-108300000D01*
X120300000Y-108300000D02*
X119900000Y-108300000D01*
X119900000Y-108300000D02*
X119900000Y-107800000D01*
X119823607Y-108500000D02*
G75*
G03*
X119823607Y-108500000I-223607J0D01*
G01*
X119741421Y-108500000D02*
G75*
G03*
X119741421Y-108500000I-141421J0D01*
G01*
X119700000Y-108500000D02*
G75*
G03*
X119700000Y-108500000I-100000J0D01*
G01*
X119600000Y-108500000D02*
X119700000Y-108500000D01*
%TO.C,U3*%
X132290000Y-98030000D02*
X132290000Y-96630000D01*
X132290000Y-96630000D02*
X130690000Y-96630000D01*
X130690000Y-96630000D02*
X130690000Y-98430000D01*
X130690000Y-98430000D02*
X132290000Y-98430000D01*
X132290000Y-98430000D02*
X132290000Y-98030000D01*
X132740000Y-96480000D02*
G75*
G03*
X132740000Y-96480000I-250000J0D01*
G01*
X132640000Y-96480000D02*
G75*
G03*
X132640000Y-96480000I-150000J0D01*
G01*
X132540000Y-96480000D02*
G75*
G03*
X132540000Y-96480000I-50000J0D01*
G01*
%TO.C,~*%
X130570000Y-94470000D02*
X133230000Y-94470000D01*
X130570000Y-91870000D02*
X130570000Y-94470000D01*
X133230000Y-91870000D02*
X133230000Y-94470000D01*
X130570000Y-91870000D02*
X133230000Y-91870000D01*
X130570000Y-90600000D02*
X130570000Y-89270000D01*
X130570000Y-89270000D02*
X131900000Y-89270000D01*
%TO.C,R8*%
X137413641Y-102730000D02*
X137106359Y-102730000D01*
X137413641Y-101970000D02*
X137106359Y-101970000D01*
%TO.C,BNO MODULE*%
X110430000Y-71060000D02*
X111760000Y-71060000D01*
X110430000Y-72390000D02*
X110430000Y-71060000D01*
X110430000Y-73660000D02*
X113090000Y-73660000D01*
X113090000Y-73660000D02*
X113090000Y-83880000D01*
X110430000Y-73660000D02*
X110430000Y-83880000D01*
X110430000Y-83880000D02*
X113090000Y-83880000D01*
D11*
%TO.C,~*%
G36*
X127542790Y-72083185D02*
G01*
X127508903Y-72090468D01*
X127475520Y-72097602D01*
X127444895Y-72104107D01*
X127419281Y-72109506D01*
X127400933Y-72113319D01*
X127399435Y-72113625D01*
X127364584Y-72121635D01*
X127327428Y-72131722D01*
X127290537Y-72143062D01*
X127256479Y-72154833D01*
X127227824Y-72166210D01*
X127211905Y-72173736D01*
X127165431Y-72202747D01*
X127124750Y-72238115D01*
X127089358Y-72280500D01*
X127058749Y-72330563D01*
X127032417Y-72388966D01*
X127019386Y-72425451D01*
X127014139Y-72440926D01*
X127009141Y-72453376D01*
X127003196Y-72464485D01*
X126995109Y-72475936D01*
X126983685Y-72489413D01*
X126967729Y-72506598D01*
X126946043Y-72529176D01*
X126944832Y-72530430D01*
X126916886Y-72559787D01*
X126894931Y-72584010D01*
X126877657Y-72604796D01*
X126863755Y-72623842D01*
X126851916Y-72642844D01*
X126840829Y-72663500D01*
X126838444Y-72668265D01*
X126817672Y-72721275D01*
X126806350Y-72776993D01*
X126804502Y-72834796D01*
X126812152Y-72894058D01*
X126827644Y-72949460D01*
X126840479Y-72983078D01*
X126854633Y-73013689D01*
X126871383Y-73043435D01*
X126892008Y-73074461D01*
X126917783Y-73108910D01*
X126937110Y-73133173D01*
X126950018Y-73149209D01*
X126959194Y-73161932D01*
X126965002Y-73173406D01*
X126967810Y-73185698D01*
X126967983Y-73200871D01*
X126965887Y-73220991D01*
X126961889Y-73248123D01*
X126959842Y-73261378D01*
X126952355Y-73311021D01*
X126946483Y-73352878D01*
X126942041Y-73388998D01*
X126938847Y-73421432D01*
X126936718Y-73452228D01*
X126935469Y-73483436D01*
X126934917Y-73517105D01*
X126934845Y-73540593D01*
X126935828Y-73595353D01*
X126939042Y-73643995D01*
X126944994Y-73689111D01*
X126954192Y-73733291D01*
X126967141Y-73779126D01*
X126984349Y-73829206D01*
X126998703Y-73866907D01*
X127009637Y-73895538D01*
X127017946Y-73919681D01*
X127024246Y-73941999D01*
X127029153Y-73965156D01*
X127033284Y-73991816D01*
X127037255Y-74024640D01*
X127039065Y-74041292D01*
X127048488Y-74106388D01*
X127062163Y-74162824D01*
X127080451Y-74211149D01*
X127103710Y-74251912D01*
X127132300Y-74285661D01*
X127166579Y-74312947D01*
X127206909Y-74334317D01*
X127238446Y-74345898D01*
X127274258Y-74353866D01*
X127314202Y-74357397D01*
X127354641Y-74356493D01*
X127391942Y-74351155D01*
X127411361Y-74345806D01*
X127461653Y-74324832D01*
X127504895Y-74298579D01*
X127541431Y-74266530D01*
X127571607Y-74228168D01*
X127595767Y-74182974D01*
X127614255Y-74130433D01*
X127627418Y-74070025D01*
X127634821Y-74010501D01*
X127636271Y-73994179D01*
X127637488Y-73983363D01*
X127638794Y-73978722D01*
X127640512Y-73980926D01*
X127642966Y-73990643D01*
X127646479Y-74008543D01*
X127651374Y-74035295D01*
X127654130Y-74050493D01*
X127668384Y-74119222D01*
X127684648Y-74179779D01*
X127702771Y-74231737D01*
X127722603Y-74274671D01*
X127743996Y-74308153D01*
X127745077Y-74309538D01*
X127774224Y-74340637D01*
X127809283Y-74368787D01*
X127845015Y-74390131D01*
X127865566Y-74398994D01*
X127889484Y-74407412D01*
X127913519Y-74414422D01*
X127934424Y-74419061D01*
X127947164Y-74420420D01*
X127955044Y-74423654D01*
X127956758Y-74427919D01*
X127958512Y-74431577D01*
X127964911Y-74433856D01*
X127977664Y-74435039D01*
X127998480Y-74435413D01*
X128001749Y-74435417D01*
X128024386Y-74435035D01*
X128038461Y-74433751D01*
X128045387Y-74431356D01*
X128046741Y-74428777D01*
X128051308Y-74423740D01*
X128063442Y-74418623D01*
X128071991Y-74416309D01*
X128106702Y-74405433D01*
X128138695Y-74388901D01*
X128170239Y-74365349D01*
X128194264Y-74342965D01*
X128215592Y-74320577D01*
X128231715Y-74300567D01*
X128245346Y-74279203D01*
X128257863Y-74255453D01*
X128272859Y-74222265D01*
X128287409Y-74184660D01*
X128300889Y-74144795D01*
X128312672Y-74104830D01*
X128322133Y-74066922D01*
X128328644Y-74033230D01*
X128331580Y-74005912D01*
X128331684Y-74000967D01*
X128331684Y-73985506D01*
X128362928Y-73985384D01*
X128410717Y-73980495D01*
X128454932Y-73966352D01*
X128495244Y-73943156D01*
X128531326Y-73911107D01*
X128562848Y-73870407D01*
X128570493Y-73858031D01*
X128590238Y-73820542D01*
X128606448Y-73780618D01*
X128619305Y-73737187D01*
X128628992Y-73689172D01*
X128635688Y-73635502D01*
X128639578Y-73575101D01*
X128640840Y-73506895D01*
X128640095Y-73446553D01*
X128639036Y-73409915D01*
X128637639Y-73374352D01*
X128636596Y-73353509D01*
X128565735Y-73353509D01*
X128563653Y-73425433D01*
X128559250Y-73494397D01*
X128552667Y-73559330D01*
X128544046Y-73619159D01*
X128533528Y-73672814D01*
X128521255Y-73719222D01*
X128507369Y-73757311D01*
X128500263Y-73772152D01*
X128481212Y-73800996D01*
X128457799Y-73825120D01*
X128431597Y-73843685D01*
X128404177Y-73855855D01*
X128377114Y-73860791D01*
X128351980Y-73857657D01*
X128344841Y-73854922D01*
X128334331Y-73846491D01*
X128329020Y-73835144D01*
X128330487Y-73824603D01*
X128331408Y-73823298D01*
X128335988Y-73812513D01*
X128337479Y-73798572D01*
X128335306Y-73787354D01*
X128334984Y-73786795D01*
X128334063Y-73781332D01*
X128335900Y-73780546D01*
X128337798Y-73775941D01*
X128339169Y-73763672D01*
X128340018Y-73746061D01*
X128340350Y-73725427D01*
X128340170Y-73704091D01*
X128339482Y-73684374D01*
X128338292Y-73668596D01*
X128336605Y-73659077D01*
X128335644Y-73657427D01*
X128334373Y-73651945D01*
X128336430Y-73648377D01*
X128339586Y-73639248D01*
X128339816Y-73626224D01*
X128339846Y-73614410D01*
X128342453Y-73607615D01*
X128342619Y-73607501D01*
X128344844Y-73601161D01*
X128343917Y-73589687D01*
X128343739Y-73588858D01*
X128341627Y-73575658D01*
X128339595Y-73556762D01*
X128338201Y-73538094D01*
X128337012Y-73517382D01*
X128335903Y-73498067D01*
X128335188Y-73485604D01*
X128333466Y-73472069D01*
X128330628Y-73462667D01*
X128330353Y-73462204D01*
X128329394Y-73455341D01*
X128330911Y-73453589D01*
X128333236Y-73447355D01*
X128333896Y-73435277D01*
X128333038Y-73421344D01*
X128330808Y-73409542D01*
X128329139Y-73405545D01*
X128328946Y-73397521D01*
X128330968Y-73393985D01*
X128333625Y-73385464D01*
X128332569Y-73382056D01*
X128330869Y-73374320D01*
X128329999Y-73359940D01*
X128330087Y-73344731D01*
X128329942Y-73324122D01*
X128328451Y-73304269D01*
X128326751Y-73293511D01*
X128326225Y-73288975D01*
X128210167Y-73288975D01*
X128209888Y-73337796D01*
X128209508Y-73360802D01*
X128207243Y-73459164D01*
X128204693Y-73548660D01*
X128201789Y-73630418D01*
X128198465Y-73705568D01*
X128194652Y-73775241D01*
X128190282Y-73840564D01*
X128185288Y-73902667D01*
X128179602Y-73962679D01*
X128173156Y-74021731D01*
X128166585Y-74075488D01*
X128164063Y-74096968D01*
X128161191Y-74124192D01*
X128158404Y-74152935D01*
X128156961Y-74169063D01*
X128153691Y-74199930D01*
X128149445Y-74222903D01*
X128143408Y-74240085D01*
X128134764Y-74253577D01*
X128122698Y-74265483D01*
X128118127Y-74269187D01*
X128098738Y-74283295D01*
X128080886Y-74293166D01*
X128060177Y-74300975D01*
X128044524Y-74305582D01*
X128007840Y-74313006D01*
X127971358Y-74314254D01*
X127931178Y-74309425D01*
X127926441Y-74308541D01*
X127891390Y-74299186D01*
X127859394Y-74284543D01*
X127827538Y-74263121D01*
X127810267Y-74248982D01*
X127791054Y-74229996D01*
X127774856Y-74208214D01*
X127761378Y-74182635D01*
X127750329Y-74152254D01*
X127741416Y-74116070D01*
X127734346Y-74073079D01*
X127728826Y-74022279D01*
X127724563Y-73962666D01*
X127724052Y-73953601D01*
X127720526Y-73889202D01*
X127582442Y-73893236D01*
X127545343Y-73894341D01*
X127510723Y-73895410D01*
X127480079Y-73896395D01*
X127454907Y-73897246D01*
X127436704Y-73897915D01*
X127426966Y-73898351D01*
X127426863Y-73898358D01*
X127409760Y-73899224D01*
X127390849Y-73899918D01*
X127388469Y-73899983D01*
X127375400Y-73900676D01*
X127370094Y-73903254D01*
X127370320Y-73909838D01*
X127371924Y-73915697D01*
X127381744Y-73938618D01*
X127398013Y-73963750D01*
X127409170Y-73977535D01*
X127417509Y-73989357D01*
X127421734Y-73999809D01*
X127421864Y-74001267D01*
X127423876Y-74010334D01*
X127429143Y-74025112D01*
X127436225Y-74041731D01*
X127448852Y-74070333D01*
X127457028Y-74092261D01*
X127461171Y-74109574D01*
X127461696Y-74124331D01*
X127459020Y-74138591D01*
X127457073Y-74144834D01*
X127441228Y-74176627D01*
X127417686Y-74203381D01*
X127388085Y-74223644D01*
X127354504Y-74235865D01*
X127331958Y-74238836D01*
X127303167Y-74239690D01*
X127271617Y-74238603D01*
X127240795Y-74235747D01*
X127214188Y-74231296D01*
X127202859Y-74228310D01*
X127173776Y-74214386D01*
X127147331Y-74192886D01*
X127126432Y-74166230D01*
X127124767Y-74163389D01*
X127120094Y-74152437D01*
X127113686Y-74133540D01*
X127106081Y-74108489D01*
X127097815Y-74079076D01*
X127089426Y-74047092D01*
X127087148Y-74037995D01*
X127078158Y-74001951D01*
X127068721Y-73964490D01*
X127059536Y-73928373D01*
X127051307Y-73896359D01*
X127044734Y-73871205D01*
X127044554Y-73870528D01*
X127035027Y-73832614D01*
X127026979Y-73795739D01*
X127020314Y-73758714D01*
X127014935Y-73720346D01*
X127010746Y-73679447D01*
X127007649Y-73634823D01*
X127005549Y-73585286D01*
X127004349Y-73529643D01*
X127003953Y-73466703D01*
X127004264Y-73395277D01*
X127004444Y-73375626D01*
X127005021Y-73320756D01*
X127005588Y-73274938D01*
X127006182Y-73237224D01*
X127006842Y-73206670D01*
X127007606Y-73182327D01*
X127008513Y-73163249D01*
X127009601Y-73148491D01*
X127010908Y-73137105D01*
X127012472Y-73128146D01*
X127014333Y-73120665D01*
X127014852Y-73118905D01*
X127020543Y-73106405D01*
X127029202Y-73093548D01*
X127038561Y-73083131D01*
X127046356Y-73077950D01*
X127048112Y-73077848D01*
X127066590Y-73084095D01*
X127087181Y-73094695D01*
X127100195Y-73103426D01*
X127118335Y-73112921D01*
X127138542Y-73117691D01*
X127155272Y-73120729D01*
X127169597Y-73125626D01*
X127172745Y-73127329D01*
X127186054Y-73134305D01*
X127204416Y-73141231D01*
X127228949Y-73148424D01*
X127260771Y-73156199D01*
X127301002Y-73164875D01*
X127316884Y-73168103D01*
X127379183Y-73179662D01*
X127433814Y-73187566D01*
X127482410Y-73191826D01*
X127526605Y-73192451D01*
X127568035Y-73189450D01*
X127608333Y-73182833D01*
X127649132Y-73172609D01*
X127657681Y-73170076D01*
X127689674Y-73159647D01*
X127715147Y-73149358D01*
X127737425Y-73137617D01*
X127759835Y-73122836D01*
X127766319Y-73118133D01*
X127797094Y-73089836D01*
X127822811Y-73053840D01*
X127843631Y-73009816D01*
X127859716Y-72957434D01*
X127869456Y-72908197D01*
X127872939Y-72878843D01*
X127875108Y-72844624D01*
X127876042Y-72807185D01*
X127875833Y-72770357D01*
X127776085Y-72770357D01*
X127771038Y-72813506D01*
X127768878Y-72824695D01*
X127753774Y-72874656D01*
X127730266Y-72919567D01*
X127698799Y-72959038D01*
X127659818Y-72992674D01*
X127613766Y-73020085D01*
X127561088Y-73040877D01*
X127510045Y-73053308D01*
X127495799Y-73055914D01*
X127484589Y-73057816D01*
X127474612Y-73059044D01*
X127464068Y-73059630D01*
X127451154Y-73059607D01*
X127434069Y-73059006D01*
X127411011Y-73057860D01*
X127380179Y-73056199D01*
X127371873Y-73055751D01*
X127339435Y-73053658D01*
X127306865Y-73050938D01*
X127276979Y-73047869D01*
X127252597Y-73044729D01*
X127241899Y-73042948D01*
X127189171Y-73029612D01*
X127140448Y-73010873D01*
X127096408Y-72987447D01*
X127057729Y-72960048D01*
X127025090Y-72929393D01*
X126999168Y-72896195D01*
X126980642Y-72861169D01*
X126970189Y-72825032D01*
X126968489Y-72788497D01*
X126973685Y-72760143D01*
X126983426Y-72735967D01*
X126998774Y-72708432D01*
X127017654Y-72680578D01*
X127037992Y-72655444D01*
X127057711Y-72636072D01*
X127059199Y-72634863D01*
X127095591Y-72610198D01*
X127139627Y-72587632D01*
X127189017Y-72568137D01*
X127241471Y-72552685D01*
X127265334Y-72547337D01*
X127286651Y-72543674D01*
X127309542Y-72541180D01*
X127336239Y-72539722D01*
X127368976Y-72539165D01*
X127399368Y-72539262D01*
X127433989Y-72539842D01*
X127464452Y-72541080D01*
X127493114Y-72543242D01*
X127522335Y-72546594D01*
X127554473Y-72551402D01*
X127591886Y-72557931D01*
X127631822Y-72565461D01*
X127651410Y-72569069D01*
X127670374Y-72572303D01*
X127678170Y-72573516D01*
X127701495Y-72581859D01*
X127722893Y-72599278D01*
X127741715Y-72624936D01*
X127757313Y-72657994D01*
X127766791Y-72688242D01*
X127774690Y-72729941D01*
X127776085Y-72770357D01*
X127875833Y-72770357D01*
X127875820Y-72768170D01*
X127874519Y-72729225D01*
X127872218Y-72691995D01*
X127868996Y-72658123D01*
X127864931Y-72629255D01*
X127860100Y-72607035D01*
X127854584Y-72593108D01*
X127854435Y-72592876D01*
X127842442Y-72580722D01*
X127822095Y-72567136D01*
X127794838Y-72552663D01*
X127762117Y-72537849D01*
X127725377Y-72523240D01*
X127686064Y-72509382D01*
X127645622Y-72496820D01*
X127605498Y-72486100D01*
X127567137Y-72477768D01*
X127536841Y-72472952D01*
X127513346Y-72469793D01*
X127481814Y-72465211D01*
X127441380Y-72459080D01*
X127436861Y-72458384D01*
X127419720Y-72456696D01*
X127395250Y-72455550D01*
X127366106Y-72454993D01*
X127334944Y-72455077D01*
X127304420Y-72455851D01*
X127303627Y-72455882D01*
X127280934Y-72455920D01*
X127264359Y-72453520D01*
X127250199Y-72448111D01*
X127248903Y-72447450D01*
X127233064Y-72435884D01*
X127225805Y-72422828D01*
X127227580Y-72409639D01*
X127233697Y-72401727D01*
X127246241Y-72389268D01*
X127258112Y-72376156D01*
X127267287Y-72364774D01*
X127271745Y-72357503D01*
X127271893Y-72356737D01*
X127275772Y-72352089D01*
X127285727Y-72344375D01*
X127294279Y-72338671D01*
X127306369Y-72330194D01*
X127313542Y-72323513D01*
X127314486Y-72320998D01*
X127317261Y-72316778D01*
X127326606Y-72308969D01*
X127340562Y-72299195D01*
X127341879Y-72298338D01*
X127356084Y-72288395D01*
X127365765Y-72280155D01*
X127368987Y-72275283D01*
X127368902Y-72275080D01*
X127370231Y-72272919D01*
X127373730Y-72273788D01*
X127381771Y-72272153D01*
X127386738Y-72266092D01*
X127392714Y-72259109D01*
X127397119Y-72258501D01*
X127401543Y-72257860D01*
X127401867Y-72256141D01*
X127405891Y-72251396D01*
X127409080Y-72250847D01*
X127417910Y-72248444D01*
X127430393Y-72242524D01*
X127432826Y-72241138D01*
X127447324Y-72233943D01*
X127460698Y-72229307D01*
X127461856Y-72229063D01*
X127474705Y-72225522D01*
X127490431Y-72219814D01*
X127493460Y-72218558D01*
X127510416Y-72212947D01*
X127534876Y-72206961D01*
X127564377Y-72201043D01*
X127596459Y-72195638D01*
X127628661Y-72191190D01*
X127658521Y-72188143D01*
X127664316Y-72187720D01*
X127732571Y-72187771D01*
X127800021Y-72196776D01*
X127865352Y-72214285D01*
X127927253Y-72239849D01*
X127984412Y-72273018D01*
X128035518Y-72313343D01*
X128038092Y-72315727D01*
X128067727Y-72346664D01*
X128092988Y-72380502D01*
X128114316Y-72418354D01*
X128132154Y-72461333D01*
X128146947Y-72510551D01*
X128159137Y-72567121D01*
X128169166Y-72632155D01*
X128171497Y-72650768D01*
X128175169Y-72681103D01*
X128331803Y-73645651D01*
X128180452Y-72721892D01*
X128182746Y-72737304D01*
X128185263Y-72752700D01*
X128186640Y-72760747D01*
X128189895Y-72784512D01*
X128193074Y-72816988D01*
X128196128Y-72856888D01*
X128199008Y-72902927D01*
X128201664Y-72953817D01*
X128204048Y-73008271D01*
X128206111Y-73065003D01*
X128207803Y-73122726D01*
X128209076Y-73180154D01*
X128209880Y-73235999D01*
X128210167Y-73288975D01*
X128326225Y-73288975D01*
X128324822Y-73276878D01*
X128328329Y-73265404D01*
X128329017Y-73264371D01*
X128333081Y-73255608D01*
X128331005Y-73246118D01*
X128328890Y-73241770D01*
X128325159Y-73230750D01*
X128325852Y-73223419D01*
X128327725Y-73215677D01*
X128328294Y-73201852D01*
X128327962Y-73193162D01*
X128326902Y-73177049D01*
X128326068Y-73164407D01*
X128325821Y-73160668D01*
X128322368Y-73149907D01*
X128320575Y-73147140D01*
X128318233Y-73138638D01*
X128319257Y-73135560D01*
X128321433Y-73127036D01*
X128323024Y-73111174D01*
X128323991Y-73090618D01*
X128324292Y-73068012D01*
X128323889Y-73046003D01*
X128322742Y-73027234D01*
X128321065Y-73015410D01*
X128318757Y-72997993D01*
X128321482Y-72988906D01*
X128325662Y-72980015D01*
X128326400Y-72968549D01*
X128323570Y-72959750D01*
X128322229Y-72958543D01*
X128319771Y-72952337D01*
X128318586Y-72939707D01*
X128318625Y-72932003D01*
X128318292Y-72916646D01*
X128316467Y-72905158D01*
X128315236Y-72902289D01*
X128313903Y-72893345D01*
X128316084Y-72886850D01*
X128319062Y-72874223D01*
X128318368Y-72866615D01*
X128317274Y-72850899D01*
X128321346Y-72837188D01*
X128329002Y-72827390D01*
X128338660Y-72823416D01*
X128348736Y-72827176D01*
X128350044Y-72828383D01*
X128360155Y-72833922D01*
X128367239Y-72834137D01*
X128377697Y-72835420D01*
X128382057Y-72838693D01*
X128388798Y-72843383D01*
X128391839Y-72843128D01*
X128397466Y-72844748D01*
X128405020Y-72851931D01*
X128417157Y-72860904D01*
X128431665Y-72862921D01*
X128447217Y-72866066D01*
X128462364Y-72876572D01*
X128477873Y-72895201D01*
X128494508Y-72922716D01*
X128497741Y-72928785D01*
X128517784Y-72972759D01*
X128534067Y-73021427D01*
X128546783Y-73075777D01*
X128556120Y-73136796D01*
X128562269Y-73205472D01*
X128565353Y-73279699D01*
X128565735Y-73353509D01*
X128636596Y-73353509D01*
X128636010Y-73341815D01*
X128634252Y-73314253D01*
X128632469Y-73293617D01*
X128631474Y-73285643D01*
X128629006Y-73263431D01*
X128628231Y-73238517D01*
X128629142Y-73208376D01*
X128631185Y-73177432D01*
X128633423Y-73141973D01*
X128635042Y-73103058D01*
X128636044Y-73062547D01*
X128636427Y-73022301D01*
X128636191Y-72984182D01*
X128635336Y-72950050D01*
X128633861Y-72921766D01*
X128631767Y-72901191D01*
X128631224Y-72897888D01*
X128618378Y-72854484D01*
X128596713Y-72813935D01*
X128567288Y-72777560D01*
X128531163Y-72746679D01*
X128490981Y-72723341D01*
X128474805Y-72716515D01*
X128461111Y-72711959D01*
X128454785Y-72710805D01*
X128445323Y-72708843D01*
X128430450Y-72703811D01*
X128417293Y-72698463D01*
X128395567Y-72690398D01*
X128371458Y-72683511D01*
X128359615Y-72680986D01*
X128343845Y-72678049D01*
X128332799Y-72675667D01*
X128329220Y-72674533D01*
X128327664Y-72669435D01*
X128324340Y-72657178D01*
X128319935Y-72640293D01*
X128319416Y-72638271D01*
X128305683Y-72591327D01*
X128287284Y-72538397D01*
X128265210Y-72481737D01*
X128240452Y-72423604D01*
X128214003Y-72366254D01*
X128186854Y-72311944D01*
X128159997Y-72262929D01*
X128140000Y-72230000D01*
X128104990Y-72184448D01*
X128062430Y-72144286D01*
X128013779Y-72110574D01*
X127960498Y-72084374D01*
X127920971Y-72070999D01*
X127908006Y-72067706D01*
X127894904Y-72065204D01*
X127880056Y-72063387D01*
X127861855Y-72062152D01*
X127838692Y-72061393D01*
X127808961Y-72061006D01*
X127771052Y-72060886D01*
X127765346Y-72060885D01*
X127646219Y-72060885D01*
X127542790Y-72083185D01*
G37*
X127542790Y-72083185D02*
X127508903Y-72090468D01*
X127475520Y-72097602D01*
X127444895Y-72104107D01*
X127419281Y-72109506D01*
X127400933Y-72113319D01*
X127399435Y-72113625D01*
X127364584Y-72121635D01*
X127327428Y-72131722D01*
X127290537Y-72143062D01*
X127256479Y-72154833D01*
X127227824Y-72166210D01*
X127211905Y-72173736D01*
X127165431Y-72202747D01*
X127124750Y-72238115D01*
X127089358Y-72280500D01*
X127058749Y-72330563D01*
X127032417Y-72388966D01*
X127019386Y-72425451D01*
X127014139Y-72440926D01*
X127009141Y-72453376D01*
X127003196Y-72464485D01*
X126995109Y-72475936D01*
X126983685Y-72489413D01*
X126967729Y-72506598D01*
X126946043Y-72529176D01*
X126944832Y-72530430D01*
X126916886Y-72559787D01*
X126894931Y-72584010D01*
X126877657Y-72604796D01*
X126863755Y-72623842D01*
X126851916Y-72642844D01*
X126840829Y-72663500D01*
X126838444Y-72668265D01*
X126817672Y-72721275D01*
X126806350Y-72776993D01*
X126804502Y-72834796D01*
X126812152Y-72894058D01*
X126827644Y-72949460D01*
X126840479Y-72983078D01*
X126854633Y-73013689D01*
X126871383Y-73043435D01*
X126892008Y-73074461D01*
X126917783Y-73108910D01*
X126937110Y-73133173D01*
X126950018Y-73149209D01*
X126959194Y-73161932D01*
X126965002Y-73173406D01*
X126967810Y-73185698D01*
X126967983Y-73200871D01*
X126965887Y-73220991D01*
X126961889Y-73248123D01*
X126959842Y-73261378D01*
X126952355Y-73311021D01*
X126946483Y-73352878D01*
X126942041Y-73388998D01*
X126938847Y-73421432D01*
X126936718Y-73452228D01*
X126935469Y-73483436D01*
X126934917Y-73517105D01*
X126934845Y-73540593D01*
X126935828Y-73595353D01*
X126939042Y-73643995D01*
X126944994Y-73689111D01*
X126954192Y-73733291D01*
X126967141Y-73779126D01*
X126984349Y-73829206D01*
X126998703Y-73866907D01*
X127009637Y-73895538D01*
X127017946Y-73919681D01*
X127024246Y-73941999D01*
X127029153Y-73965156D01*
X127033284Y-73991816D01*
X127037255Y-74024640D01*
X127039065Y-74041292D01*
X127048488Y-74106388D01*
X127062163Y-74162824D01*
X127080451Y-74211149D01*
X127103710Y-74251912D01*
X127132300Y-74285661D01*
X127166579Y-74312947D01*
X127206909Y-74334317D01*
X127238446Y-74345898D01*
X127274258Y-74353866D01*
X127314202Y-74357397D01*
X127354641Y-74356493D01*
X127391942Y-74351155D01*
X127411361Y-74345806D01*
X127461653Y-74324832D01*
X127504895Y-74298579D01*
X127541431Y-74266530D01*
X127571607Y-74228168D01*
X127595767Y-74182974D01*
X127614255Y-74130433D01*
X127627418Y-74070025D01*
X127634821Y-74010501D01*
X127636271Y-73994179D01*
X127637488Y-73983363D01*
X127638794Y-73978722D01*
X127640512Y-73980926D01*
X127642966Y-73990643D01*
X127646479Y-74008543D01*
X127651374Y-74035295D01*
X127654130Y-74050493D01*
X127668384Y-74119222D01*
X127684648Y-74179779D01*
X127702771Y-74231737D01*
X127722603Y-74274671D01*
X127743996Y-74308153D01*
X127745077Y-74309538D01*
X127774224Y-74340637D01*
X127809283Y-74368787D01*
X127845015Y-74390131D01*
X127865566Y-74398994D01*
X127889484Y-74407412D01*
X127913519Y-74414422D01*
X127934424Y-74419061D01*
X127947164Y-74420420D01*
X127955044Y-74423654D01*
X127956758Y-74427919D01*
X127958512Y-74431577D01*
X127964911Y-74433856D01*
X127977664Y-74435039D01*
X127998480Y-74435413D01*
X128001749Y-74435417D01*
X128024386Y-74435035D01*
X128038461Y-74433751D01*
X128045387Y-74431356D01*
X128046741Y-74428777D01*
X128051308Y-74423740D01*
X128063442Y-74418623D01*
X128071991Y-74416309D01*
X128106702Y-74405433D01*
X128138695Y-74388901D01*
X128170239Y-74365349D01*
X128194264Y-74342965D01*
X128215592Y-74320577D01*
X128231715Y-74300567D01*
X128245346Y-74279203D01*
X128257863Y-74255453D01*
X128272859Y-74222265D01*
X128287409Y-74184660D01*
X128300889Y-74144795D01*
X128312672Y-74104830D01*
X128322133Y-74066922D01*
X128328644Y-74033230D01*
X128331580Y-74005912D01*
X128331684Y-74000967D01*
X128331684Y-73985506D01*
X128362928Y-73985384D01*
X128410717Y-73980495D01*
X128454932Y-73966352D01*
X128495244Y-73943156D01*
X128531326Y-73911107D01*
X128562848Y-73870407D01*
X128570493Y-73858031D01*
X128590238Y-73820542D01*
X128606448Y-73780618D01*
X128619305Y-73737187D01*
X128628992Y-73689172D01*
X128635688Y-73635502D01*
X128639578Y-73575101D01*
X128640840Y-73506895D01*
X128640095Y-73446553D01*
X128639036Y-73409915D01*
X128637639Y-73374352D01*
X128636596Y-73353509D01*
X128565735Y-73353509D01*
X128563653Y-73425433D01*
X128559250Y-73494397D01*
X128552667Y-73559330D01*
X128544046Y-73619159D01*
X128533528Y-73672814D01*
X128521255Y-73719222D01*
X128507369Y-73757311D01*
X128500263Y-73772152D01*
X128481212Y-73800996D01*
X128457799Y-73825120D01*
X128431597Y-73843685D01*
X128404177Y-73855855D01*
X128377114Y-73860791D01*
X128351980Y-73857657D01*
X128344841Y-73854922D01*
X128334331Y-73846491D01*
X128329020Y-73835144D01*
X128330487Y-73824603D01*
X128331408Y-73823298D01*
X128335988Y-73812513D01*
X128337479Y-73798572D01*
X128335306Y-73787354D01*
X128334984Y-73786795D01*
X128334063Y-73781332D01*
X128335900Y-73780546D01*
X128337798Y-73775941D01*
X128339169Y-73763672D01*
X128340018Y-73746061D01*
X128340350Y-73725427D01*
X128340170Y-73704091D01*
X128339482Y-73684374D01*
X128338292Y-73668596D01*
X128336605Y-73659077D01*
X128335644Y-73657427D01*
X128334373Y-73651945D01*
X128336430Y-73648377D01*
X128339586Y-73639248D01*
X128339816Y-73626224D01*
X128339846Y-73614410D01*
X128342453Y-73607615D01*
X128342619Y-73607501D01*
X128344844Y-73601161D01*
X128343917Y-73589687D01*
X128343739Y-73588858D01*
X128341627Y-73575658D01*
X128339595Y-73556762D01*
X128338201Y-73538094D01*
X128337012Y-73517382D01*
X128335903Y-73498067D01*
X128335188Y-73485604D01*
X128333466Y-73472069D01*
X128330628Y-73462667D01*
X128330353Y-73462204D01*
X128329394Y-73455341D01*
X128330911Y-73453589D01*
X128333236Y-73447355D01*
X128333896Y-73435277D01*
X128333038Y-73421344D01*
X128330808Y-73409542D01*
X128329139Y-73405545D01*
X128328946Y-73397521D01*
X128330968Y-73393985D01*
X128333625Y-73385464D01*
X128332569Y-73382056D01*
X128330869Y-73374320D01*
X128329999Y-73359940D01*
X128330087Y-73344731D01*
X128329942Y-73324122D01*
X128328451Y-73304269D01*
X128326751Y-73293511D01*
X128326225Y-73288975D01*
X128210167Y-73288975D01*
X128209888Y-73337796D01*
X128209508Y-73360802D01*
X128207243Y-73459164D01*
X128204693Y-73548660D01*
X128201789Y-73630418D01*
X128198465Y-73705568D01*
X128194652Y-73775241D01*
X128190282Y-73840564D01*
X128185288Y-73902667D01*
X128179602Y-73962679D01*
X128173156Y-74021731D01*
X128166585Y-74075488D01*
X128164063Y-74096968D01*
X128161191Y-74124192D01*
X128158404Y-74152935D01*
X128156961Y-74169063D01*
X128153691Y-74199930D01*
X128149445Y-74222903D01*
X128143408Y-74240085D01*
X128134764Y-74253577D01*
X128122698Y-74265483D01*
X128118127Y-74269187D01*
X128098738Y-74283295D01*
X128080886Y-74293166D01*
X128060177Y-74300975D01*
X128044524Y-74305582D01*
X128007840Y-74313006D01*
X127971358Y-74314254D01*
X127931178Y-74309425D01*
X127926441Y-74308541D01*
X127891390Y-74299186D01*
X127859394Y-74284543D01*
X127827538Y-74263121D01*
X127810267Y-74248982D01*
X127791054Y-74229996D01*
X127774856Y-74208214D01*
X127761378Y-74182635D01*
X127750329Y-74152254D01*
X127741416Y-74116070D01*
X127734346Y-74073079D01*
X127728826Y-74022279D01*
X127724563Y-73962666D01*
X127724052Y-73953601D01*
X127720526Y-73889202D01*
X127582442Y-73893236D01*
X127545343Y-73894341D01*
X127510723Y-73895410D01*
X127480079Y-73896395D01*
X127454907Y-73897246D01*
X127436704Y-73897915D01*
X127426966Y-73898351D01*
X127426863Y-73898358D01*
X127409760Y-73899224D01*
X127390849Y-73899918D01*
X127388469Y-73899983D01*
X127375400Y-73900676D01*
X127370094Y-73903254D01*
X127370320Y-73909838D01*
X127371924Y-73915697D01*
X127381744Y-73938618D01*
X127398013Y-73963750D01*
X127409170Y-73977535D01*
X127417509Y-73989357D01*
X127421734Y-73999809D01*
X127421864Y-74001267D01*
X127423876Y-74010334D01*
X127429143Y-74025112D01*
X127436225Y-74041731D01*
X127448852Y-74070333D01*
X127457028Y-74092261D01*
X127461171Y-74109574D01*
X127461696Y-74124331D01*
X127459020Y-74138591D01*
X127457073Y-74144834D01*
X127441228Y-74176627D01*
X127417686Y-74203381D01*
X127388085Y-74223644D01*
X127354504Y-74235865D01*
X127331958Y-74238836D01*
X127303167Y-74239690D01*
X127271617Y-74238603D01*
X127240795Y-74235747D01*
X127214188Y-74231296D01*
X127202859Y-74228310D01*
X127173776Y-74214386D01*
X127147331Y-74192886D01*
X127126432Y-74166230D01*
X127124767Y-74163389D01*
X127120094Y-74152437D01*
X127113686Y-74133540D01*
X127106081Y-74108489D01*
X127097815Y-74079076D01*
X127089426Y-74047092D01*
X127087148Y-74037995D01*
X127078158Y-74001951D01*
X127068721Y-73964490D01*
X127059536Y-73928373D01*
X127051307Y-73896359D01*
X127044734Y-73871205D01*
X127044554Y-73870528D01*
X127035027Y-73832614D01*
X127026979Y-73795739D01*
X127020314Y-73758714D01*
X127014935Y-73720346D01*
X127010746Y-73679447D01*
X127007649Y-73634823D01*
X127005549Y-73585286D01*
X127004349Y-73529643D01*
X127003953Y-73466703D01*
X127004264Y-73395277D01*
X127004444Y-73375626D01*
X127005021Y-73320756D01*
X127005588Y-73274938D01*
X127006182Y-73237224D01*
X127006842Y-73206670D01*
X127007606Y-73182327D01*
X127008513Y-73163249D01*
X127009601Y-73148491D01*
X127010908Y-73137105D01*
X127012472Y-73128146D01*
X127014333Y-73120665D01*
X127014852Y-73118905D01*
X127020543Y-73106405D01*
X127029202Y-73093548D01*
X127038561Y-73083131D01*
X127046356Y-73077950D01*
X127048112Y-73077848D01*
X127066590Y-73084095D01*
X127087181Y-73094695D01*
X127100195Y-73103426D01*
X127118335Y-73112921D01*
X127138542Y-73117691D01*
X127155272Y-73120729D01*
X127169597Y-73125626D01*
X127172745Y-73127329D01*
X127186054Y-73134305D01*
X127204416Y-73141231D01*
X127228949Y-73148424D01*
X127260771Y-73156199D01*
X127301002Y-73164875D01*
X127316884Y-73168103D01*
X127379183Y-73179662D01*
X127433814Y-73187566D01*
X127482410Y-73191826D01*
X127526605Y-73192451D01*
X127568035Y-73189450D01*
X127608333Y-73182833D01*
X127649132Y-73172609D01*
X127657681Y-73170076D01*
X127689674Y-73159647D01*
X127715147Y-73149358D01*
X127737425Y-73137617D01*
X127759835Y-73122836D01*
X127766319Y-73118133D01*
X127797094Y-73089836D01*
X127822811Y-73053840D01*
X127843631Y-73009816D01*
X127859716Y-72957434D01*
X127869456Y-72908197D01*
X127872939Y-72878843D01*
X127875108Y-72844624D01*
X127876042Y-72807185D01*
X127875833Y-72770357D01*
X127776085Y-72770357D01*
X127771038Y-72813506D01*
X127768878Y-72824695D01*
X127753774Y-72874656D01*
X127730266Y-72919567D01*
X127698799Y-72959038D01*
X127659818Y-72992674D01*
X127613766Y-73020085D01*
X127561088Y-73040877D01*
X127510045Y-73053308D01*
X127495799Y-73055914D01*
X127484589Y-73057816D01*
X127474612Y-73059044D01*
X127464068Y-73059630D01*
X127451154Y-73059607D01*
X127434069Y-73059006D01*
X127411011Y-73057860D01*
X127380179Y-73056199D01*
X127371873Y-73055751D01*
X127339435Y-73053658D01*
X127306865Y-73050938D01*
X127276979Y-73047869D01*
X127252597Y-73044729D01*
X127241899Y-73042948D01*
X127189171Y-73029612D01*
X127140448Y-73010873D01*
X127096408Y-72987447D01*
X127057729Y-72960048D01*
X127025090Y-72929393D01*
X126999168Y-72896195D01*
X126980642Y-72861169D01*
X126970189Y-72825032D01*
X126968489Y-72788497D01*
X126973685Y-72760143D01*
X126983426Y-72735967D01*
X126998774Y-72708432D01*
X127017654Y-72680578D01*
X127037992Y-72655444D01*
X127057711Y-72636072D01*
X127059199Y-72634863D01*
X127095591Y-72610198D01*
X127139627Y-72587632D01*
X127189017Y-72568137D01*
X127241471Y-72552685D01*
X127265334Y-72547337D01*
X127286651Y-72543674D01*
X127309542Y-72541180D01*
X127336239Y-72539722D01*
X127368976Y-72539165D01*
X127399368Y-72539262D01*
X127433989Y-72539842D01*
X127464452Y-72541080D01*
X127493114Y-72543242D01*
X127522335Y-72546594D01*
X127554473Y-72551402D01*
X127591886Y-72557931D01*
X127631822Y-72565461D01*
X127651410Y-72569069D01*
X127670374Y-72572303D01*
X127678170Y-72573516D01*
X127701495Y-72581859D01*
X127722893Y-72599278D01*
X127741715Y-72624936D01*
X127757313Y-72657994D01*
X127766791Y-72688242D01*
X127774690Y-72729941D01*
X127776085Y-72770357D01*
X127875833Y-72770357D01*
X127875820Y-72768170D01*
X127874519Y-72729225D01*
X127872218Y-72691995D01*
X127868996Y-72658123D01*
X127864931Y-72629255D01*
X127860100Y-72607035D01*
X127854584Y-72593108D01*
X127854435Y-72592876D01*
X127842442Y-72580722D01*
X127822095Y-72567136D01*
X127794838Y-72552663D01*
X127762117Y-72537849D01*
X127725377Y-72523240D01*
X127686064Y-72509382D01*
X127645622Y-72496820D01*
X127605498Y-72486100D01*
X127567137Y-72477768D01*
X127536841Y-72472952D01*
X127513346Y-72469793D01*
X127481814Y-72465211D01*
X127441380Y-72459080D01*
X127436861Y-72458384D01*
X127419720Y-72456696D01*
X127395250Y-72455550D01*
X127366106Y-72454993D01*
X127334944Y-72455077D01*
X127304420Y-72455851D01*
X127303627Y-72455882D01*
X127280934Y-72455920D01*
X127264359Y-72453520D01*
X127250199Y-72448111D01*
X127248903Y-72447450D01*
X127233064Y-72435884D01*
X127225805Y-72422828D01*
X127227580Y-72409639D01*
X127233697Y-72401727D01*
X127246241Y-72389268D01*
X127258112Y-72376156D01*
X127267287Y-72364774D01*
X127271745Y-72357503D01*
X127271893Y-72356737D01*
X127275772Y-72352089D01*
X127285727Y-72344375D01*
X127294279Y-72338671D01*
X127306369Y-72330194D01*
X127313542Y-72323513D01*
X127314486Y-72320998D01*
X127317261Y-72316778D01*
X127326606Y-72308969D01*
X127340562Y-72299195D01*
X127341879Y-72298338D01*
X127356084Y-72288395D01*
X127365765Y-72280155D01*
X127368987Y-72275283D01*
X127368902Y-72275080D01*
X127370231Y-72272919D01*
X127373730Y-72273788D01*
X127381771Y-72272153D01*
X127386738Y-72266092D01*
X127392714Y-72259109D01*
X127397119Y-72258501D01*
X127401543Y-72257860D01*
X127401867Y-72256141D01*
X127405891Y-72251396D01*
X127409080Y-72250847D01*
X127417910Y-72248444D01*
X127430393Y-72242524D01*
X127432826Y-72241138D01*
X127447324Y-72233943D01*
X127460698Y-72229307D01*
X127461856Y-72229063D01*
X127474705Y-72225522D01*
X127490431Y-72219814D01*
X127493460Y-72218558D01*
X127510416Y-72212947D01*
X127534876Y-72206961D01*
X127564377Y-72201043D01*
X127596459Y-72195638D01*
X127628661Y-72191190D01*
X127658521Y-72188143D01*
X127664316Y-72187720D01*
X127732571Y-72187771D01*
X127800021Y-72196776D01*
X127865352Y-72214285D01*
X127927253Y-72239849D01*
X127984412Y-72273018D01*
X128035518Y-72313343D01*
X128038092Y-72315727D01*
X128067727Y-72346664D01*
X128092988Y-72380502D01*
X128114316Y-72418354D01*
X128132154Y-72461333D01*
X128146947Y-72510551D01*
X128159137Y-72567121D01*
X128169166Y-72632155D01*
X128171497Y-72650768D01*
X128175169Y-72681103D01*
X128331803Y-73645651D01*
X128180452Y-72721892D01*
X128182746Y-72737304D01*
X128185263Y-72752700D01*
X128186640Y-72760747D01*
X128189895Y-72784512D01*
X128193074Y-72816988D01*
X128196128Y-72856888D01*
X128199008Y-72902927D01*
X128201664Y-72953817D01*
X128204048Y-73008271D01*
X128206111Y-73065003D01*
X128207803Y-73122726D01*
X128209076Y-73180154D01*
X128209880Y-73235999D01*
X128210167Y-73288975D01*
X128326225Y-73288975D01*
X128324822Y-73276878D01*
X128328329Y-73265404D01*
X128329017Y-73264371D01*
X128333081Y-73255608D01*
X128331005Y-73246118D01*
X128328890Y-73241770D01*
X128325159Y-73230750D01*
X128325852Y-73223419D01*
X128327725Y-73215677D01*
X128328294Y-73201852D01*
X128327962Y-73193162D01*
X128326902Y-73177049D01*
X128326068Y-73164407D01*
X128325821Y-73160668D01*
X128322368Y-73149907D01*
X128320575Y-73147140D01*
X128318233Y-73138638D01*
X128319257Y-73135560D01*
X128321433Y-73127036D01*
X128323024Y-73111174D01*
X128323991Y-73090618D01*
X128324292Y-73068012D01*
X128323889Y-73046003D01*
X128322742Y-73027234D01*
X128321065Y-73015410D01*
X128318757Y-72997993D01*
X128321482Y-72988906D01*
X128325662Y-72980015D01*
X128326400Y-72968549D01*
X128323570Y-72959750D01*
X128322229Y-72958543D01*
X128319771Y-72952337D01*
X128318586Y-72939707D01*
X128318625Y-72932003D01*
X128318292Y-72916646D01*
X128316467Y-72905158D01*
X128315236Y-72902289D01*
X128313903Y-72893345D01*
X128316084Y-72886850D01*
X128319062Y-72874223D01*
X128318368Y-72866615D01*
X128317274Y-72850899D01*
X128321346Y-72837188D01*
X128329002Y-72827390D01*
X128338660Y-72823416D01*
X128348736Y-72827176D01*
X128350044Y-72828383D01*
X128360155Y-72833922D01*
X128367239Y-72834137D01*
X128377697Y-72835420D01*
X128382057Y-72838693D01*
X128388798Y-72843383D01*
X128391839Y-72843128D01*
X128397466Y-72844748D01*
X128405020Y-72851931D01*
X128417157Y-72860904D01*
X128431665Y-72862921D01*
X128447217Y-72866066D01*
X128462364Y-72876572D01*
X128477873Y-72895201D01*
X128494508Y-72922716D01*
X128497741Y-72928785D01*
X128517784Y-72972759D01*
X128534067Y-73021427D01*
X128546783Y-73075777D01*
X128556120Y-73136796D01*
X128562269Y-73205472D01*
X128565353Y-73279699D01*
X128565735Y-73353509D01*
X128636596Y-73353509D01*
X128636010Y-73341815D01*
X128634252Y-73314253D01*
X128632469Y-73293617D01*
X128631474Y-73285643D01*
X128629006Y-73263431D01*
X128628231Y-73238517D01*
X128629142Y-73208376D01*
X128631185Y-73177432D01*
X128633423Y-73141973D01*
X128635042Y-73103058D01*
X128636044Y-73062547D01*
X128636427Y-73022301D01*
X128636191Y-72984182D01*
X128635336Y-72950050D01*
X128633861Y-72921766D01*
X128631767Y-72901191D01*
X128631224Y-72897888D01*
X128618378Y-72854484D01*
X128596713Y-72813935D01*
X128567288Y-72777560D01*
X128531163Y-72746679D01*
X128490981Y-72723341D01*
X128474805Y-72716515D01*
X128461111Y-72711959D01*
X128454785Y-72710805D01*
X128445323Y-72708843D01*
X128430450Y-72703811D01*
X128417293Y-72698463D01*
X128395567Y-72690398D01*
X128371458Y-72683511D01*
X128359615Y-72680986D01*
X128343845Y-72678049D01*
X128332799Y-72675667D01*
X128329220Y-72674533D01*
X128327664Y-72669435D01*
X128324340Y-72657178D01*
X128319935Y-72640293D01*
X128319416Y-72638271D01*
X128305683Y-72591327D01*
X128287284Y-72538397D01*
X128265210Y-72481737D01*
X128240452Y-72423604D01*
X128214003Y-72366254D01*
X128186854Y-72311944D01*
X128159997Y-72262929D01*
X128140000Y-72230000D01*
X128104990Y-72184448D01*
X128062430Y-72144286D01*
X128013779Y-72110574D01*
X127960498Y-72084374D01*
X127920971Y-72070999D01*
X127908006Y-72067706D01*
X127894904Y-72065204D01*
X127880056Y-72063387D01*
X127861855Y-72062152D01*
X127838692Y-72061393D01*
X127808961Y-72061006D01*
X127771052Y-72060886D01*
X127765346Y-72060885D01*
X127646219Y-72060885D01*
X127542790Y-72083185D01*
D10*
%TO.C,U2*%
X130350000Y-102145000D02*
X130350000Y-100445000D01*
X132050000Y-101995000D02*
X132050000Y-100445000D01*
X130100000Y-102500000D02*
G75*
G03*
X130100000Y-102500000I-100000J0D01*
G01*
X130200000Y-102500000D02*
G75*
G03*
X130200000Y-102500000I-200000J0D01*
G01*
%TO.C,B-*%
X134300000Y-95700000D02*
X138700000Y-95700000D01*
X138700000Y-95700000D02*
X138700000Y-100100000D01*
X138700000Y-100100000D02*
X134300000Y-100100000D01*
X134300000Y-100100000D02*
X134300000Y-95700000D01*
D12*
%TO.C,U4*%
X128550000Y-105350000D02*
G75*
G03*
X128550000Y-105350000I-100000J0D01*
G01*
D10*
%TO.C,C5*%
X128761252Y-104735000D02*
X128238748Y-104735000D01*
X128761252Y-103265000D02*
X128238748Y-103265000D01*
%TO.C,C4*%
X124965000Y-106861252D02*
X124965000Y-106338748D01*
X126435000Y-106861252D02*
X126435000Y-106338748D01*
%TO.C,U5*%
X121900000Y-93200000D02*
X124000000Y-93200000D01*
X124100000Y-95800000D02*
X121900000Y-95800000D01*
X121900000Y-95800000D02*
X121900000Y-93200000D01*
X124100000Y-95800000D02*
X124100000Y-93200000D01*
X124100000Y-93200000D02*
X124000000Y-93200000D01*
X124423607Y-96000000D02*
G75*
G03*
X124423607Y-96000000I-223607J0D01*
G01*
X124300000Y-96000000D02*
G75*
G03*
X124300000Y-96000000I-100000J0D01*
G01*
%TO.C,SW1*%
X109600000Y-93300000D02*
X109600000Y-98300000D01*
X109600000Y-98300000D02*
X112600000Y-98300000D01*
X109600000Y-93300000D02*
X109600000Y-88300000D01*
X109600000Y-88300000D02*
X112600000Y-88300000D01*
X112600000Y-88300000D02*
X112600000Y-98300000D01*
X109600000Y-92300000D02*
X107600000Y-92300000D01*
X107600000Y-92300000D02*
X107600000Y-93800000D01*
X107600000Y-93800000D02*
X109600000Y-93800000D01*
%TO.C,R3*%
X129880000Y-97346359D02*
X129880000Y-97653641D01*
X129120000Y-97346359D02*
X129120000Y-97653641D01*
%TO.C,R2*%
X131480000Y-104746359D02*
X131480000Y-105053641D01*
X130720000Y-104746359D02*
X130720000Y-105053641D01*
%TO.C,R10*%
X117153641Y-75280000D02*
X116846359Y-75280000D01*
X117153641Y-74520000D02*
X116846359Y-74520000D01*
%TO.C,R16*%
X116580000Y-80396359D02*
X116580000Y-80703641D01*
X115820000Y-80396359D02*
X115820000Y-80703641D01*
%TO.C,R15*%
X117253641Y-73280000D02*
X116946359Y-73280000D01*
X117253641Y-72520000D02*
X116946359Y-72520000D01*
%TO.C,R13*%
X123980000Y-96846359D02*
X123980000Y-97153641D01*
X123220000Y-96846359D02*
X123220000Y-97153641D01*
%TO.C,R9*%
X116946359Y-70520000D02*
X117253641Y-70520000D01*
X116946359Y-71280000D02*
X117253641Y-71280000D01*
%TO.C,R7*%
X116946359Y-68520000D02*
X117253641Y-68520000D01*
X116946359Y-69280000D02*
X117253641Y-69280000D01*
%TO.C,R6*%
X120543641Y-103880000D02*
X120236359Y-103880000D01*
X120543641Y-103120000D02*
X120236359Y-103120000D01*
%TO.C,R5*%
X122256359Y-103120000D02*
X122563641Y-103120000D01*
X122256359Y-103880000D02*
X122563641Y-103880000D01*
%TO.C,R4*%
X116920000Y-100253641D02*
X116920000Y-99946359D01*
X117680000Y-100253641D02*
X117680000Y-99946359D01*
%TO.C,R1*%
X118020000Y-100253641D02*
X118020000Y-99946359D01*
X118780000Y-100253641D02*
X118780000Y-99946359D01*
D12*
%TO.C,USB*%
X109650000Y-99430000D02*
X108500000Y-99430000D01*
X108500000Y-99430000D02*
X108500000Y-108370000D01*
X108500000Y-108370000D02*
X109650000Y-108370000D01*
D10*
%TO.C,D1*%
X119900000Y-102635000D02*
X123785000Y-102635000D01*
X123785000Y-102635000D02*
X123785000Y-100365000D01*
X123785000Y-100365000D02*
X119900000Y-100365000D01*
%TO.C,C2*%
X131407836Y-99560000D02*
X131192164Y-99560000D01*
X131407836Y-98840000D02*
X131192164Y-98840000D01*
%TO.C,C8*%
X137392164Y-82440000D02*
X137607836Y-82440000D01*
X137392164Y-83160000D02*
X137607836Y-83160000D01*
%TO.C,C7*%
X129860000Y-95192164D02*
X129860000Y-95407836D01*
X129140000Y-95192164D02*
X129140000Y-95407836D01*
%TO.C,C6*%
X126307836Y-97460000D02*
X126092164Y-97460000D01*
X126307836Y-96740000D02*
X126092164Y-96740000D01*
%TO.C,C4*%
X134240000Y-92760000D02*
X135440000Y-92760000D01*
X138760000Y-92760000D02*
X137560000Y-92760000D01*
X138760000Y-89304437D02*
X138760000Y-92760000D01*
X134240000Y-89304437D02*
X134240000Y-92760000D01*
X135304437Y-88240000D02*
X135440000Y-88240000D01*
X137695563Y-88240000D02*
X137560000Y-88240000D01*
X137695563Y-88240000D02*
X138760000Y-89304437D01*
X135304437Y-88240000D02*
X134240000Y-89304437D01*
X138060000Y-87500000D02*
X138060000Y-88000000D01*
X138310000Y-87750000D02*
X137810000Y-87750000D01*
%TO.C,U7*%
D13*
X125938095Y-89352380D02*
X125938095Y-90161904D01*
X125985714Y-90257142D01*
X126033333Y-90304761D01*
X126128571Y-90352380D01*
X126319047Y-90352380D01*
X126414285Y-90304761D01*
X126461904Y-90257142D01*
X126509523Y-90161904D01*
X126509523Y-89352380D01*
X126890476Y-89352380D02*
X127557142Y-89352380D01*
X127128571Y-90352380D01*
%TO.C,B+*%
X135952380Y-103528571D02*
X136095238Y-103576190D01*
X136142857Y-103623809D01*
X136190476Y-103719047D01*
X136190476Y-103861904D01*
X136142857Y-103957142D01*
X136095238Y-104004761D01*
X136000000Y-104052380D01*
X135619047Y-104052380D01*
X135619047Y-103052380D01*
X135952380Y-103052380D01*
X136047619Y-103100000D01*
X136095238Y-103147619D01*
X136142857Y-103242857D01*
X136142857Y-103338095D01*
X136095238Y-103433333D01*
X136047619Y-103480952D01*
X135952380Y-103528571D01*
X135619047Y-103528571D01*
X136619047Y-103671428D02*
X137380952Y-103671428D01*
X137000000Y-104052380D02*
X137000000Y-103290476D01*
%TO.C,~*%
%TO.C,U5*%
X138188095Y-67752380D02*
X138188095Y-68561904D01*
X138235714Y-68657142D01*
X138283333Y-68704761D01*
X138378571Y-68752380D01*
X138569047Y-68752380D01*
X138664285Y-68704761D01*
X138711904Y-68657142D01*
X138759523Y-68561904D01*
X138759523Y-67752380D01*
X139711904Y-67752380D02*
X139235714Y-67752380D01*
X139188095Y-68228571D01*
X139235714Y-68180952D01*
X139330952Y-68133333D01*
X139569047Y-68133333D01*
X139664285Y-68180952D01*
X139711904Y-68228571D01*
X139759523Y-68323809D01*
X139759523Y-68561904D01*
X139711904Y-68657142D01*
X139664285Y-68704761D01*
X139569047Y-68752380D01*
X139330952Y-68752380D01*
X139235714Y-68704761D01*
X139188095Y-68657142D01*
%TO.C,R12*%
X137057142Y-78652380D02*
X136723809Y-78176190D01*
X136485714Y-78652380D02*
X136485714Y-77652380D01*
X136866666Y-77652380D01*
X136961904Y-77700000D01*
X137009523Y-77747619D01*
X137057142Y-77842857D01*
X137057142Y-77985714D01*
X137009523Y-78080952D01*
X136961904Y-78128571D01*
X136866666Y-78176190D01*
X136485714Y-78176190D01*
X138009523Y-78652380D02*
X137438095Y-78652380D01*
X137723809Y-78652380D02*
X137723809Y-77652380D01*
X137628571Y-77795238D01*
X137533333Y-77890476D01*
X137438095Y-77938095D01*
X138390476Y-77747619D02*
X138438095Y-77700000D01*
X138533333Y-77652380D01*
X138771428Y-77652380D01*
X138866666Y-77700000D01*
X138914285Y-77747619D01*
X138961904Y-77842857D01*
X138961904Y-77938095D01*
X138914285Y-78080952D01*
X138342857Y-78652380D01*
X138961904Y-78652380D01*
%TO.C,R11*%
X137057142Y-80202380D02*
X136723809Y-79726190D01*
X136485714Y-80202380D02*
X136485714Y-79202380D01*
X136866666Y-79202380D01*
X136961904Y-79250000D01*
X137009523Y-79297619D01*
X137057142Y-79392857D01*
X137057142Y-79535714D01*
X137009523Y-79630952D01*
X136961904Y-79678571D01*
X136866666Y-79726190D01*
X136485714Y-79726190D01*
X138009523Y-80202380D02*
X137438095Y-80202380D01*
X137723809Y-80202380D02*
X137723809Y-79202380D01*
X137628571Y-79345238D01*
X137533333Y-79440476D01*
X137438095Y-79488095D01*
X138961904Y-80202380D02*
X138390476Y-80202380D01*
X138676190Y-80202380D02*
X138676190Y-79202380D01*
X138580952Y-79345238D01*
X138485714Y-79440476D01*
X138390476Y-79488095D01*
%TO.C,U1*%
X118552380Y-105661904D02*
X119361904Y-105661904D01*
X119457142Y-105614285D01*
X119504761Y-105566666D01*
X119552380Y-105471428D01*
X119552380Y-105280952D01*
X119504761Y-105185714D01*
X119457142Y-105138095D01*
X119361904Y-105090476D01*
X118552380Y-105090476D01*
X119552380Y-104090476D02*
X119552380Y-104661904D01*
X119552380Y-104376190D02*
X118552380Y-104376190D01*
X118695238Y-104471428D01*
X118790476Y-104566666D01*
X118838095Y-104661904D01*
%TO.C,C1*%
X118133333Y-108357142D02*
X118085714Y-108404761D01*
X117942857Y-108452380D01*
X117847619Y-108452380D01*
X117704761Y-108404761D01*
X117609523Y-108309523D01*
X117561904Y-108214285D01*
X117514285Y-108023809D01*
X117514285Y-107880952D01*
X117561904Y-107690476D01*
X117609523Y-107595238D01*
X117704761Y-107500000D01*
X117847619Y-107452380D01*
X117942857Y-107452380D01*
X118085714Y-107500000D01*
X118133333Y-107547619D01*
X119085714Y-108452380D02*
X118514285Y-108452380D01*
X118800000Y-108452380D02*
X118800000Y-107452380D01*
X118704761Y-107595238D01*
X118609523Y-107690476D01*
X118514285Y-107738095D01*
%TO.C,C3*%
X123233333Y-108347142D02*
X123185714Y-108394761D01*
X123042857Y-108442380D01*
X122947619Y-108442380D01*
X122804761Y-108394761D01*
X122709523Y-108299523D01*
X122661904Y-108204285D01*
X122614285Y-108013809D01*
X122614285Y-107870952D01*
X122661904Y-107680476D01*
X122709523Y-107585238D01*
X122804761Y-107490000D01*
X122947619Y-107442380D01*
X123042857Y-107442380D01*
X123185714Y-107490000D01*
X123233333Y-107537619D01*
X123566666Y-107442380D02*
X124185714Y-107442380D01*
X123852380Y-107823333D01*
X123995238Y-107823333D01*
X124090476Y-107870952D01*
X124138095Y-107918571D01*
X124185714Y-108013809D01*
X124185714Y-108251904D01*
X124138095Y-108347142D01*
X124090476Y-108394761D01*
X123995238Y-108442380D01*
X123709523Y-108442380D01*
X123614285Y-108394761D01*
X123566666Y-108347142D01*
%TO.C,U3*%
X130838095Y-95352380D02*
X130838095Y-96161904D01*
X130885714Y-96257142D01*
X130933333Y-96304761D01*
X131028571Y-96352380D01*
X131219047Y-96352380D01*
X131314285Y-96304761D01*
X131361904Y-96257142D01*
X131409523Y-96161904D01*
X131409523Y-95352380D01*
X131790476Y-95352380D02*
X132409523Y-95352380D01*
X132076190Y-95733333D01*
X132219047Y-95733333D01*
X132314285Y-95780952D01*
X132361904Y-95828571D01*
X132409523Y-95923809D01*
X132409523Y-96161904D01*
X132361904Y-96257142D01*
X132314285Y-96304761D01*
X132219047Y-96352380D01*
X131933333Y-96352380D01*
X131838095Y-96304761D01*
X131790476Y-96257142D01*
%TO.C,R8*%
X137133333Y-101652380D02*
X136800000Y-101176190D01*
X136561904Y-101652380D02*
X136561904Y-100652380D01*
X136942857Y-100652380D01*
X137038095Y-100700000D01*
X137085714Y-100747619D01*
X137133333Y-100842857D01*
X137133333Y-100985714D01*
X137085714Y-101080952D01*
X137038095Y-101128571D01*
X136942857Y-101176190D01*
X136561904Y-101176190D01*
X137704761Y-101080952D02*
X137609523Y-101033333D01*
X137561904Y-100985714D01*
X137514285Y-100890476D01*
X137514285Y-100842857D01*
X137561904Y-100747619D01*
X137609523Y-100700000D01*
X137704761Y-100652380D01*
X137895238Y-100652380D01*
X137990476Y-100700000D01*
X138038095Y-100747619D01*
X138085714Y-100842857D01*
X138085714Y-100890476D01*
X138038095Y-100985714D01*
X137990476Y-101033333D01*
X137895238Y-101080952D01*
X137704761Y-101080952D01*
X137609523Y-101128571D01*
X137561904Y-101176190D01*
X137514285Y-101271428D01*
X137514285Y-101461904D01*
X137561904Y-101557142D01*
X137609523Y-101604761D01*
X137704761Y-101652380D01*
X137895238Y-101652380D01*
X137990476Y-101604761D01*
X138038095Y-101557142D01*
X138085714Y-101461904D01*
X138085714Y-101271428D01*
X138038095Y-101176190D01*
X137990476Y-101128571D01*
X137895238Y-101080952D01*
%TO.C,U2*%
X130538095Y-102752380D02*
X130538095Y-103561904D01*
X130585714Y-103657142D01*
X130633333Y-103704761D01*
X130728571Y-103752380D01*
X130919047Y-103752380D01*
X131014285Y-103704761D01*
X131061904Y-103657142D01*
X131109523Y-103561904D01*
X131109523Y-102752380D01*
X131538095Y-102847619D02*
X131585714Y-102800000D01*
X131680952Y-102752380D01*
X131919047Y-102752380D01*
X132014285Y-102800000D01*
X132061904Y-102847619D01*
X132109523Y-102942857D01*
X132109523Y-103038095D01*
X132061904Y-103180952D01*
X131490476Y-103752380D01*
X132109523Y-103752380D01*
%TO.C,B-*%
X135952380Y-94930571D02*
X136095238Y-94978190D01*
X136142857Y-95025809D01*
X136190476Y-95121047D01*
X136190476Y-95263904D01*
X136142857Y-95359142D01*
X136095238Y-95406761D01*
X136000000Y-95454380D01*
X135619047Y-95454380D01*
X135619047Y-94454380D01*
X135952380Y-94454380D01*
X136047619Y-94502000D01*
X136095238Y-94549619D01*
X136142857Y-94644857D01*
X136142857Y-94740095D01*
X136095238Y-94835333D01*
X136047619Y-94882952D01*
X135952380Y-94930571D01*
X135619047Y-94930571D01*
X136619047Y-95073428D02*
X137380952Y-95073428D01*
%TO.C,U4*%
X127338095Y-107652380D02*
X127338095Y-108461904D01*
X127385714Y-108557142D01*
X127433333Y-108604761D01*
X127528571Y-108652380D01*
X127719047Y-108652380D01*
X127814285Y-108604761D01*
X127861904Y-108557142D01*
X127909523Y-108461904D01*
X127909523Y-107652380D01*
X128814285Y-107985714D02*
X128814285Y-108652380D01*
X128576190Y-107604761D02*
X128338095Y-108319047D01*
X128957142Y-108319047D01*
%TO.C,C5*%
X128333333Y-102757142D02*
X128285714Y-102804761D01*
X128142857Y-102852380D01*
X128047619Y-102852380D01*
X127904761Y-102804761D01*
X127809523Y-102709523D01*
X127761904Y-102614285D01*
X127714285Y-102423809D01*
X127714285Y-102280952D01*
X127761904Y-102090476D01*
X127809523Y-101995238D01*
X127904761Y-101900000D01*
X128047619Y-101852380D01*
X128142857Y-101852380D01*
X128285714Y-101900000D01*
X128333333Y-101947619D01*
X129238095Y-101852380D02*
X128761904Y-101852380D01*
X128714285Y-102328571D01*
X128761904Y-102280952D01*
X128857142Y-102233333D01*
X129095238Y-102233333D01*
X129190476Y-102280952D01*
X129238095Y-102328571D01*
X129285714Y-102423809D01*
X129285714Y-102661904D01*
X129238095Y-102757142D01*
X129190476Y-102804761D01*
X129095238Y-102852380D01*
X128857142Y-102852380D01*
X128761904Y-102804761D01*
X128714285Y-102757142D01*
%TO.C,C4*%
X125333333Y-104357142D02*
X125285714Y-104404761D01*
X125142857Y-104452380D01*
X125047619Y-104452380D01*
X124904761Y-104404761D01*
X124809523Y-104309523D01*
X124761904Y-104214285D01*
X124714285Y-104023809D01*
X124714285Y-103880952D01*
X124761904Y-103690476D01*
X124809523Y-103595238D01*
X124904761Y-103500000D01*
X125047619Y-103452380D01*
X125142857Y-103452380D01*
X125285714Y-103500000D01*
X125333333Y-103547619D01*
X126190476Y-103785714D02*
X126190476Y-104452380D01*
X125952380Y-103404761D02*
X125714285Y-104119047D01*
X126333333Y-104119047D01*
%TO.C,U5*%
X122238095Y-91852380D02*
X122238095Y-92661904D01*
X122285714Y-92757142D01*
X122333333Y-92804761D01*
X122428571Y-92852380D01*
X122619047Y-92852380D01*
X122714285Y-92804761D01*
X122761904Y-92757142D01*
X122809523Y-92661904D01*
X122809523Y-91852380D01*
X123761904Y-91852380D02*
X123285714Y-91852380D01*
X123238095Y-92328571D01*
X123285714Y-92280952D01*
X123380952Y-92233333D01*
X123619047Y-92233333D01*
X123714285Y-92280952D01*
X123761904Y-92328571D01*
X123809523Y-92423809D01*
X123809523Y-92661904D01*
X123761904Y-92757142D01*
X123714285Y-92804761D01*
X123619047Y-92852380D01*
X123380952Y-92852380D01*
X123285714Y-92804761D01*
X123238095Y-92757142D01*
%TO.C,SW1*%
X114004761Y-94633333D02*
X114052380Y-94490476D01*
X114052380Y-94252380D01*
X114004761Y-94157142D01*
X113957142Y-94109523D01*
X113861904Y-94061904D01*
X113766666Y-94061904D01*
X113671428Y-94109523D01*
X113623809Y-94157142D01*
X113576190Y-94252380D01*
X113528571Y-94442857D01*
X113480952Y-94538095D01*
X113433333Y-94585714D01*
X113338095Y-94633333D01*
X113242857Y-94633333D01*
X113147619Y-94585714D01*
X113100000Y-94538095D01*
X113052380Y-94442857D01*
X113052380Y-94204761D01*
X113100000Y-94061904D01*
X113052380Y-93728571D02*
X114052380Y-93490476D01*
X113338095Y-93300000D01*
X114052380Y-93109523D01*
X113052380Y-92871428D01*
X114052380Y-91966666D02*
X114052380Y-92538095D01*
X114052380Y-92252380D02*
X113052380Y-92252380D01*
X113195238Y-92347619D01*
X113290476Y-92442857D01*
X113338095Y-92538095D01*
%TO.C,R3*%
X128752380Y-97866666D02*
X128276190Y-98200000D01*
X128752380Y-98438095D02*
X127752380Y-98438095D01*
X127752380Y-98057142D01*
X127800000Y-97961904D01*
X127847619Y-97914285D01*
X127942857Y-97866666D01*
X128085714Y-97866666D01*
X128180952Y-97914285D01*
X128228571Y-97961904D01*
X128276190Y-98057142D01*
X128276190Y-98438095D01*
X127752380Y-97533333D02*
X127752380Y-96914285D01*
X128133333Y-97247619D01*
X128133333Y-97104761D01*
X128180952Y-97009523D01*
X128228571Y-96961904D01*
X128323809Y-96914285D01*
X128561904Y-96914285D01*
X128657142Y-96961904D01*
X128704761Y-97009523D01*
X128752380Y-97104761D01*
X128752380Y-97390476D01*
X128704761Y-97485714D01*
X128657142Y-97533333D01*
%TO.C,R2*%
X130933333Y-107052380D02*
X130600000Y-106576190D01*
X130361904Y-107052380D02*
X130361904Y-106052380D01*
X130742857Y-106052380D01*
X130838095Y-106100000D01*
X130885714Y-106147619D01*
X130933333Y-106242857D01*
X130933333Y-106385714D01*
X130885714Y-106480952D01*
X130838095Y-106528571D01*
X130742857Y-106576190D01*
X130361904Y-106576190D01*
X131314285Y-106147619D02*
X131361904Y-106100000D01*
X131457142Y-106052380D01*
X131695238Y-106052380D01*
X131790476Y-106100000D01*
X131838095Y-106147619D01*
X131885714Y-106242857D01*
X131885714Y-106338095D01*
X131838095Y-106480952D01*
X131266666Y-107052380D01*
X131885714Y-107052380D01*
%TO.C,R10*%
X113957142Y-75352380D02*
X113623809Y-74876190D01*
X113385714Y-75352380D02*
X113385714Y-74352380D01*
X113766666Y-74352380D01*
X113861904Y-74400000D01*
X113909523Y-74447619D01*
X113957142Y-74542857D01*
X113957142Y-74685714D01*
X113909523Y-74780952D01*
X113861904Y-74828571D01*
X113766666Y-74876190D01*
X113385714Y-74876190D01*
X114909523Y-75352380D02*
X114338095Y-75352380D01*
X114623809Y-75352380D02*
X114623809Y-74352380D01*
X114528571Y-74495238D01*
X114433333Y-74590476D01*
X114338095Y-74638095D01*
X115528571Y-74352380D02*
X115623809Y-74352380D01*
X115719047Y-74400000D01*
X115766666Y-74447619D01*
X115814285Y-74542857D01*
X115861904Y-74733333D01*
X115861904Y-74971428D01*
X115814285Y-75161904D01*
X115766666Y-75257142D01*
X115719047Y-75304761D01*
X115623809Y-75352380D01*
X115528571Y-75352380D01*
X115433333Y-75304761D01*
X115385714Y-75257142D01*
X115338095Y-75161904D01*
X115290476Y-74971428D01*
X115290476Y-74733333D01*
X115338095Y-74542857D01*
X115385714Y-74447619D01*
X115433333Y-74400000D01*
X115528571Y-74352380D01*
%TO.C,R16*%
X115457142Y-82952380D02*
X115123809Y-82476190D01*
X114885714Y-82952380D02*
X114885714Y-81952380D01*
X115266666Y-81952380D01*
X115361904Y-82000000D01*
X115409523Y-82047619D01*
X115457142Y-82142857D01*
X115457142Y-82285714D01*
X115409523Y-82380952D01*
X115361904Y-82428571D01*
X115266666Y-82476190D01*
X114885714Y-82476190D01*
X116409523Y-82952380D02*
X115838095Y-82952380D01*
X116123809Y-82952380D02*
X116123809Y-81952380D01*
X116028571Y-82095238D01*
X115933333Y-82190476D01*
X115838095Y-82238095D01*
X117266666Y-81952380D02*
X117076190Y-81952380D01*
X116980952Y-82000000D01*
X116933333Y-82047619D01*
X116838095Y-82190476D01*
X116790476Y-82380952D01*
X116790476Y-82761904D01*
X116838095Y-82857142D01*
X116885714Y-82904761D01*
X116980952Y-82952380D01*
X117171428Y-82952380D01*
X117266666Y-82904761D01*
X117314285Y-82857142D01*
X117361904Y-82761904D01*
X117361904Y-82523809D01*
X117314285Y-82428571D01*
X117266666Y-82380952D01*
X117171428Y-82333333D01*
X116980952Y-82333333D01*
X116885714Y-82380952D01*
X116838095Y-82428571D01*
X116790476Y-82523809D01*
%TO.C,R15*%
X114057142Y-73352380D02*
X113723809Y-72876190D01*
X113485714Y-73352380D02*
X113485714Y-72352380D01*
X113866666Y-72352380D01*
X113961904Y-72400000D01*
X114009523Y-72447619D01*
X114057142Y-72542857D01*
X114057142Y-72685714D01*
X114009523Y-72780952D01*
X113961904Y-72828571D01*
X113866666Y-72876190D01*
X113485714Y-72876190D01*
X115009523Y-73352380D02*
X114438095Y-73352380D01*
X114723809Y-73352380D02*
X114723809Y-72352380D01*
X114628571Y-72495238D01*
X114533333Y-72590476D01*
X114438095Y-72638095D01*
X115914285Y-72352380D02*
X115438095Y-72352380D01*
X115390476Y-72828571D01*
X115438095Y-72780952D01*
X115533333Y-72733333D01*
X115771428Y-72733333D01*
X115866666Y-72780952D01*
X115914285Y-72828571D01*
X115961904Y-72923809D01*
X115961904Y-73161904D01*
X115914285Y-73257142D01*
X115866666Y-73304761D01*
X115771428Y-73352380D01*
X115533333Y-73352380D01*
X115438095Y-73304761D01*
X115390476Y-73257142D01*
%TO.C,R13*%
X122952380Y-98042857D02*
X122476190Y-98376190D01*
X122952380Y-98614285D02*
X121952380Y-98614285D01*
X121952380Y-98233333D01*
X122000000Y-98138095D01*
X122047619Y-98090476D01*
X122142857Y-98042857D01*
X122285714Y-98042857D01*
X122380952Y-98090476D01*
X122428571Y-98138095D01*
X122476190Y-98233333D01*
X122476190Y-98614285D01*
X122952380Y-97090476D02*
X122952380Y-97661904D01*
X122952380Y-97376190D02*
X121952380Y-97376190D01*
X122095238Y-97471428D01*
X122190476Y-97566666D01*
X122238095Y-97661904D01*
X121952380Y-96757142D02*
X121952380Y-96138095D01*
X122333333Y-96471428D01*
X122333333Y-96328571D01*
X122380952Y-96233333D01*
X122428571Y-96185714D01*
X122523809Y-96138095D01*
X122761904Y-96138095D01*
X122857142Y-96185714D01*
X122904761Y-96233333D01*
X122952380Y-96328571D01*
X122952380Y-96614285D01*
X122904761Y-96709523D01*
X122857142Y-96757142D01*
%TO.C,R9*%
X114933333Y-71352380D02*
X114600000Y-70876190D01*
X114361904Y-71352380D02*
X114361904Y-70352380D01*
X114742857Y-70352380D01*
X114838095Y-70400000D01*
X114885714Y-70447619D01*
X114933333Y-70542857D01*
X114933333Y-70685714D01*
X114885714Y-70780952D01*
X114838095Y-70828571D01*
X114742857Y-70876190D01*
X114361904Y-70876190D01*
X115409523Y-71352380D02*
X115600000Y-71352380D01*
X115695238Y-71304761D01*
X115742857Y-71257142D01*
X115838095Y-71114285D01*
X115885714Y-70923809D01*
X115885714Y-70542857D01*
X115838095Y-70447619D01*
X115790476Y-70400000D01*
X115695238Y-70352380D01*
X115504761Y-70352380D01*
X115409523Y-70400000D01*
X115361904Y-70447619D01*
X115314285Y-70542857D01*
X115314285Y-70780952D01*
X115361904Y-70876190D01*
X115409523Y-70923809D01*
X115504761Y-70971428D01*
X115695238Y-70971428D01*
X115790476Y-70923809D01*
X115838095Y-70876190D01*
X115885714Y-70780952D01*
%TO.C,R7*%
X114933333Y-69602380D02*
X114600000Y-69126190D01*
X114361904Y-69602380D02*
X114361904Y-68602380D01*
X114742857Y-68602380D01*
X114838095Y-68650000D01*
X114885714Y-68697619D01*
X114933333Y-68792857D01*
X114933333Y-68935714D01*
X114885714Y-69030952D01*
X114838095Y-69078571D01*
X114742857Y-69126190D01*
X114361904Y-69126190D01*
X115266666Y-68602380D02*
X115933333Y-68602380D01*
X115504761Y-69602380D01*
%TO.C,R6*%
X118333333Y-104152380D02*
X118000000Y-103676190D01*
X117761904Y-104152380D02*
X117761904Y-103152380D01*
X118142857Y-103152380D01*
X118238095Y-103200000D01*
X118285714Y-103247619D01*
X118333333Y-103342857D01*
X118333333Y-103485714D01*
X118285714Y-103580952D01*
X118238095Y-103628571D01*
X118142857Y-103676190D01*
X117761904Y-103676190D01*
X119190476Y-103152380D02*
X119000000Y-103152380D01*
X118904761Y-103200000D01*
X118857142Y-103247619D01*
X118761904Y-103390476D01*
X118714285Y-103580952D01*
X118714285Y-103961904D01*
X118761904Y-104057142D01*
X118809523Y-104104761D01*
X118904761Y-104152380D01*
X119095238Y-104152380D01*
X119190476Y-104104761D01*
X119238095Y-104057142D01*
X119285714Y-103961904D01*
X119285714Y-103723809D01*
X119238095Y-103628571D01*
X119190476Y-103580952D01*
X119095238Y-103533333D01*
X118904761Y-103533333D01*
X118809523Y-103580952D01*
X118761904Y-103628571D01*
X118714285Y-103723809D01*
%TO.C,R5*%
X123133333Y-105452380D02*
X122800000Y-104976190D01*
X122561904Y-105452380D02*
X122561904Y-104452380D01*
X122942857Y-104452380D01*
X123038095Y-104500000D01*
X123085714Y-104547619D01*
X123133333Y-104642857D01*
X123133333Y-104785714D01*
X123085714Y-104880952D01*
X123038095Y-104928571D01*
X122942857Y-104976190D01*
X122561904Y-104976190D01*
X124038095Y-104452380D02*
X123561904Y-104452380D01*
X123514285Y-104928571D01*
X123561904Y-104880952D01*
X123657142Y-104833333D01*
X123895238Y-104833333D01*
X123990476Y-104880952D01*
X124038095Y-104928571D01*
X124085714Y-105023809D01*
X124085714Y-105261904D01*
X124038095Y-105357142D01*
X123990476Y-105404761D01*
X123895238Y-105452380D01*
X123657142Y-105452380D01*
X123561904Y-105404761D01*
X123514285Y-105357142D01*
%TO.C,R4*%
X117452380Y-102266666D02*
X116976190Y-102600000D01*
X117452380Y-102838095D02*
X116452380Y-102838095D01*
X116452380Y-102457142D01*
X116500000Y-102361904D01*
X116547619Y-102314285D01*
X116642857Y-102266666D01*
X116785714Y-102266666D01*
X116880952Y-102314285D01*
X116928571Y-102361904D01*
X116976190Y-102457142D01*
X116976190Y-102838095D01*
X116785714Y-101409523D02*
X117452380Y-101409523D01*
X116404761Y-101647619D02*
X117119047Y-101885714D01*
X117119047Y-101266666D01*
%TO.C,R1*%
X118852380Y-102166666D02*
X118376190Y-102500000D01*
X118852380Y-102738095D02*
X117852380Y-102738095D01*
X117852380Y-102357142D01*
X117900000Y-102261904D01*
X117947619Y-102214285D01*
X118042857Y-102166666D01*
X118185714Y-102166666D01*
X118280952Y-102214285D01*
X118328571Y-102261904D01*
X118376190Y-102357142D01*
X118376190Y-102738095D01*
X118852380Y-101214285D02*
X118852380Y-101785714D01*
X118852380Y-101500000D02*
X117852380Y-101500000D01*
X117995238Y-101595238D01*
X118090476Y-101690476D01*
X118138095Y-101785714D01*
%TO.C,USB*%
X116352380Y-107861904D02*
X117161904Y-107861904D01*
X117257142Y-107814285D01*
X117304761Y-107766666D01*
X117352380Y-107671428D01*
X117352380Y-107480952D01*
X117304761Y-107385714D01*
X117257142Y-107338095D01*
X117161904Y-107290476D01*
X116352380Y-107290476D01*
X117304761Y-106861904D02*
X117352380Y-106719047D01*
X117352380Y-106480952D01*
X117304761Y-106385714D01*
X117257142Y-106338095D01*
X117161904Y-106290476D01*
X117066666Y-106290476D01*
X116971428Y-106338095D01*
X116923809Y-106385714D01*
X116876190Y-106480952D01*
X116828571Y-106671428D01*
X116780952Y-106766666D01*
X116733333Y-106814285D01*
X116638095Y-106861904D01*
X116542857Y-106861904D01*
X116447619Y-106814285D01*
X116400000Y-106766666D01*
X116352380Y-106671428D01*
X116352380Y-106433333D01*
X116400000Y-106290476D01*
X116828571Y-105528571D02*
X116876190Y-105385714D01*
X116923809Y-105338095D01*
X117019047Y-105290476D01*
X117161904Y-105290476D01*
X117257142Y-105338095D01*
X117304761Y-105385714D01*
X117352380Y-105480952D01*
X117352380Y-105861904D01*
X116352380Y-105861904D01*
X116352380Y-105528571D01*
X116400000Y-105433333D01*
X116447619Y-105385714D01*
X116542857Y-105338095D01*
X116638095Y-105338095D01*
X116733333Y-105385714D01*
X116780952Y-105433333D01*
X116828571Y-105528571D01*
X116828571Y-105861904D01*
%TO.C,D1*%
X120761904Y-100252380D02*
X120761904Y-99252380D01*
X121000000Y-99252380D01*
X121142857Y-99300000D01*
X121238095Y-99395238D01*
X121285714Y-99490476D01*
X121333333Y-99680952D01*
X121333333Y-99823809D01*
X121285714Y-100014285D01*
X121238095Y-100109523D01*
X121142857Y-100204761D01*
X121000000Y-100252380D01*
X120761904Y-100252380D01*
X122285714Y-100252380D02*
X121714285Y-100252380D01*
X122000000Y-100252380D02*
X122000000Y-99252380D01*
X121904761Y-99395238D01*
X121809523Y-99490476D01*
X121714285Y-99538095D01*
%TO.C,C2*%
X132933333Y-99557142D02*
X132885714Y-99604761D01*
X132742857Y-99652380D01*
X132647619Y-99652380D01*
X132504761Y-99604761D01*
X132409523Y-99509523D01*
X132361904Y-99414285D01*
X132314285Y-99223809D01*
X132314285Y-99080952D01*
X132361904Y-98890476D01*
X132409523Y-98795238D01*
X132504761Y-98700000D01*
X132647619Y-98652380D01*
X132742857Y-98652380D01*
X132885714Y-98700000D01*
X132933333Y-98747619D01*
X133314285Y-98747619D02*
X133361904Y-98700000D01*
X133457142Y-98652380D01*
X133695238Y-98652380D01*
X133790476Y-98700000D01*
X133838095Y-98747619D01*
X133885714Y-98842857D01*
X133885714Y-98938095D01*
X133838095Y-99080952D01*
X133266666Y-99652380D01*
X133885714Y-99652380D01*
%TO.C,C8*%
X137333333Y-84457142D02*
X137285714Y-84504761D01*
X137142857Y-84552380D01*
X137047619Y-84552380D01*
X136904761Y-84504761D01*
X136809523Y-84409523D01*
X136761904Y-84314285D01*
X136714285Y-84123809D01*
X136714285Y-83980952D01*
X136761904Y-83790476D01*
X136809523Y-83695238D01*
X136904761Y-83600000D01*
X137047619Y-83552380D01*
X137142857Y-83552380D01*
X137285714Y-83600000D01*
X137333333Y-83647619D01*
X137904761Y-83980952D02*
X137809523Y-83933333D01*
X137761904Y-83885714D01*
X137714285Y-83790476D01*
X137714285Y-83742857D01*
X137761904Y-83647619D01*
X137809523Y-83600000D01*
X137904761Y-83552380D01*
X138095238Y-83552380D01*
X138190476Y-83600000D01*
X138238095Y-83647619D01*
X138285714Y-83742857D01*
X138285714Y-83790476D01*
X138238095Y-83885714D01*
X138190476Y-83933333D01*
X138095238Y-83980952D01*
X137904761Y-83980952D01*
X137809523Y-84028571D01*
X137761904Y-84076190D01*
X137714285Y-84171428D01*
X137714285Y-84361904D01*
X137761904Y-84457142D01*
X137809523Y-84504761D01*
X137904761Y-84552380D01*
X138095238Y-84552380D01*
X138190476Y-84504761D01*
X138238095Y-84457142D01*
X138285714Y-84361904D01*
X138285714Y-84171428D01*
X138238095Y-84076190D01*
X138190476Y-84028571D01*
X138095238Y-83980952D01*
%TO.C,C7*%
X129957142Y-93666666D02*
X130004761Y-93714285D01*
X130052380Y-93857142D01*
X130052380Y-93952380D01*
X130004761Y-94095238D01*
X129909523Y-94190476D01*
X129814285Y-94238095D01*
X129623809Y-94285714D01*
X129480952Y-94285714D01*
X129290476Y-94238095D01*
X129195238Y-94190476D01*
X129100000Y-94095238D01*
X129052380Y-93952380D01*
X129052380Y-93857142D01*
X129100000Y-93714285D01*
X129147619Y-93666666D01*
X129052380Y-93333333D02*
X129052380Y-92666666D01*
X130052380Y-93095238D01*
%TO.C,C6*%
X126033333Y-98637142D02*
X125985714Y-98684761D01*
X125842857Y-98732380D01*
X125747619Y-98732380D01*
X125604761Y-98684761D01*
X125509523Y-98589523D01*
X125461904Y-98494285D01*
X125414285Y-98303809D01*
X125414285Y-98160952D01*
X125461904Y-97970476D01*
X125509523Y-97875238D01*
X125604761Y-97780000D01*
X125747619Y-97732380D01*
X125842857Y-97732380D01*
X125985714Y-97780000D01*
X126033333Y-97827619D01*
X126890476Y-97732380D02*
X126700000Y-97732380D01*
X126604761Y-97780000D01*
X126557142Y-97827619D01*
X126461904Y-97970476D01*
X126414285Y-98160952D01*
X126414285Y-98541904D01*
X126461904Y-98637142D01*
X126509523Y-98684761D01*
X126604761Y-98732380D01*
X126795238Y-98732380D01*
X126890476Y-98684761D01*
X126938095Y-98637142D01*
X126985714Y-98541904D01*
X126985714Y-98303809D01*
X126938095Y-98208571D01*
X126890476Y-98160952D01*
X126795238Y-98113333D01*
X126604761Y-98113333D01*
X126509523Y-98160952D01*
X126461904Y-98208571D01*
X126414285Y-98303809D01*
%TO.C,C4*%
X134433333Y-93957142D02*
X134385714Y-94004761D01*
X134242857Y-94052380D01*
X134147619Y-94052380D01*
X134004761Y-94004761D01*
X133909523Y-93909523D01*
X133861904Y-93814285D01*
X133814285Y-93623809D01*
X133814285Y-93480952D01*
X133861904Y-93290476D01*
X133909523Y-93195238D01*
X134004761Y-93100000D01*
X134147619Y-93052380D01*
X134242857Y-93052380D01*
X134385714Y-93100000D01*
X134433333Y-93147619D01*
X135290476Y-93385714D02*
X135290476Y-94052380D01*
X135052380Y-93004761D02*
X134814285Y-93719047D01*
X135433333Y-93719047D01*
%TD*%
M02*
