%TF.GenerationSoftware,KiCad,Pcbnew,(5.1.9)-1*%
%TF.CreationDate,2022-10-17T20:04:13-04:00*%
%TF.ProjectId,slime,736c696d-652e-46b6-9963-61645f706362,rev?*%
%TF.SameCoordinates,Original*%
%TF.FileFunction,Paste,Top*%
%TF.FilePolarity,Positive*%
%FSLAX46Y46*%
G04 Gerber Fmt 4.6, Leading zero omitted, Abs format (unit mm)*
G04 Created by KiCad (PCBNEW (5.1.9)-1) date 2022-10-17 20:04:13*
%MOMM*%
%LPD*%
G01*
G04 APERTURE LIST*
%ADD10C,0.010000*%
%ADD11R,0.254000X0.675000*%
%ADD12R,0.675000X0.254000*%
%ADD13R,2.500000X1.000000*%
%ADD14R,1.000000X1.800000*%
%ADD15R,1.750000X1.750000*%
%ADD16R,0.300000X0.750000*%
%ADD17O,0.410000X0.570000*%
%ADD18O,0.250000X0.250000*%
%ADD19R,0.280000X0.750000*%
%ADD20R,0.280000X0.850000*%
%ADD21C,0.100000*%
%ADD22O,0.800000X0.600000*%
%ADD23R,0.800000X0.600000*%
%ADD24R,1.200000X0.800000*%
%ADD25R,1.200000X0.760000*%
%ADD26R,1.200000X0.700000*%
G04 APERTURE END LIST*
D10*
%TO.C,U4*%
G36*
X128555000Y-106000000D02*
G01*
X128555000Y-106390000D01*
X128445000Y-106390000D01*
X128295000Y-106240000D01*
X128295000Y-106000000D01*
X128555000Y-106000000D01*
G37*
X128555000Y-106000000D02*
X128555000Y-106390000D01*
X128445000Y-106390000D01*
X128295000Y-106240000D01*
X128295000Y-106000000D01*
X128555000Y-106000000D01*
G36*
X127645000Y-106000000D02*
G01*
X127645000Y-106390000D01*
X127755000Y-106390000D01*
X127905000Y-106240000D01*
X127905000Y-106000000D01*
X127645000Y-106000000D01*
G37*
X127645000Y-106000000D02*
X127645000Y-106390000D01*
X127755000Y-106390000D01*
X127905000Y-106240000D01*
X127905000Y-106000000D01*
X127645000Y-106000000D01*
G36*
X127645000Y-107200000D02*
G01*
X127645000Y-106810000D01*
X127755000Y-106810000D01*
X127905000Y-106960000D01*
X127905000Y-107200000D01*
X127645000Y-107200000D01*
G37*
X127645000Y-107200000D02*
X127645000Y-106810000D01*
X127755000Y-106810000D01*
X127905000Y-106960000D01*
X127905000Y-107200000D01*
X127645000Y-107200000D01*
G36*
X128555000Y-107200000D02*
G01*
X128555000Y-106810000D01*
X128445000Y-106810000D01*
X128295000Y-106960000D01*
X128295000Y-107200000D01*
X128555000Y-107200000D01*
G37*
X128555000Y-107200000D02*
X128555000Y-106810000D01*
X128445000Y-106810000D01*
X128295000Y-106960000D01*
X128295000Y-107200000D01*
X128555000Y-107200000D01*
%TD*%
D11*
%TO.C,U7*%
X127450000Y-91212500D03*
X126950000Y-91212500D03*
X126450000Y-91212500D03*
D12*
X128362500Y-91350000D03*
X128362500Y-91850000D03*
X128362500Y-92350000D03*
X128362500Y-92850000D03*
X128362500Y-93350000D03*
X128362500Y-93850000D03*
X128362500Y-94350000D03*
X128362500Y-94850000D03*
X128362500Y-95350000D03*
X125037500Y-91350000D03*
X125037500Y-91850000D03*
X125037500Y-92350000D03*
X125037500Y-92850000D03*
X125037500Y-93350000D03*
X125037500Y-93850000D03*
X125037500Y-94350000D03*
X125037500Y-94850000D03*
X125037500Y-95350000D03*
D11*
X127450000Y-95987500D03*
X126950000Y-95987500D03*
X126450000Y-95987500D03*
D12*
X125037500Y-95850000D03*
D11*
X125950000Y-95987500D03*
D12*
X128362500Y-95850000D03*
D11*
X125950000Y-91212500D03*
%TD*%
D13*
%TO.C,U5*%
X134900000Y-68900000D03*
X134900000Y-70900000D03*
X134900000Y-72900000D03*
X134900000Y-74900000D03*
X134900000Y-76900000D03*
X134900000Y-78900000D03*
X134900000Y-80900000D03*
X134900000Y-82900000D03*
D14*
X132300000Y-84400000D03*
X130300000Y-84400000D03*
X128300000Y-84400000D03*
X126300000Y-84400000D03*
X124300000Y-84400000D03*
X122300000Y-84400000D03*
D13*
X119700000Y-82900000D03*
X119700000Y-80900000D03*
X119700000Y-78900000D03*
X119700000Y-76900000D03*
X119700000Y-74900000D03*
X119700000Y-72900000D03*
X119700000Y-70900000D03*
X119700000Y-68900000D03*
%TD*%
%TO.C,R12*%
G36*
G01*
X137260000Y-76715000D02*
X137260000Y-77085000D01*
G75*
G02*
X137125000Y-77220000I-135000J0D01*
G01*
X136855000Y-77220000D01*
G75*
G02*
X136720000Y-77085000I0J135000D01*
G01*
X136720000Y-76715000D01*
G75*
G02*
X136855000Y-76580000I135000J0D01*
G01*
X137125000Y-76580000D01*
G75*
G02*
X137260000Y-76715000I0J-135000D01*
G01*
G37*
G36*
G01*
X138280000Y-76715000D02*
X138280000Y-77085000D01*
G75*
G02*
X138145000Y-77220000I-135000J0D01*
G01*
X137875000Y-77220000D01*
G75*
G02*
X137740000Y-77085000I0J135000D01*
G01*
X137740000Y-76715000D01*
G75*
G02*
X137875000Y-76580000I135000J0D01*
G01*
X138145000Y-76580000D01*
G75*
G02*
X138280000Y-76715000I0J-135000D01*
G01*
G37*
%TD*%
%TO.C,R11*%
G36*
G01*
X137740000Y-81035000D02*
X137740000Y-80665000D01*
G75*
G02*
X137875000Y-80530000I135000J0D01*
G01*
X138145000Y-80530000D01*
G75*
G02*
X138280000Y-80665000I0J-135000D01*
G01*
X138280000Y-81035000D01*
G75*
G02*
X138145000Y-81170000I-135000J0D01*
G01*
X137875000Y-81170000D01*
G75*
G02*
X137740000Y-81035000I0J135000D01*
G01*
G37*
G36*
G01*
X136720000Y-81035000D02*
X136720000Y-80665000D01*
G75*
G02*
X136855000Y-80530000I135000J0D01*
G01*
X137125000Y-80530000D01*
G75*
G02*
X137260000Y-80665000I0J-135000D01*
G01*
X137260000Y-81035000D01*
G75*
G02*
X137125000Y-81170000I-135000J0D01*
G01*
X136855000Y-81170000D01*
G75*
G02*
X136720000Y-81035000I0J135000D01*
G01*
G37*
%TD*%
D15*
%TO.C,U1*%
X121050000Y-106250000D03*
D16*
X121800000Y-104800000D03*
X121300000Y-104800000D03*
X120800000Y-104800000D03*
X120300000Y-104800000D03*
X121800000Y-107700000D03*
X121300000Y-107700000D03*
X120800000Y-107700000D03*
X120300000Y-107700000D03*
%TD*%
%TO.C,C1*%
G36*
G01*
X119300500Y-106414000D02*
X119099500Y-106414000D01*
G75*
G02*
X119020000Y-106334500I0J79500D01*
G01*
X119020000Y-106175500D01*
G75*
G02*
X119099500Y-106096000I79500J0D01*
G01*
X119300500Y-106096000D01*
G75*
G02*
X119380000Y-106175500I0J-79500D01*
G01*
X119380000Y-106334500D01*
G75*
G02*
X119300500Y-106414000I-79500J0D01*
G01*
G37*
G36*
G01*
X119300500Y-107104000D02*
X119099500Y-107104000D01*
G75*
G02*
X119020000Y-107024500I0J79500D01*
G01*
X119020000Y-106865500D01*
G75*
G02*
X119099500Y-106786000I79500J0D01*
G01*
X119300500Y-106786000D01*
G75*
G02*
X119380000Y-106865500I0J-79500D01*
G01*
X119380000Y-107024500D01*
G75*
G02*
X119300500Y-107104000I-79500J0D01*
G01*
G37*
%TD*%
%TO.C,C3*%
G36*
G01*
X122999500Y-106786000D02*
X123200500Y-106786000D01*
G75*
G02*
X123280000Y-106865500I0J-79500D01*
G01*
X123280000Y-107024500D01*
G75*
G02*
X123200500Y-107104000I-79500J0D01*
G01*
X122999500Y-107104000D01*
G75*
G02*
X122920000Y-107024500I0J79500D01*
G01*
X122920000Y-106865500D01*
G75*
G02*
X122999500Y-106786000I79500J0D01*
G01*
G37*
G36*
G01*
X122999500Y-106096000D02*
X123200500Y-106096000D01*
G75*
G02*
X123280000Y-106175500I0J-79500D01*
G01*
X123280000Y-106334500D01*
G75*
G02*
X123200500Y-106414000I-79500J0D01*
G01*
X122999500Y-106414000D01*
G75*
G02*
X122920000Y-106334500I0J79500D01*
G01*
X122920000Y-106175500D01*
G75*
G02*
X122999500Y-106096000I79500J0D01*
G01*
G37*
%TD*%
D17*
%TO.C,U3*%
X131150000Y-97230000D03*
X131800000Y-97910000D03*
D18*
X131900000Y-97140000D03*
X131080000Y-97990000D03*
%TD*%
%TO.C,R8*%
G36*
G01*
X137020000Y-102165000D02*
X137020000Y-102535000D01*
G75*
G02*
X136885000Y-102670000I-135000J0D01*
G01*
X136615000Y-102670000D01*
G75*
G02*
X136480000Y-102535000I0J135000D01*
G01*
X136480000Y-102165000D01*
G75*
G02*
X136615000Y-102030000I135000J0D01*
G01*
X136885000Y-102030000D01*
G75*
G02*
X137020000Y-102165000I0J-135000D01*
G01*
G37*
G36*
G01*
X138040000Y-102165000D02*
X138040000Y-102535000D01*
G75*
G02*
X137905000Y-102670000I-135000J0D01*
G01*
X137635000Y-102670000D01*
G75*
G02*
X137500000Y-102535000I0J135000D01*
G01*
X137500000Y-102165000D01*
G75*
G02*
X137635000Y-102030000I135000J0D01*
G01*
X137905000Y-102030000D01*
G75*
G02*
X138040000Y-102165000I0J-135000D01*
G01*
G37*
%TD*%
D19*
%TO.C,U2*%
X130700000Y-100625000D03*
X131200000Y-100625000D03*
X131700000Y-100625000D03*
X131700000Y-101775000D03*
X131200000Y-101775000D03*
D20*
X130700000Y-101725000D03*
%TD*%
D21*
%TO.C,U4*%
G36*
X127781802Y-106600000D02*
G01*
X128100000Y-106281802D01*
X128418198Y-106600000D01*
X128100000Y-106918198D01*
X127781802Y-106600000D01*
G37*
%TD*%
%TO.C,C5*%
G36*
G01*
X128050000Y-103525000D02*
X128050000Y-104475000D01*
G75*
G02*
X127800000Y-104725000I-250000J0D01*
G01*
X127300000Y-104725000D01*
G75*
G02*
X127050000Y-104475000I0J250000D01*
G01*
X127050000Y-103525000D01*
G75*
G02*
X127300000Y-103275000I250000J0D01*
G01*
X127800000Y-103275000D01*
G75*
G02*
X128050000Y-103525000I0J-250000D01*
G01*
G37*
G36*
G01*
X129950000Y-103525000D02*
X129950000Y-104475000D01*
G75*
G02*
X129700000Y-104725000I-250000J0D01*
G01*
X129200000Y-104725000D01*
G75*
G02*
X128950000Y-104475000I0J250000D01*
G01*
X128950000Y-103525000D01*
G75*
G02*
X129200000Y-103275000I250000J0D01*
G01*
X129700000Y-103275000D01*
G75*
G02*
X129950000Y-103525000I0J-250000D01*
G01*
G37*
%TD*%
%TO.C,C4*%
G36*
G01*
X126175000Y-106150000D02*
X125225000Y-106150000D01*
G75*
G02*
X124975000Y-105900000I0J250000D01*
G01*
X124975000Y-105400000D01*
G75*
G02*
X125225000Y-105150000I250000J0D01*
G01*
X126175000Y-105150000D01*
G75*
G02*
X126425000Y-105400000I0J-250000D01*
G01*
X126425000Y-105900000D01*
G75*
G02*
X126175000Y-106150000I-250000J0D01*
G01*
G37*
G36*
G01*
X126175000Y-108050000D02*
X125225000Y-108050000D01*
G75*
G02*
X124975000Y-107800000I0J250000D01*
G01*
X124975000Y-107300000D01*
G75*
G02*
X125225000Y-107050000I250000J0D01*
G01*
X126175000Y-107050000D01*
G75*
G02*
X126425000Y-107300000I0J-250000D01*
G01*
X126425000Y-107800000D01*
G75*
G02*
X126175000Y-108050000I-250000J0D01*
G01*
G37*
%TD*%
D22*
%TO.C,U5*%
X122400000Y-93600000D03*
X122400000Y-95400000D03*
X123600000Y-93600000D03*
D23*
X123600000Y-95400000D03*
%TD*%
%TO.C,R3*%
G36*
G01*
X129315000Y-97740000D02*
X129685000Y-97740000D01*
G75*
G02*
X129820000Y-97875000I0J-135000D01*
G01*
X129820000Y-98145000D01*
G75*
G02*
X129685000Y-98280000I-135000J0D01*
G01*
X129315000Y-98280000D01*
G75*
G02*
X129180000Y-98145000I0J135000D01*
G01*
X129180000Y-97875000D01*
G75*
G02*
X129315000Y-97740000I135000J0D01*
G01*
G37*
G36*
G01*
X129315000Y-96720000D02*
X129685000Y-96720000D01*
G75*
G02*
X129820000Y-96855000I0J-135000D01*
G01*
X129820000Y-97125000D01*
G75*
G02*
X129685000Y-97260000I-135000J0D01*
G01*
X129315000Y-97260000D01*
G75*
G02*
X129180000Y-97125000I0J135000D01*
G01*
X129180000Y-96855000D01*
G75*
G02*
X129315000Y-96720000I135000J0D01*
G01*
G37*
%TD*%
%TO.C,R2*%
G36*
G01*
X130915000Y-105140000D02*
X131285000Y-105140000D01*
G75*
G02*
X131420000Y-105275000I0J-135000D01*
G01*
X131420000Y-105545000D01*
G75*
G02*
X131285000Y-105680000I-135000J0D01*
G01*
X130915000Y-105680000D01*
G75*
G02*
X130780000Y-105545000I0J135000D01*
G01*
X130780000Y-105275000D01*
G75*
G02*
X130915000Y-105140000I135000J0D01*
G01*
G37*
G36*
G01*
X130915000Y-104120000D02*
X131285000Y-104120000D01*
G75*
G02*
X131420000Y-104255000I0J-135000D01*
G01*
X131420000Y-104525000D01*
G75*
G02*
X131285000Y-104660000I-135000J0D01*
G01*
X130915000Y-104660000D01*
G75*
G02*
X130780000Y-104525000I0J135000D01*
G01*
X130780000Y-104255000D01*
G75*
G02*
X130915000Y-104120000I135000J0D01*
G01*
G37*
%TD*%
%TO.C,R10*%
G36*
G01*
X116760000Y-74715000D02*
X116760000Y-75085000D01*
G75*
G02*
X116625000Y-75220000I-135000J0D01*
G01*
X116355000Y-75220000D01*
G75*
G02*
X116220000Y-75085000I0J135000D01*
G01*
X116220000Y-74715000D01*
G75*
G02*
X116355000Y-74580000I135000J0D01*
G01*
X116625000Y-74580000D01*
G75*
G02*
X116760000Y-74715000I0J-135000D01*
G01*
G37*
G36*
G01*
X117780000Y-74715000D02*
X117780000Y-75085000D01*
G75*
G02*
X117645000Y-75220000I-135000J0D01*
G01*
X117375000Y-75220000D01*
G75*
G02*
X117240000Y-75085000I0J135000D01*
G01*
X117240000Y-74715000D01*
G75*
G02*
X117375000Y-74580000I135000J0D01*
G01*
X117645000Y-74580000D01*
G75*
G02*
X117780000Y-74715000I0J-135000D01*
G01*
G37*
%TD*%
%TO.C,R16*%
G36*
G01*
X116015000Y-80790000D02*
X116385000Y-80790000D01*
G75*
G02*
X116520000Y-80925000I0J-135000D01*
G01*
X116520000Y-81195000D01*
G75*
G02*
X116385000Y-81330000I-135000J0D01*
G01*
X116015000Y-81330000D01*
G75*
G02*
X115880000Y-81195000I0J135000D01*
G01*
X115880000Y-80925000D01*
G75*
G02*
X116015000Y-80790000I135000J0D01*
G01*
G37*
G36*
G01*
X116015000Y-79770000D02*
X116385000Y-79770000D01*
G75*
G02*
X116520000Y-79905000I0J-135000D01*
G01*
X116520000Y-80175000D01*
G75*
G02*
X116385000Y-80310000I-135000J0D01*
G01*
X116015000Y-80310000D01*
G75*
G02*
X115880000Y-80175000I0J135000D01*
G01*
X115880000Y-79905000D01*
G75*
G02*
X116015000Y-79770000I135000J0D01*
G01*
G37*
%TD*%
%TO.C,R15*%
G36*
G01*
X116860000Y-72715000D02*
X116860000Y-73085000D01*
G75*
G02*
X116725000Y-73220000I-135000J0D01*
G01*
X116455000Y-73220000D01*
G75*
G02*
X116320000Y-73085000I0J135000D01*
G01*
X116320000Y-72715000D01*
G75*
G02*
X116455000Y-72580000I135000J0D01*
G01*
X116725000Y-72580000D01*
G75*
G02*
X116860000Y-72715000I0J-135000D01*
G01*
G37*
G36*
G01*
X117880000Y-72715000D02*
X117880000Y-73085000D01*
G75*
G02*
X117745000Y-73220000I-135000J0D01*
G01*
X117475000Y-73220000D01*
G75*
G02*
X117340000Y-73085000I0J135000D01*
G01*
X117340000Y-72715000D01*
G75*
G02*
X117475000Y-72580000I135000J0D01*
G01*
X117745000Y-72580000D01*
G75*
G02*
X117880000Y-72715000I0J-135000D01*
G01*
G37*
%TD*%
%TO.C,R13*%
G36*
G01*
X123415000Y-97240000D02*
X123785000Y-97240000D01*
G75*
G02*
X123920000Y-97375000I0J-135000D01*
G01*
X123920000Y-97645000D01*
G75*
G02*
X123785000Y-97780000I-135000J0D01*
G01*
X123415000Y-97780000D01*
G75*
G02*
X123280000Y-97645000I0J135000D01*
G01*
X123280000Y-97375000D01*
G75*
G02*
X123415000Y-97240000I135000J0D01*
G01*
G37*
G36*
G01*
X123415000Y-96220000D02*
X123785000Y-96220000D01*
G75*
G02*
X123920000Y-96355000I0J-135000D01*
G01*
X123920000Y-96625000D01*
G75*
G02*
X123785000Y-96760000I-135000J0D01*
G01*
X123415000Y-96760000D01*
G75*
G02*
X123280000Y-96625000I0J135000D01*
G01*
X123280000Y-96355000D01*
G75*
G02*
X123415000Y-96220000I135000J0D01*
G01*
G37*
%TD*%
%TO.C,R9*%
G36*
G01*
X117340000Y-71085000D02*
X117340000Y-70715000D01*
G75*
G02*
X117475000Y-70580000I135000J0D01*
G01*
X117745000Y-70580000D01*
G75*
G02*
X117880000Y-70715000I0J-135000D01*
G01*
X117880000Y-71085000D01*
G75*
G02*
X117745000Y-71220000I-135000J0D01*
G01*
X117475000Y-71220000D01*
G75*
G02*
X117340000Y-71085000I0J135000D01*
G01*
G37*
G36*
G01*
X116320000Y-71085000D02*
X116320000Y-70715000D01*
G75*
G02*
X116455000Y-70580000I135000J0D01*
G01*
X116725000Y-70580000D01*
G75*
G02*
X116860000Y-70715000I0J-135000D01*
G01*
X116860000Y-71085000D01*
G75*
G02*
X116725000Y-71220000I-135000J0D01*
G01*
X116455000Y-71220000D01*
G75*
G02*
X116320000Y-71085000I0J135000D01*
G01*
G37*
%TD*%
%TO.C,R7*%
G36*
G01*
X117340000Y-69085000D02*
X117340000Y-68715000D01*
G75*
G02*
X117475000Y-68580000I135000J0D01*
G01*
X117745000Y-68580000D01*
G75*
G02*
X117880000Y-68715000I0J-135000D01*
G01*
X117880000Y-69085000D01*
G75*
G02*
X117745000Y-69220000I-135000J0D01*
G01*
X117475000Y-69220000D01*
G75*
G02*
X117340000Y-69085000I0J135000D01*
G01*
G37*
G36*
G01*
X116320000Y-69085000D02*
X116320000Y-68715000D01*
G75*
G02*
X116455000Y-68580000I135000J0D01*
G01*
X116725000Y-68580000D01*
G75*
G02*
X116860000Y-68715000I0J-135000D01*
G01*
X116860000Y-69085000D01*
G75*
G02*
X116725000Y-69220000I-135000J0D01*
G01*
X116455000Y-69220000D01*
G75*
G02*
X116320000Y-69085000I0J135000D01*
G01*
G37*
%TD*%
%TO.C,R6*%
G36*
G01*
X120150000Y-103315000D02*
X120150000Y-103685000D01*
G75*
G02*
X120015000Y-103820000I-135000J0D01*
G01*
X119745000Y-103820000D01*
G75*
G02*
X119610000Y-103685000I0J135000D01*
G01*
X119610000Y-103315000D01*
G75*
G02*
X119745000Y-103180000I135000J0D01*
G01*
X120015000Y-103180000D01*
G75*
G02*
X120150000Y-103315000I0J-135000D01*
G01*
G37*
G36*
G01*
X121170000Y-103315000D02*
X121170000Y-103685000D01*
G75*
G02*
X121035000Y-103820000I-135000J0D01*
G01*
X120765000Y-103820000D01*
G75*
G02*
X120630000Y-103685000I0J135000D01*
G01*
X120630000Y-103315000D01*
G75*
G02*
X120765000Y-103180000I135000J0D01*
G01*
X121035000Y-103180000D01*
G75*
G02*
X121170000Y-103315000I0J-135000D01*
G01*
G37*
%TD*%
%TO.C,R5*%
G36*
G01*
X122650000Y-103685000D02*
X122650000Y-103315000D01*
G75*
G02*
X122785000Y-103180000I135000J0D01*
G01*
X123055000Y-103180000D01*
G75*
G02*
X123190000Y-103315000I0J-135000D01*
G01*
X123190000Y-103685000D01*
G75*
G02*
X123055000Y-103820000I-135000J0D01*
G01*
X122785000Y-103820000D01*
G75*
G02*
X122650000Y-103685000I0J135000D01*
G01*
G37*
G36*
G01*
X121630000Y-103685000D02*
X121630000Y-103315000D01*
G75*
G02*
X121765000Y-103180000I135000J0D01*
G01*
X122035000Y-103180000D01*
G75*
G02*
X122170000Y-103315000I0J-135000D01*
G01*
X122170000Y-103685000D01*
G75*
G02*
X122035000Y-103820000I-135000J0D01*
G01*
X121765000Y-103820000D01*
G75*
G02*
X121630000Y-103685000I0J135000D01*
G01*
G37*
%TD*%
%TO.C,R4*%
G36*
G01*
X117485000Y-99860000D02*
X117115000Y-99860000D01*
G75*
G02*
X116980000Y-99725000I0J135000D01*
G01*
X116980000Y-99455000D01*
G75*
G02*
X117115000Y-99320000I135000J0D01*
G01*
X117485000Y-99320000D01*
G75*
G02*
X117620000Y-99455000I0J-135000D01*
G01*
X117620000Y-99725000D01*
G75*
G02*
X117485000Y-99860000I-135000J0D01*
G01*
G37*
G36*
G01*
X117485000Y-100880000D02*
X117115000Y-100880000D01*
G75*
G02*
X116980000Y-100745000I0J135000D01*
G01*
X116980000Y-100475000D01*
G75*
G02*
X117115000Y-100340000I135000J0D01*
G01*
X117485000Y-100340000D01*
G75*
G02*
X117620000Y-100475000I0J-135000D01*
G01*
X117620000Y-100745000D01*
G75*
G02*
X117485000Y-100880000I-135000J0D01*
G01*
G37*
%TD*%
%TO.C,R1*%
G36*
G01*
X118585000Y-99860000D02*
X118215000Y-99860000D01*
G75*
G02*
X118080000Y-99725000I0J135000D01*
G01*
X118080000Y-99455000D01*
G75*
G02*
X118215000Y-99320000I135000J0D01*
G01*
X118585000Y-99320000D01*
G75*
G02*
X118720000Y-99455000I0J-135000D01*
G01*
X118720000Y-99725000D01*
G75*
G02*
X118585000Y-99860000I-135000J0D01*
G01*
G37*
G36*
G01*
X118585000Y-100880000D02*
X118215000Y-100880000D01*
G75*
G02*
X118080000Y-100745000I0J135000D01*
G01*
X118080000Y-100475000D01*
G75*
G02*
X118215000Y-100340000I135000J0D01*
G01*
X118585000Y-100340000D01*
G75*
G02*
X118720000Y-100475000I0J-135000D01*
G01*
X118720000Y-100745000D01*
G75*
G02*
X118585000Y-100880000I-135000J0D01*
G01*
G37*
%TD*%
D24*
%TO.C,USB*%
X114980000Y-101150000D03*
X114980000Y-106650000D03*
D25*
X114980000Y-102380000D03*
X114980000Y-105420000D03*
D26*
X114980000Y-103400000D03*
X114980000Y-104400000D03*
%TD*%
%TO.C,D1*%
G36*
G01*
X120725000Y-100875000D02*
X120725000Y-102125000D01*
G75*
G02*
X120475000Y-102375000I-250000J0D01*
G01*
X119725000Y-102375000D01*
G75*
G02*
X119475000Y-102125000I0J250000D01*
G01*
X119475000Y-100875000D01*
G75*
G02*
X119725000Y-100625000I250000J0D01*
G01*
X120475000Y-100625000D01*
G75*
G02*
X120725000Y-100875000I0J-250000D01*
G01*
G37*
G36*
G01*
X123525000Y-100875000D02*
X123525000Y-102125000D01*
G75*
G02*
X123275000Y-102375000I-250000J0D01*
G01*
X122525000Y-102375000D01*
G75*
G02*
X122275000Y-102125000I0J250000D01*
G01*
X122275000Y-100875000D01*
G75*
G02*
X122525000Y-100625000I250000J0D01*
G01*
X123275000Y-100625000D01*
G75*
G02*
X123525000Y-100875000I0J-250000D01*
G01*
G37*
%TD*%
%TO.C,C2*%
G36*
G01*
X131100000Y-99030000D02*
X131100000Y-99370000D01*
G75*
G02*
X130960000Y-99510000I-140000J0D01*
G01*
X130680000Y-99510000D01*
G75*
G02*
X130540000Y-99370000I0J140000D01*
G01*
X130540000Y-99030000D01*
G75*
G02*
X130680000Y-98890000I140000J0D01*
G01*
X130960000Y-98890000D01*
G75*
G02*
X131100000Y-99030000I0J-140000D01*
G01*
G37*
G36*
G01*
X132060000Y-99030000D02*
X132060000Y-99370000D01*
G75*
G02*
X131920000Y-99510000I-140000J0D01*
G01*
X131640000Y-99510000D01*
G75*
G02*
X131500000Y-99370000I0J140000D01*
G01*
X131500000Y-99030000D01*
G75*
G02*
X131640000Y-98890000I140000J0D01*
G01*
X131920000Y-98890000D01*
G75*
G02*
X132060000Y-99030000I0J-140000D01*
G01*
G37*
%TD*%
%TO.C,C8*%
G36*
G01*
X137700000Y-82970000D02*
X137700000Y-82630000D01*
G75*
G02*
X137840000Y-82490000I140000J0D01*
G01*
X138120000Y-82490000D01*
G75*
G02*
X138260000Y-82630000I0J-140000D01*
G01*
X138260000Y-82970000D01*
G75*
G02*
X138120000Y-83110000I-140000J0D01*
G01*
X137840000Y-83110000D01*
G75*
G02*
X137700000Y-82970000I0J140000D01*
G01*
G37*
G36*
G01*
X136740000Y-82970000D02*
X136740000Y-82630000D01*
G75*
G02*
X136880000Y-82490000I140000J0D01*
G01*
X137160000Y-82490000D01*
G75*
G02*
X137300000Y-82630000I0J-140000D01*
G01*
X137300000Y-82970000D01*
G75*
G02*
X137160000Y-83110000I-140000J0D01*
G01*
X136880000Y-83110000D01*
G75*
G02*
X136740000Y-82970000I0J140000D01*
G01*
G37*
%TD*%
%TO.C,C7*%
G36*
G01*
X129330000Y-95500000D02*
X129670000Y-95500000D01*
G75*
G02*
X129810000Y-95640000I0J-140000D01*
G01*
X129810000Y-95920000D01*
G75*
G02*
X129670000Y-96060000I-140000J0D01*
G01*
X129330000Y-96060000D01*
G75*
G02*
X129190000Y-95920000I0J140000D01*
G01*
X129190000Y-95640000D01*
G75*
G02*
X129330000Y-95500000I140000J0D01*
G01*
G37*
G36*
G01*
X129330000Y-94540000D02*
X129670000Y-94540000D01*
G75*
G02*
X129810000Y-94680000I0J-140000D01*
G01*
X129810000Y-94960000D01*
G75*
G02*
X129670000Y-95100000I-140000J0D01*
G01*
X129330000Y-95100000D01*
G75*
G02*
X129190000Y-94960000I0J140000D01*
G01*
X129190000Y-94680000D01*
G75*
G02*
X129330000Y-94540000I140000J0D01*
G01*
G37*
%TD*%
%TO.C,C6*%
G36*
G01*
X126000000Y-96930000D02*
X126000000Y-97270000D01*
G75*
G02*
X125860000Y-97410000I-140000J0D01*
G01*
X125580000Y-97410000D01*
G75*
G02*
X125440000Y-97270000I0J140000D01*
G01*
X125440000Y-96930000D01*
G75*
G02*
X125580000Y-96790000I140000J0D01*
G01*
X125860000Y-96790000D01*
G75*
G02*
X126000000Y-96930000I0J-140000D01*
G01*
G37*
G36*
G01*
X126960000Y-96930000D02*
X126960000Y-97270000D01*
G75*
G02*
X126820000Y-97410000I-140000J0D01*
G01*
X126540000Y-97410000D01*
G75*
G02*
X126400000Y-97270000I0J140000D01*
G01*
X126400000Y-96930000D01*
G75*
G02*
X126540000Y-96790000I140000J0D01*
G01*
X126820000Y-96790000D01*
G75*
G02*
X126960000Y-96930000I0J-140000D01*
G01*
G37*
%TD*%
%TO.C,C4*%
G36*
G01*
X135950000Y-91000000D02*
X137050000Y-91000000D01*
G75*
G02*
X137300000Y-91250000I0J-250000D01*
G01*
X137300000Y-93350000D01*
G75*
G02*
X137050000Y-93600000I-250000J0D01*
G01*
X135950000Y-93600000D01*
G75*
G02*
X135700000Y-93350000I0J250000D01*
G01*
X135700000Y-91250000D01*
G75*
G02*
X135950000Y-91000000I250000J0D01*
G01*
G37*
G36*
G01*
X135950000Y-87400000D02*
X137050000Y-87400000D01*
G75*
G02*
X137300000Y-87650000I0J-250000D01*
G01*
X137300000Y-89750000D01*
G75*
G02*
X137050000Y-90000000I-250000J0D01*
G01*
X135950000Y-90000000D01*
G75*
G02*
X135700000Y-89750000I0J250000D01*
G01*
X135700000Y-87650000D01*
G75*
G02*
X135950000Y-87400000I250000J0D01*
G01*
G37*
%TD*%
M02*
