%TF.GenerationSoftware,KiCad,Pcbnew,(5.1.9)-1*%
%TF.CreationDate,2022-10-17T20:04:13-04:00*%
%TF.ProjectId,slime,736c696d-652e-46b6-9963-61645f706362,rev?*%
%TF.SameCoordinates,Original*%
%TF.FileFunction,Soldermask,Top*%
%TF.FilePolarity,Negative*%
%FSLAX46Y46*%
G04 Gerber Fmt 4.6, Leading zero omitted, Abs format (unit mm)*
G04 Created by KiCad (PCBNEW (5.1.9)-1) date 2022-10-17 20:04:13*
%MOMM*%
%LPD*%
G01*
G04 APERTURE LIST*
%ADD10C,0.010000*%
%ADD11R,4.000000X4.000000*%
%ADD12O,1.700000X1.700000*%
%ADD13R,1.700000X1.700000*%
%ADD14R,2.500000X1.000000*%
%ADD15R,1.000000X1.800000*%
%ADD16R,1.750000X1.750000*%
%ADD17R,0.300000X0.750000*%
%ADD18O,0.410000X0.570000*%
%ADD19O,0.250000X0.250000*%
%ADD20R,0.280000X0.750000*%
%ADD21R,0.280000X0.850000*%
%ADD22C,0.100000*%
%ADD23O,0.800000X0.600000*%
%ADD24R,0.800000X0.600000*%
%ADD25C,1.524000*%
%ADD26R,1.200000X0.800000*%
%ADD27R,1.200000X0.760000*%
%ADD28R,1.200000X0.700000*%
%ADD29O,2.200000X1.100000*%
G04 APERTURE END LIST*
D10*
%TO.C,U4*%
G36*
X128605000Y-105950000D02*
G01*
X128605000Y-106440000D01*
X128420000Y-106440000D01*
X128245000Y-106265000D01*
X128245000Y-105950000D01*
X128605000Y-105950000D01*
G37*
X128605000Y-105950000D02*
X128605000Y-106440000D01*
X128420000Y-106440000D01*
X128245000Y-106265000D01*
X128245000Y-105950000D01*
X128605000Y-105950000D01*
G36*
X127595000Y-105950000D02*
G01*
X127595000Y-106440000D01*
X127780000Y-106440000D01*
X127955000Y-106265000D01*
X127955000Y-105950000D01*
X127595000Y-105950000D01*
G37*
X127595000Y-105950000D02*
X127595000Y-106440000D01*
X127780000Y-106440000D01*
X127955000Y-106265000D01*
X127955000Y-105950000D01*
X127595000Y-105950000D01*
G36*
X127595000Y-107250000D02*
G01*
X127595000Y-106760000D01*
X127780000Y-106760000D01*
X127955000Y-106935000D01*
X127955000Y-107250000D01*
X127595000Y-107250000D01*
G37*
X127595000Y-107250000D02*
X127595000Y-106760000D01*
X127780000Y-106760000D01*
X127955000Y-106935000D01*
X127955000Y-107250000D01*
X127595000Y-107250000D01*
G36*
X128605000Y-107250000D02*
G01*
X128605000Y-106760000D01*
X128420000Y-106760000D01*
X128245000Y-106935000D01*
X128245000Y-107250000D01*
X128605000Y-107250000D01*
G37*
X128605000Y-107250000D02*
X128605000Y-106760000D01*
X128420000Y-106760000D01*
X128245000Y-106935000D01*
X128245000Y-107250000D01*
X128605000Y-107250000D01*
%TD*%
%TO.C,U7*%
G36*
G01*
X127627000Y-90875000D02*
X127627000Y-91550000D01*
G75*
G02*
X127577000Y-91600000I-50000J0D01*
G01*
X127323000Y-91600000D01*
G75*
G02*
X127273000Y-91550000I0J50000D01*
G01*
X127273000Y-90875000D01*
G75*
G02*
X127323000Y-90825000I50000J0D01*
G01*
X127577000Y-90825000D01*
G75*
G02*
X127627000Y-90875000I0J-50000D01*
G01*
G37*
G36*
G01*
X127127000Y-90875000D02*
X127127000Y-91550000D01*
G75*
G02*
X127077000Y-91600000I-50000J0D01*
G01*
X126823000Y-91600000D01*
G75*
G02*
X126773000Y-91550000I0J50000D01*
G01*
X126773000Y-90875000D01*
G75*
G02*
X126823000Y-90825000I50000J0D01*
G01*
X127077000Y-90825000D01*
G75*
G02*
X127127000Y-90875000I0J-50000D01*
G01*
G37*
G36*
G01*
X126627000Y-90875000D02*
X126627000Y-91550000D01*
G75*
G02*
X126577000Y-91600000I-50000J0D01*
G01*
X126323000Y-91600000D01*
G75*
G02*
X126273000Y-91550000I0J50000D01*
G01*
X126273000Y-90875000D01*
G75*
G02*
X126323000Y-90825000I50000J0D01*
G01*
X126577000Y-90825000D01*
G75*
G02*
X126627000Y-90875000I0J-50000D01*
G01*
G37*
G36*
G01*
X128700000Y-91527000D02*
X128025000Y-91527000D01*
G75*
G02*
X127975000Y-91477000I0J50000D01*
G01*
X127975000Y-91223000D01*
G75*
G02*
X128025000Y-91173000I50000J0D01*
G01*
X128700000Y-91173000D01*
G75*
G02*
X128750000Y-91223000I0J-50000D01*
G01*
X128750000Y-91477000D01*
G75*
G02*
X128700000Y-91527000I-50000J0D01*
G01*
G37*
G36*
G01*
X128700000Y-92027000D02*
X128025000Y-92027000D01*
G75*
G02*
X127975000Y-91977000I0J50000D01*
G01*
X127975000Y-91723000D01*
G75*
G02*
X128025000Y-91673000I50000J0D01*
G01*
X128700000Y-91673000D01*
G75*
G02*
X128750000Y-91723000I0J-50000D01*
G01*
X128750000Y-91977000D01*
G75*
G02*
X128700000Y-92027000I-50000J0D01*
G01*
G37*
G36*
G01*
X128700000Y-92527000D02*
X128025000Y-92527000D01*
G75*
G02*
X127975000Y-92477000I0J50000D01*
G01*
X127975000Y-92223000D01*
G75*
G02*
X128025000Y-92173000I50000J0D01*
G01*
X128700000Y-92173000D01*
G75*
G02*
X128750000Y-92223000I0J-50000D01*
G01*
X128750000Y-92477000D01*
G75*
G02*
X128700000Y-92527000I-50000J0D01*
G01*
G37*
G36*
G01*
X128700000Y-93027000D02*
X128025000Y-93027000D01*
G75*
G02*
X127975000Y-92977000I0J50000D01*
G01*
X127975000Y-92723000D01*
G75*
G02*
X128025000Y-92673000I50000J0D01*
G01*
X128700000Y-92673000D01*
G75*
G02*
X128750000Y-92723000I0J-50000D01*
G01*
X128750000Y-92977000D01*
G75*
G02*
X128700000Y-93027000I-50000J0D01*
G01*
G37*
G36*
G01*
X128700000Y-93527000D02*
X128025000Y-93527000D01*
G75*
G02*
X127975000Y-93477000I0J50000D01*
G01*
X127975000Y-93223000D01*
G75*
G02*
X128025000Y-93173000I50000J0D01*
G01*
X128700000Y-93173000D01*
G75*
G02*
X128750000Y-93223000I0J-50000D01*
G01*
X128750000Y-93477000D01*
G75*
G02*
X128700000Y-93527000I-50000J0D01*
G01*
G37*
G36*
G01*
X128700000Y-94027000D02*
X128025000Y-94027000D01*
G75*
G02*
X127975000Y-93977000I0J50000D01*
G01*
X127975000Y-93723000D01*
G75*
G02*
X128025000Y-93673000I50000J0D01*
G01*
X128700000Y-93673000D01*
G75*
G02*
X128750000Y-93723000I0J-50000D01*
G01*
X128750000Y-93977000D01*
G75*
G02*
X128700000Y-94027000I-50000J0D01*
G01*
G37*
G36*
G01*
X128700000Y-94527000D02*
X128025000Y-94527000D01*
G75*
G02*
X127975000Y-94477000I0J50000D01*
G01*
X127975000Y-94223000D01*
G75*
G02*
X128025000Y-94173000I50000J0D01*
G01*
X128700000Y-94173000D01*
G75*
G02*
X128750000Y-94223000I0J-50000D01*
G01*
X128750000Y-94477000D01*
G75*
G02*
X128700000Y-94527000I-50000J0D01*
G01*
G37*
G36*
G01*
X128700000Y-95027000D02*
X128025000Y-95027000D01*
G75*
G02*
X127975000Y-94977000I0J50000D01*
G01*
X127975000Y-94723000D01*
G75*
G02*
X128025000Y-94673000I50000J0D01*
G01*
X128700000Y-94673000D01*
G75*
G02*
X128750000Y-94723000I0J-50000D01*
G01*
X128750000Y-94977000D01*
G75*
G02*
X128700000Y-95027000I-50000J0D01*
G01*
G37*
G36*
G01*
X128700000Y-95527000D02*
X128025000Y-95527000D01*
G75*
G02*
X127975000Y-95477000I0J50000D01*
G01*
X127975000Y-95223000D01*
G75*
G02*
X128025000Y-95173000I50000J0D01*
G01*
X128700000Y-95173000D01*
G75*
G02*
X128750000Y-95223000I0J-50000D01*
G01*
X128750000Y-95477000D01*
G75*
G02*
X128700000Y-95527000I-50000J0D01*
G01*
G37*
G36*
G01*
X125375000Y-91527000D02*
X124700000Y-91527000D01*
G75*
G02*
X124650000Y-91477000I0J50000D01*
G01*
X124650000Y-91223000D01*
G75*
G02*
X124700000Y-91173000I50000J0D01*
G01*
X125375000Y-91173000D01*
G75*
G02*
X125425000Y-91223000I0J-50000D01*
G01*
X125425000Y-91477000D01*
G75*
G02*
X125375000Y-91527000I-50000J0D01*
G01*
G37*
G36*
G01*
X125375000Y-92027000D02*
X124700000Y-92027000D01*
G75*
G02*
X124650000Y-91977000I0J50000D01*
G01*
X124650000Y-91723000D01*
G75*
G02*
X124700000Y-91673000I50000J0D01*
G01*
X125375000Y-91673000D01*
G75*
G02*
X125425000Y-91723000I0J-50000D01*
G01*
X125425000Y-91977000D01*
G75*
G02*
X125375000Y-92027000I-50000J0D01*
G01*
G37*
G36*
G01*
X125375000Y-92527000D02*
X124700000Y-92527000D01*
G75*
G02*
X124650000Y-92477000I0J50000D01*
G01*
X124650000Y-92223000D01*
G75*
G02*
X124700000Y-92173000I50000J0D01*
G01*
X125375000Y-92173000D01*
G75*
G02*
X125425000Y-92223000I0J-50000D01*
G01*
X125425000Y-92477000D01*
G75*
G02*
X125375000Y-92527000I-50000J0D01*
G01*
G37*
G36*
G01*
X125375000Y-93027000D02*
X124700000Y-93027000D01*
G75*
G02*
X124650000Y-92977000I0J50000D01*
G01*
X124650000Y-92723000D01*
G75*
G02*
X124700000Y-92673000I50000J0D01*
G01*
X125375000Y-92673000D01*
G75*
G02*
X125425000Y-92723000I0J-50000D01*
G01*
X125425000Y-92977000D01*
G75*
G02*
X125375000Y-93027000I-50000J0D01*
G01*
G37*
G36*
G01*
X125375000Y-93527000D02*
X124700000Y-93527000D01*
G75*
G02*
X124650000Y-93477000I0J50000D01*
G01*
X124650000Y-93223000D01*
G75*
G02*
X124700000Y-93173000I50000J0D01*
G01*
X125375000Y-93173000D01*
G75*
G02*
X125425000Y-93223000I0J-50000D01*
G01*
X125425000Y-93477000D01*
G75*
G02*
X125375000Y-93527000I-50000J0D01*
G01*
G37*
G36*
G01*
X125375000Y-94027000D02*
X124700000Y-94027000D01*
G75*
G02*
X124650000Y-93977000I0J50000D01*
G01*
X124650000Y-93723000D01*
G75*
G02*
X124700000Y-93673000I50000J0D01*
G01*
X125375000Y-93673000D01*
G75*
G02*
X125425000Y-93723000I0J-50000D01*
G01*
X125425000Y-93977000D01*
G75*
G02*
X125375000Y-94027000I-50000J0D01*
G01*
G37*
G36*
G01*
X125375000Y-94527000D02*
X124700000Y-94527000D01*
G75*
G02*
X124650000Y-94477000I0J50000D01*
G01*
X124650000Y-94223000D01*
G75*
G02*
X124700000Y-94173000I50000J0D01*
G01*
X125375000Y-94173000D01*
G75*
G02*
X125425000Y-94223000I0J-50000D01*
G01*
X125425000Y-94477000D01*
G75*
G02*
X125375000Y-94527000I-50000J0D01*
G01*
G37*
G36*
G01*
X125375000Y-95027000D02*
X124700000Y-95027000D01*
G75*
G02*
X124650000Y-94977000I0J50000D01*
G01*
X124650000Y-94723000D01*
G75*
G02*
X124700000Y-94673000I50000J0D01*
G01*
X125375000Y-94673000D01*
G75*
G02*
X125425000Y-94723000I0J-50000D01*
G01*
X125425000Y-94977000D01*
G75*
G02*
X125375000Y-95027000I-50000J0D01*
G01*
G37*
G36*
G01*
X125375000Y-95527000D02*
X124700000Y-95527000D01*
G75*
G02*
X124650000Y-95477000I0J50000D01*
G01*
X124650000Y-95223000D01*
G75*
G02*
X124700000Y-95173000I50000J0D01*
G01*
X125375000Y-95173000D01*
G75*
G02*
X125425000Y-95223000I0J-50000D01*
G01*
X125425000Y-95477000D01*
G75*
G02*
X125375000Y-95527000I-50000J0D01*
G01*
G37*
G36*
G01*
X127627000Y-95650000D02*
X127627000Y-96325000D01*
G75*
G02*
X127577000Y-96375000I-50000J0D01*
G01*
X127323000Y-96375000D01*
G75*
G02*
X127273000Y-96325000I0J50000D01*
G01*
X127273000Y-95650000D01*
G75*
G02*
X127323000Y-95600000I50000J0D01*
G01*
X127577000Y-95600000D01*
G75*
G02*
X127627000Y-95650000I0J-50000D01*
G01*
G37*
G36*
G01*
X127127000Y-95650000D02*
X127127000Y-96325000D01*
G75*
G02*
X127077000Y-96375000I-50000J0D01*
G01*
X126823000Y-96375000D01*
G75*
G02*
X126773000Y-96325000I0J50000D01*
G01*
X126773000Y-95650000D01*
G75*
G02*
X126823000Y-95600000I50000J0D01*
G01*
X127077000Y-95600000D01*
G75*
G02*
X127127000Y-95650000I0J-50000D01*
G01*
G37*
G36*
G01*
X126627000Y-95650000D02*
X126627000Y-96325000D01*
G75*
G02*
X126577000Y-96375000I-50000J0D01*
G01*
X126323000Y-96375000D01*
G75*
G02*
X126273000Y-96325000I0J50000D01*
G01*
X126273000Y-95650000D01*
G75*
G02*
X126323000Y-95600000I50000J0D01*
G01*
X126577000Y-95600000D01*
G75*
G02*
X126627000Y-95650000I0J-50000D01*
G01*
G37*
G36*
G01*
X125375000Y-96027000D02*
X124700000Y-96027000D01*
G75*
G02*
X124650000Y-95977000I0J50000D01*
G01*
X124650000Y-95723000D01*
G75*
G02*
X124700000Y-95673000I50000J0D01*
G01*
X125375000Y-95673000D01*
G75*
G02*
X125425000Y-95723000I0J-50000D01*
G01*
X125425000Y-95977000D01*
G75*
G02*
X125375000Y-96027000I-50000J0D01*
G01*
G37*
G36*
G01*
X126127000Y-95650000D02*
X126127000Y-96325000D01*
G75*
G02*
X126077000Y-96375000I-50000J0D01*
G01*
X125823000Y-96375000D01*
G75*
G02*
X125773000Y-96325000I0J50000D01*
G01*
X125773000Y-95650000D01*
G75*
G02*
X125823000Y-95600000I50000J0D01*
G01*
X126077000Y-95600000D01*
G75*
G02*
X126127000Y-95650000I0J-50000D01*
G01*
G37*
G36*
G01*
X128700000Y-96027000D02*
X128025000Y-96027000D01*
G75*
G02*
X127975000Y-95977000I0J50000D01*
G01*
X127975000Y-95723000D01*
G75*
G02*
X128025000Y-95673000I50000J0D01*
G01*
X128700000Y-95673000D01*
G75*
G02*
X128750000Y-95723000I0J-50000D01*
G01*
X128750000Y-95977000D01*
G75*
G02*
X128700000Y-96027000I-50000J0D01*
G01*
G37*
G36*
G01*
X126127000Y-90875000D02*
X126127000Y-91550000D01*
G75*
G02*
X126077000Y-91600000I-50000J0D01*
G01*
X125823000Y-91600000D01*
G75*
G02*
X125773000Y-91550000I0J50000D01*
G01*
X125773000Y-90875000D01*
G75*
G02*
X125823000Y-90825000I50000J0D01*
G01*
X126077000Y-90825000D01*
G75*
G02*
X126127000Y-90875000I0J-50000D01*
G01*
G37*
%TD*%
D11*
%TO.C,B+*%
X136500000Y-106400000D03*
%TD*%
D12*
%TO.C,~*%
X118240000Y-96480000D03*
X115700000Y-96480000D03*
X118240000Y-93940000D03*
X115700000Y-93940000D03*
X118240000Y-91400000D03*
D13*
X115700000Y-91400000D03*
%TD*%
D14*
%TO.C,U5*%
X134900000Y-68900000D03*
X134900000Y-70900000D03*
X134900000Y-72900000D03*
X134900000Y-74900000D03*
X134900000Y-76900000D03*
X134900000Y-78900000D03*
X134900000Y-80900000D03*
X134900000Y-82900000D03*
D15*
X132300000Y-84400000D03*
X130300000Y-84400000D03*
X128300000Y-84400000D03*
X126300000Y-84400000D03*
X124300000Y-84400000D03*
X122300000Y-84400000D03*
D14*
X119700000Y-82900000D03*
X119700000Y-80900000D03*
X119700000Y-78900000D03*
X119700000Y-76900000D03*
X119700000Y-74900000D03*
X119700000Y-72900000D03*
X119700000Y-70900000D03*
X119700000Y-68900000D03*
%TD*%
%TO.C,R12*%
G36*
G01*
X137260000Y-76715000D02*
X137260000Y-77085000D01*
G75*
G02*
X137125000Y-77220000I-135000J0D01*
G01*
X136855000Y-77220000D01*
G75*
G02*
X136720000Y-77085000I0J135000D01*
G01*
X136720000Y-76715000D01*
G75*
G02*
X136855000Y-76580000I135000J0D01*
G01*
X137125000Y-76580000D01*
G75*
G02*
X137260000Y-76715000I0J-135000D01*
G01*
G37*
G36*
G01*
X138280000Y-76715000D02*
X138280000Y-77085000D01*
G75*
G02*
X138145000Y-77220000I-135000J0D01*
G01*
X137875000Y-77220000D01*
G75*
G02*
X137740000Y-77085000I0J135000D01*
G01*
X137740000Y-76715000D01*
G75*
G02*
X137875000Y-76580000I135000J0D01*
G01*
X138145000Y-76580000D01*
G75*
G02*
X138280000Y-76715000I0J-135000D01*
G01*
G37*
%TD*%
%TO.C,R11*%
G36*
G01*
X137740000Y-81035000D02*
X137740000Y-80665000D01*
G75*
G02*
X137875000Y-80530000I135000J0D01*
G01*
X138145000Y-80530000D01*
G75*
G02*
X138280000Y-80665000I0J-135000D01*
G01*
X138280000Y-81035000D01*
G75*
G02*
X138145000Y-81170000I-135000J0D01*
G01*
X137875000Y-81170000D01*
G75*
G02*
X137740000Y-81035000I0J135000D01*
G01*
G37*
G36*
G01*
X136720000Y-81035000D02*
X136720000Y-80665000D01*
G75*
G02*
X136855000Y-80530000I135000J0D01*
G01*
X137125000Y-80530000D01*
G75*
G02*
X137260000Y-80665000I0J-135000D01*
G01*
X137260000Y-81035000D01*
G75*
G02*
X137125000Y-81170000I-135000J0D01*
G01*
X136855000Y-81170000D01*
G75*
G02*
X136720000Y-81035000I0J135000D01*
G01*
G37*
%TD*%
D16*
%TO.C,U1*%
X121050000Y-106250000D03*
D17*
X121800000Y-104800000D03*
X121300000Y-104800000D03*
X120800000Y-104800000D03*
X120300000Y-104800000D03*
X121800000Y-107700000D03*
X121300000Y-107700000D03*
X120800000Y-107700000D03*
X120300000Y-107700000D03*
%TD*%
%TO.C,C1*%
G36*
G01*
X119300000Y-106480000D02*
X119100000Y-106480000D01*
G75*
G02*
X119000000Y-106380000I0J100000D01*
G01*
X119000000Y-106120000D01*
G75*
G02*
X119100000Y-106020000I100000J0D01*
G01*
X119300000Y-106020000D01*
G75*
G02*
X119400000Y-106120000I0J-100000D01*
G01*
X119400000Y-106380000D01*
G75*
G02*
X119300000Y-106480000I-100000J0D01*
G01*
G37*
G36*
G01*
X119300000Y-107150000D02*
X119100000Y-107150000D01*
G75*
G02*
X119000000Y-107050000I0J100000D01*
G01*
X119000000Y-106790000D01*
G75*
G02*
X119100000Y-106690000I100000J0D01*
G01*
X119300000Y-106690000D01*
G75*
G02*
X119400000Y-106790000I0J-100000D01*
G01*
X119400000Y-107050000D01*
G75*
G02*
X119300000Y-107150000I-100000J0D01*
G01*
G37*
%TD*%
%TO.C,C3*%
G36*
G01*
X123000000Y-106720000D02*
X123200000Y-106720000D01*
G75*
G02*
X123300000Y-106820000I0J-100000D01*
G01*
X123300000Y-107080000D01*
G75*
G02*
X123200000Y-107180000I-100000J0D01*
G01*
X123000000Y-107180000D01*
G75*
G02*
X122900000Y-107080000I0J100000D01*
G01*
X122900000Y-106820000D01*
G75*
G02*
X123000000Y-106720000I100000J0D01*
G01*
G37*
G36*
G01*
X123000000Y-106050000D02*
X123200000Y-106050000D01*
G75*
G02*
X123300000Y-106150000I0J-100000D01*
G01*
X123300000Y-106410000D01*
G75*
G02*
X123200000Y-106510000I-100000J0D01*
G01*
X123000000Y-106510000D01*
G75*
G02*
X122900000Y-106410000I0J100000D01*
G01*
X122900000Y-106150000D01*
G75*
G02*
X123000000Y-106050000I100000J0D01*
G01*
G37*
%TD*%
D18*
%TO.C,U3*%
X131150000Y-97230000D03*
X131800000Y-97910000D03*
D19*
X131900000Y-97140000D03*
X131080000Y-97990000D03*
%TD*%
D12*
%TO.C,~*%
X131900000Y-93140000D03*
D13*
X131900000Y-90600000D03*
%TD*%
%TO.C,R8*%
G36*
G01*
X137020000Y-102165000D02*
X137020000Y-102535000D01*
G75*
G02*
X136885000Y-102670000I-135000J0D01*
G01*
X136615000Y-102670000D01*
G75*
G02*
X136480000Y-102535000I0J135000D01*
G01*
X136480000Y-102165000D01*
G75*
G02*
X136615000Y-102030000I135000J0D01*
G01*
X136885000Y-102030000D01*
G75*
G02*
X137020000Y-102165000I0J-135000D01*
G01*
G37*
G36*
G01*
X138040000Y-102165000D02*
X138040000Y-102535000D01*
G75*
G02*
X137905000Y-102670000I-135000J0D01*
G01*
X137635000Y-102670000D01*
G75*
G02*
X137500000Y-102535000I0J135000D01*
G01*
X137500000Y-102165000D01*
G75*
G02*
X137635000Y-102030000I135000J0D01*
G01*
X137905000Y-102030000D01*
G75*
G02*
X138040000Y-102165000I0J-135000D01*
G01*
G37*
%TD*%
D12*
%TO.C,BNO MODULE*%
X111760000Y-82550000D03*
X111760000Y-80010000D03*
X111760000Y-77470000D03*
X111760000Y-74930000D03*
D13*
X111760000Y-72390000D03*
%TD*%
D20*
%TO.C,U2*%
X130700000Y-100625000D03*
X131200000Y-100625000D03*
X131700000Y-100625000D03*
X131700000Y-101775000D03*
X131200000Y-101775000D03*
D21*
X130700000Y-101725000D03*
%TD*%
D11*
%TO.C,B-*%
X136500000Y-97900000D03*
%TD*%
D22*
%TO.C,U4*%
G36*
X127781802Y-106600000D02*
G01*
X128100000Y-106281802D01*
X128418198Y-106600000D01*
X128100000Y-106918198D01*
X127781802Y-106600000D01*
G37*
%TD*%
%TO.C,C5*%
G36*
G01*
X128050000Y-103525000D02*
X128050000Y-104475000D01*
G75*
G02*
X127800000Y-104725000I-250000J0D01*
G01*
X127300000Y-104725000D01*
G75*
G02*
X127050000Y-104475000I0J250000D01*
G01*
X127050000Y-103525000D01*
G75*
G02*
X127300000Y-103275000I250000J0D01*
G01*
X127800000Y-103275000D01*
G75*
G02*
X128050000Y-103525000I0J-250000D01*
G01*
G37*
G36*
G01*
X129950000Y-103525000D02*
X129950000Y-104475000D01*
G75*
G02*
X129700000Y-104725000I-250000J0D01*
G01*
X129200000Y-104725000D01*
G75*
G02*
X128950000Y-104475000I0J250000D01*
G01*
X128950000Y-103525000D01*
G75*
G02*
X129200000Y-103275000I250000J0D01*
G01*
X129700000Y-103275000D01*
G75*
G02*
X129950000Y-103525000I0J-250000D01*
G01*
G37*
%TD*%
%TO.C,C4*%
G36*
G01*
X126175000Y-106150000D02*
X125225000Y-106150000D01*
G75*
G02*
X124975000Y-105900000I0J250000D01*
G01*
X124975000Y-105400000D01*
G75*
G02*
X125225000Y-105150000I250000J0D01*
G01*
X126175000Y-105150000D01*
G75*
G02*
X126425000Y-105400000I0J-250000D01*
G01*
X126425000Y-105900000D01*
G75*
G02*
X126175000Y-106150000I-250000J0D01*
G01*
G37*
G36*
G01*
X126175000Y-108050000D02*
X125225000Y-108050000D01*
G75*
G02*
X124975000Y-107800000I0J250000D01*
G01*
X124975000Y-107300000D01*
G75*
G02*
X125225000Y-107050000I250000J0D01*
G01*
X126175000Y-107050000D01*
G75*
G02*
X126425000Y-107300000I0J-250000D01*
G01*
X126425000Y-107800000D01*
G75*
G02*
X126175000Y-108050000I-250000J0D01*
G01*
G37*
%TD*%
D23*
%TO.C,U5*%
X122400000Y-93600000D03*
X122400000Y-95400000D03*
X123600000Y-93600000D03*
D24*
X123600000Y-95400000D03*
%TD*%
D25*
%TO.C,SW1*%
X111100000Y-89300000D03*
X111100000Y-97300000D03*
X111100000Y-95300000D03*
X111100000Y-93300000D03*
X111100000Y-91300000D03*
%TD*%
%TO.C,R3*%
G36*
G01*
X129315000Y-97740000D02*
X129685000Y-97740000D01*
G75*
G02*
X129820000Y-97875000I0J-135000D01*
G01*
X129820000Y-98145000D01*
G75*
G02*
X129685000Y-98280000I-135000J0D01*
G01*
X129315000Y-98280000D01*
G75*
G02*
X129180000Y-98145000I0J135000D01*
G01*
X129180000Y-97875000D01*
G75*
G02*
X129315000Y-97740000I135000J0D01*
G01*
G37*
G36*
G01*
X129315000Y-96720000D02*
X129685000Y-96720000D01*
G75*
G02*
X129820000Y-96855000I0J-135000D01*
G01*
X129820000Y-97125000D01*
G75*
G02*
X129685000Y-97260000I-135000J0D01*
G01*
X129315000Y-97260000D01*
G75*
G02*
X129180000Y-97125000I0J135000D01*
G01*
X129180000Y-96855000D01*
G75*
G02*
X129315000Y-96720000I135000J0D01*
G01*
G37*
%TD*%
%TO.C,R2*%
G36*
G01*
X130915000Y-105140000D02*
X131285000Y-105140000D01*
G75*
G02*
X131420000Y-105275000I0J-135000D01*
G01*
X131420000Y-105545000D01*
G75*
G02*
X131285000Y-105680000I-135000J0D01*
G01*
X130915000Y-105680000D01*
G75*
G02*
X130780000Y-105545000I0J135000D01*
G01*
X130780000Y-105275000D01*
G75*
G02*
X130915000Y-105140000I135000J0D01*
G01*
G37*
G36*
G01*
X130915000Y-104120000D02*
X131285000Y-104120000D01*
G75*
G02*
X131420000Y-104255000I0J-135000D01*
G01*
X131420000Y-104525000D01*
G75*
G02*
X131285000Y-104660000I-135000J0D01*
G01*
X130915000Y-104660000D01*
G75*
G02*
X130780000Y-104525000I0J135000D01*
G01*
X130780000Y-104255000D01*
G75*
G02*
X130915000Y-104120000I135000J0D01*
G01*
G37*
%TD*%
%TO.C,R10*%
G36*
G01*
X116760000Y-74715000D02*
X116760000Y-75085000D01*
G75*
G02*
X116625000Y-75220000I-135000J0D01*
G01*
X116355000Y-75220000D01*
G75*
G02*
X116220000Y-75085000I0J135000D01*
G01*
X116220000Y-74715000D01*
G75*
G02*
X116355000Y-74580000I135000J0D01*
G01*
X116625000Y-74580000D01*
G75*
G02*
X116760000Y-74715000I0J-135000D01*
G01*
G37*
G36*
G01*
X117780000Y-74715000D02*
X117780000Y-75085000D01*
G75*
G02*
X117645000Y-75220000I-135000J0D01*
G01*
X117375000Y-75220000D01*
G75*
G02*
X117240000Y-75085000I0J135000D01*
G01*
X117240000Y-74715000D01*
G75*
G02*
X117375000Y-74580000I135000J0D01*
G01*
X117645000Y-74580000D01*
G75*
G02*
X117780000Y-74715000I0J-135000D01*
G01*
G37*
%TD*%
%TO.C,R16*%
G36*
G01*
X116015000Y-80790000D02*
X116385000Y-80790000D01*
G75*
G02*
X116520000Y-80925000I0J-135000D01*
G01*
X116520000Y-81195000D01*
G75*
G02*
X116385000Y-81330000I-135000J0D01*
G01*
X116015000Y-81330000D01*
G75*
G02*
X115880000Y-81195000I0J135000D01*
G01*
X115880000Y-80925000D01*
G75*
G02*
X116015000Y-80790000I135000J0D01*
G01*
G37*
G36*
G01*
X116015000Y-79770000D02*
X116385000Y-79770000D01*
G75*
G02*
X116520000Y-79905000I0J-135000D01*
G01*
X116520000Y-80175000D01*
G75*
G02*
X116385000Y-80310000I-135000J0D01*
G01*
X116015000Y-80310000D01*
G75*
G02*
X115880000Y-80175000I0J135000D01*
G01*
X115880000Y-79905000D01*
G75*
G02*
X116015000Y-79770000I135000J0D01*
G01*
G37*
%TD*%
%TO.C,R15*%
G36*
G01*
X116860000Y-72715000D02*
X116860000Y-73085000D01*
G75*
G02*
X116725000Y-73220000I-135000J0D01*
G01*
X116455000Y-73220000D01*
G75*
G02*
X116320000Y-73085000I0J135000D01*
G01*
X116320000Y-72715000D01*
G75*
G02*
X116455000Y-72580000I135000J0D01*
G01*
X116725000Y-72580000D01*
G75*
G02*
X116860000Y-72715000I0J-135000D01*
G01*
G37*
G36*
G01*
X117880000Y-72715000D02*
X117880000Y-73085000D01*
G75*
G02*
X117745000Y-73220000I-135000J0D01*
G01*
X117475000Y-73220000D01*
G75*
G02*
X117340000Y-73085000I0J135000D01*
G01*
X117340000Y-72715000D01*
G75*
G02*
X117475000Y-72580000I135000J0D01*
G01*
X117745000Y-72580000D01*
G75*
G02*
X117880000Y-72715000I0J-135000D01*
G01*
G37*
%TD*%
%TO.C,R13*%
G36*
G01*
X123415000Y-97240000D02*
X123785000Y-97240000D01*
G75*
G02*
X123920000Y-97375000I0J-135000D01*
G01*
X123920000Y-97645000D01*
G75*
G02*
X123785000Y-97780000I-135000J0D01*
G01*
X123415000Y-97780000D01*
G75*
G02*
X123280000Y-97645000I0J135000D01*
G01*
X123280000Y-97375000D01*
G75*
G02*
X123415000Y-97240000I135000J0D01*
G01*
G37*
G36*
G01*
X123415000Y-96220000D02*
X123785000Y-96220000D01*
G75*
G02*
X123920000Y-96355000I0J-135000D01*
G01*
X123920000Y-96625000D01*
G75*
G02*
X123785000Y-96760000I-135000J0D01*
G01*
X123415000Y-96760000D01*
G75*
G02*
X123280000Y-96625000I0J135000D01*
G01*
X123280000Y-96355000D01*
G75*
G02*
X123415000Y-96220000I135000J0D01*
G01*
G37*
%TD*%
%TO.C,R9*%
G36*
G01*
X117340000Y-71085000D02*
X117340000Y-70715000D01*
G75*
G02*
X117475000Y-70580000I135000J0D01*
G01*
X117745000Y-70580000D01*
G75*
G02*
X117880000Y-70715000I0J-135000D01*
G01*
X117880000Y-71085000D01*
G75*
G02*
X117745000Y-71220000I-135000J0D01*
G01*
X117475000Y-71220000D01*
G75*
G02*
X117340000Y-71085000I0J135000D01*
G01*
G37*
G36*
G01*
X116320000Y-71085000D02*
X116320000Y-70715000D01*
G75*
G02*
X116455000Y-70580000I135000J0D01*
G01*
X116725000Y-70580000D01*
G75*
G02*
X116860000Y-70715000I0J-135000D01*
G01*
X116860000Y-71085000D01*
G75*
G02*
X116725000Y-71220000I-135000J0D01*
G01*
X116455000Y-71220000D01*
G75*
G02*
X116320000Y-71085000I0J135000D01*
G01*
G37*
%TD*%
%TO.C,R7*%
G36*
G01*
X117340000Y-69085000D02*
X117340000Y-68715000D01*
G75*
G02*
X117475000Y-68580000I135000J0D01*
G01*
X117745000Y-68580000D01*
G75*
G02*
X117880000Y-68715000I0J-135000D01*
G01*
X117880000Y-69085000D01*
G75*
G02*
X117745000Y-69220000I-135000J0D01*
G01*
X117475000Y-69220000D01*
G75*
G02*
X117340000Y-69085000I0J135000D01*
G01*
G37*
G36*
G01*
X116320000Y-69085000D02*
X116320000Y-68715000D01*
G75*
G02*
X116455000Y-68580000I135000J0D01*
G01*
X116725000Y-68580000D01*
G75*
G02*
X116860000Y-68715000I0J-135000D01*
G01*
X116860000Y-69085000D01*
G75*
G02*
X116725000Y-69220000I-135000J0D01*
G01*
X116455000Y-69220000D01*
G75*
G02*
X116320000Y-69085000I0J135000D01*
G01*
G37*
%TD*%
%TO.C,R6*%
G36*
G01*
X120150000Y-103315000D02*
X120150000Y-103685000D01*
G75*
G02*
X120015000Y-103820000I-135000J0D01*
G01*
X119745000Y-103820000D01*
G75*
G02*
X119610000Y-103685000I0J135000D01*
G01*
X119610000Y-103315000D01*
G75*
G02*
X119745000Y-103180000I135000J0D01*
G01*
X120015000Y-103180000D01*
G75*
G02*
X120150000Y-103315000I0J-135000D01*
G01*
G37*
G36*
G01*
X121170000Y-103315000D02*
X121170000Y-103685000D01*
G75*
G02*
X121035000Y-103820000I-135000J0D01*
G01*
X120765000Y-103820000D01*
G75*
G02*
X120630000Y-103685000I0J135000D01*
G01*
X120630000Y-103315000D01*
G75*
G02*
X120765000Y-103180000I135000J0D01*
G01*
X121035000Y-103180000D01*
G75*
G02*
X121170000Y-103315000I0J-135000D01*
G01*
G37*
%TD*%
%TO.C,R5*%
G36*
G01*
X122650000Y-103685000D02*
X122650000Y-103315000D01*
G75*
G02*
X122785000Y-103180000I135000J0D01*
G01*
X123055000Y-103180000D01*
G75*
G02*
X123190000Y-103315000I0J-135000D01*
G01*
X123190000Y-103685000D01*
G75*
G02*
X123055000Y-103820000I-135000J0D01*
G01*
X122785000Y-103820000D01*
G75*
G02*
X122650000Y-103685000I0J135000D01*
G01*
G37*
G36*
G01*
X121630000Y-103685000D02*
X121630000Y-103315000D01*
G75*
G02*
X121765000Y-103180000I135000J0D01*
G01*
X122035000Y-103180000D01*
G75*
G02*
X122170000Y-103315000I0J-135000D01*
G01*
X122170000Y-103685000D01*
G75*
G02*
X122035000Y-103820000I-135000J0D01*
G01*
X121765000Y-103820000D01*
G75*
G02*
X121630000Y-103685000I0J135000D01*
G01*
G37*
%TD*%
%TO.C,R4*%
G36*
G01*
X117485000Y-99860000D02*
X117115000Y-99860000D01*
G75*
G02*
X116980000Y-99725000I0J135000D01*
G01*
X116980000Y-99455000D01*
G75*
G02*
X117115000Y-99320000I135000J0D01*
G01*
X117485000Y-99320000D01*
G75*
G02*
X117620000Y-99455000I0J-135000D01*
G01*
X117620000Y-99725000D01*
G75*
G02*
X117485000Y-99860000I-135000J0D01*
G01*
G37*
G36*
G01*
X117485000Y-100880000D02*
X117115000Y-100880000D01*
G75*
G02*
X116980000Y-100745000I0J135000D01*
G01*
X116980000Y-100475000D01*
G75*
G02*
X117115000Y-100340000I135000J0D01*
G01*
X117485000Y-100340000D01*
G75*
G02*
X117620000Y-100475000I0J-135000D01*
G01*
X117620000Y-100745000D01*
G75*
G02*
X117485000Y-100880000I-135000J0D01*
G01*
G37*
%TD*%
%TO.C,R1*%
G36*
G01*
X118585000Y-99860000D02*
X118215000Y-99860000D01*
G75*
G02*
X118080000Y-99725000I0J135000D01*
G01*
X118080000Y-99455000D01*
G75*
G02*
X118215000Y-99320000I135000J0D01*
G01*
X118585000Y-99320000D01*
G75*
G02*
X118720000Y-99455000I0J-135000D01*
G01*
X118720000Y-99725000D01*
G75*
G02*
X118585000Y-99860000I-135000J0D01*
G01*
G37*
G36*
G01*
X118585000Y-100880000D02*
X118215000Y-100880000D01*
G75*
G02*
X118080000Y-100745000I0J135000D01*
G01*
X118080000Y-100475000D01*
G75*
G02*
X118215000Y-100340000I135000J0D01*
G01*
X118585000Y-100340000D01*
G75*
G02*
X118720000Y-100475000I0J-135000D01*
G01*
X118720000Y-100745000D01*
G75*
G02*
X118585000Y-100880000I-135000J0D01*
G01*
G37*
%TD*%
D26*
%TO.C,USB*%
X114980000Y-101150000D03*
X114980000Y-106650000D03*
D27*
X114980000Y-102380000D03*
X114980000Y-105420000D03*
D28*
X114980000Y-103400000D03*
X114980000Y-104400000D03*
D29*
X114900000Y-99580000D03*
X114900000Y-108220000D03*
X111100000Y-99580000D03*
X111100000Y-108220000D03*
%TD*%
%TO.C,D1*%
G36*
G01*
X120725000Y-100875000D02*
X120725000Y-102125000D01*
G75*
G02*
X120475000Y-102375000I-250000J0D01*
G01*
X119725000Y-102375000D01*
G75*
G02*
X119475000Y-102125000I0J250000D01*
G01*
X119475000Y-100875000D01*
G75*
G02*
X119725000Y-100625000I250000J0D01*
G01*
X120475000Y-100625000D01*
G75*
G02*
X120725000Y-100875000I0J-250000D01*
G01*
G37*
G36*
G01*
X123525000Y-100875000D02*
X123525000Y-102125000D01*
G75*
G02*
X123275000Y-102375000I-250000J0D01*
G01*
X122525000Y-102375000D01*
G75*
G02*
X122275000Y-102125000I0J250000D01*
G01*
X122275000Y-100875000D01*
G75*
G02*
X122525000Y-100625000I250000J0D01*
G01*
X123275000Y-100625000D01*
G75*
G02*
X123525000Y-100875000I0J-250000D01*
G01*
G37*
%TD*%
%TO.C,C2*%
G36*
G01*
X131100000Y-99030000D02*
X131100000Y-99370000D01*
G75*
G02*
X130960000Y-99510000I-140000J0D01*
G01*
X130680000Y-99510000D01*
G75*
G02*
X130540000Y-99370000I0J140000D01*
G01*
X130540000Y-99030000D01*
G75*
G02*
X130680000Y-98890000I140000J0D01*
G01*
X130960000Y-98890000D01*
G75*
G02*
X131100000Y-99030000I0J-140000D01*
G01*
G37*
G36*
G01*
X132060000Y-99030000D02*
X132060000Y-99370000D01*
G75*
G02*
X131920000Y-99510000I-140000J0D01*
G01*
X131640000Y-99510000D01*
G75*
G02*
X131500000Y-99370000I0J140000D01*
G01*
X131500000Y-99030000D01*
G75*
G02*
X131640000Y-98890000I140000J0D01*
G01*
X131920000Y-98890000D01*
G75*
G02*
X132060000Y-99030000I0J-140000D01*
G01*
G37*
%TD*%
%TO.C,C8*%
G36*
G01*
X137700000Y-82970000D02*
X137700000Y-82630000D01*
G75*
G02*
X137840000Y-82490000I140000J0D01*
G01*
X138120000Y-82490000D01*
G75*
G02*
X138260000Y-82630000I0J-140000D01*
G01*
X138260000Y-82970000D01*
G75*
G02*
X138120000Y-83110000I-140000J0D01*
G01*
X137840000Y-83110000D01*
G75*
G02*
X137700000Y-82970000I0J140000D01*
G01*
G37*
G36*
G01*
X136740000Y-82970000D02*
X136740000Y-82630000D01*
G75*
G02*
X136880000Y-82490000I140000J0D01*
G01*
X137160000Y-82490000D01*
G75*
G02*
X137300000Y-82630000I0J-140000D01*
G01*
X137300000Y-82970000D01*
G75*
G02*
X137160000Y-83110000I-140000J0D01*
G01*
X136880000Y-83110000D01*
G75*
G02*
X136740000Y-82970000I0J140000D01*
G01*
G37*
%TD*%
%TO.C,C7*%
G36*
G01*
X129330000Y-95500000D02*
X129670000Y-95500000D01*
G75*
G02*
X129810000Y-95640000I0J-140000D01*
G01*
X129810000Y-95920000D01*
G75*
G02*
X129670000Y-96060000I-140000J0D01*
G01*
X129330000Y-96060000D01*
G75*
G02*
X129190000Y-95920000I0J140000D01*
G01*
X129190000Y-95640000D01*
G75*
G02*
X129330000Y-95500000I140000J0D01*
G01*
G37*
G36*
G01*
X129330000Y-94540000D02*
X129670000Y-94540000D01*
G75*
G02*
X129810000Y-94680000I0J-140000D01*
G01*
X129810000Y-94960000D01*
G75*
G02*
X129670000Y-95100000I-140000J0D01*
G01*
X129330000Y-95100000D01*
G75*
G02*
X129190000Y-94960000I0J140000D01*
G01*
X129190000Y-94680000D01*
G75*
G02*
X129330000Y-94540000I140000J0D01*
G01*
G37*
%TD*%
%TO.C,C6*%
G36*
G01*
X126000000Y-96930000D02*
X126000000Y-97270000D01*
G75*
G02*
X125860000Y-97410000I-140000J0D01*
G01*
X125580000Y-97410000D01*
G75*
G02*
X125440000Y-97270000I0J140000D01*
G01*
X125440000Y-96930000D01*
G75*
G02*
X125580000Y-96790000I140000J0D01*
G01*
X125860000Y-96790000D01*
G75*
G02*
X126000000Y-96930000I0J-140000D01*
G01*
G37*
G36*
G01*
X126960000Y-96930000D02*
X126960000Y-97270000D01*
G75*
G02*
X126820000Y-97410000I-140000J0D01*
G01*
X126540000Y-97410000D01*
G75*
G02*
X126400000Y-97270000I0J140000D01*
G01*
X126400000Y-96930000D01*
G75*
G02*
X126540000Y-96790000I140000J0D01*
G01*
X126820000Y-96790000D01*
G75*
G02*
X126960000Y-96930000I0J-140000D01*
G01*
G37*
%TD*%
%TO.C,C4*%
G36*
G01*
X135950000Y-91000000D02*
X137050000Y-91000000D01*
G75*
G02*
X137300000Y-91250000I0J-250000D01*
G01*
X137300000Y-93350000D01*
G75*
G02*
X137050000Y-93600000I-250000J0D01*
G01*
X135950000Y-93600000D01*
G75*
G02*
X135700000Y-93350000I0J250000D01*
G01*
X135700000Y-91250000D01*
G75*
G02*
X135950000Y-91000000I250000J0D01*
G01*
G37*
G36*
G01*
X135950000Y-87400000D02*
X137050000Y-87400000D01*
G75*
G02*
X137300000Y-87650000I0J-250000D01*
G01*
X137300000Y-89750000D01*
G75*
G02*
X137050000Y-90000000I-250000J0D01*
G01*
X135950000Y-90000000D01*
G75*
G02*
X135700000Y-89750000I0J250000D01*
G01*
X135700000Y-87650000D01*
G75*
G02*
X135950000Y-87400000I250000J0D01*
G01*
G37*
%TD*%
M02*
