%TF.GenerationSoftware,KiCad,Pcbnew,(5.1.9)-1*%
%TF.CreationDate,2022-10-17T20:04:13-04:00*%
%TF.ProjectId,slime,736c696d-652e-46b6-9963-61645f706362,rev?*%
%TF.SameCoordinates,Original*%
%TF.FileFunction,Copper,L2,Bot*%
%TF.FilePolarity,Positive*%
%FSLAX46Y46*%
G04 Gerber Fmt 4.6, Leading zero omitted, Abs format (unit mm)*
G04 Created by KiCad (PCBNEW (5.1.9)-1) date 2022-10-17 20:04:13*
%MOMM*%
%LPD*%
G01*
G04 APERTURE LIST*
%TA.AperFunction,ComponentPad*%
%ADD10O,1.700000X1.700000*%
%TD*%
%TA.AperFunction,ComponentPad*%
%ADD11R,1.700000X1.700000*%
%TD*%
%TA.AperFunction,SMDPad,CuDef*%
%ADD12C,0.100000*%
%TD*%
%TA.AperFunction,SMDPad,CuDef*%
%ADD13R,1.000000X1.500000*%
%TD*%
%TA.AperFunction,ComponentPad*%
%ADD14C,1.524000*%
%TD*%
%TA.AperFunction,ComponentPad*%
%ADD15O,2.200000X1.100000*%
%TD*%
%TA.AperFunction,ViaPad*%
%ADD16C,0.600000*%
%TD*%
%TA.AperFunction,ViaPad*%
%ADD17C,0.500000*%
%TD*%
%TA.AperFunction,Conductor*%
%ADD18C,0.200000*%
%TD*%
%TA.AperFunction,Conductor*%
%ADD19C,0.300000*%
%TD*%
%TA.AperFunction,Conductor*%
%ADD20C,0.254000*%
%TD*%
%TA.AperFunction,Conductor*%
%ADD21C,0.100000*%
%TD*%
G04 APERTURE END LIST*
D10*
%TO.P,~,6*%
%TO.N,RX*%
X118240000Y-96480000D03*
%TO.P,~,5*%
%TO.N,GPIO0*%
X115700000Y-96480000D03*
%TO.P,~,4*%
%TO.N,TX*%
X118240000Y-93940000D03*
%TO.P,~,3*%
%TO.N,RESET*%
X115700000Y-93940000D03*
%TO.P,~,2*%
%TO.N,3.3v*%
X118240000Y-91400000D03*
D11*
%TO.P,~,1*%
%TO.N,GND*%
X115700000Y-91400000D03*
%TD*%
%TA.AperFunction,SMDPad,CuDef*%
D12*
%TO.P,~,3*%
%TO.N,3.3v*%
G36*
X113400000Y-86100000D02*
G01*
X113900000Y-85350000D01*
X114900000Y-85350000D01*
X114900000Y-86850000D01*
X113900000Y-86850000D01*
X113400000Y-86100000D01*
G37*
%TD.AperFunction*%
%TA.AperFunction,SMDPad,CuDef*%
%TO.P,~,2*%
%TO.N,MOSI*%
G36*
X113100000Y-86100000D02*
G01*
X113600000Y-86850000D01*
X111200000Y-86850000D01*
X111700000Y-86100000D01*
X111200000Y-85350000D01*
X113600000Y-85350000D01*
X113100000Y-86100000D01*
G37*
%TD.AperFunction*%
%TA.AperFunction,SMDPad,CuDef*%
%TO.P,~,1*%
%TO.N,GND*%
G36*
X111400000Y-86100000D02*
G01*
X110900000Y-86850000D01*
X109900000Y-86850000D01*
X109900000Y-85350000D01*
X110900000Y-85350000D01*
X111400000Y-86100000D01*
G37*
%TD.AperFunction*%
%TD*%
D10*
%TO.P,~,2*%
%TO.N,RESET*%
X131900000Y-93140000D03*
D11*
%TO.P,~,1*%
%TO.N,INT*%
X131900000Y-90600000D03*
%TD*%
D10*
%TO.P,BNO MODULE,5*%
%TO.N,MOSI*%
X111760000Y-82550000D03*
%TO.P,BNO MODULE,4*%
%TO.N,H_SDA*%
X111760000Y-80010000D03*
%TO.P,BNO MODULE,3*%
%TO.N,H_SCL*%
X111760000Y-77470000D03*
%TO.P,BNO MODULE,2*%
%TO.N,GND*%
X111760000Y-74930000D03*
D11*
%TO.P,BNO MODULE,1*%
%TO.N,3.3v*%
X111760000Y-72390000D03*
%TD*%
D13*
%TO.P,RESET,1*%
%TO.N,GND*%
X113350000Y-88800000D03*
%TO.P,RESET,2*%
%TO.N,RESET*%
X114650000Y-88800000D03*
%TD*%
D14*
%TO.P,SW1,5*%
%TO.N,GND*%
X111100000Y-89300000D03*
%TO.P,SW1,4*%
X111100000Y-97300000D03*
%TO.P,SW1,3*%
%TO.N,B+*%
X111100000Y-95300000D03*
%TO.P,SW1,2*%
%TO.N,EN*%
X111100000Y-93300000D03*
%TO.P,SW1,1*%
%TO.N,GND*%
X111100000Y-91300000D03*
%TD*%
D15*
%TO.P,USB,S1*%
%TO.N,GND*%
X114900000Y-99580000D03*
%TO.P,USB,S2*%
X114900000Y-108220000D03*
%TO.P,USB,S3*%
X111100000Y-99580000D03*
%TO.P,USB,S4*%
X111100000Y-108220000D03*
%TD*%
D16*
%TO.N,B+*%
X126300000Y-107700000D03*
D17*
%TO.N,3.3v*%
X114400000Y-86100000D03*
D16*
X126700000Y-98000000D03*
X129400000Y-102500000D03*
D17*
X136500000Y-88700000D03*
X119700000Y-89900000D03*
X113900000Y-82800000D03*
%TO.N,GPIO0*%
X122675000Y-86300000D03*
X129000000Y-82200000D03*
%TO.N,TX*%
X129000000Y-80775000D03*
X121275000Y-86300000D03*
%TO.N,RX*%
X129000000Y-81475000D03*
X121975000Y-86300000D03*
%TO.N,RESET*%
X119700000Y-68900000D03*
%TO.N,BOOTN*%
X134900000Y-74900000D03*
X123400000Y-86300000D03*
%TO.N,MOSI*%
X126950000Y-90050000D03*
X118237500Y-84612500D03*
%TO.N,GND*%
X121450000Y-106800000D03*
X121450000Y-106300000D03*
X121450000Y-105800000D03*
X120950000Y-105800000D03*
X120950000Y-106300000D03*
X120950000Y-106800000D03*
X120450000Y-106800000D03*
X120450000Y-106300000D03*
X120450000Y-105800000D03*
D16*
X124800000Y-97200000D03*
X128100000Y-97100000D03*
X126100000Y-93900000D03*
X127700000Y-106200000D03*
X127305000Y-105705000D03*
D17*
X134300000Y-102400000D03*
X125900000Y-73700000D03*
%TO.N,INT*%
X119700000Y-80900000D03*
D16*
%TO.N,BAT_SENCE*%
X131200000Y-103600000D03*
X130000000Y-99200000D03*
%TO.N,EN*%
X127000000Y-107000000D03*
%TO.N,D-G*%
X132200000Y-102800000D03*
X130300000Y-98000000D03*
%TO.N,C-G*%
X131200000Y-102800000D03*
X132700000Y-97100000D03*
%TD*%
D18*
%TO.N,B+*%
X125799990Y-108200010D02*
X126300000Y-107700000D01*
X112500010Y-102865709D02*
X117834311Y-108200010D01*
X112500010Y-96600010D02*
X112500010Y-102865709D01*
X111200000Y-95300000D02*
X112500010Y-96600010D01*
X117834311Y-108200010D02*
X125799990Y-108200010D01*
X111100000Y-95300000D02*
X111200000Y-95300000D01*
D19*
%TO.N,3.3v*%
X129400000Y-102500000D02*
X129349999Y-102449999D01*
D18*
X126700000Y-98000000D02*
X128000000Y-98000000D01*
X128000000Y-98000000D02*
X129349999Y-99349999D01*
D19*
X129349999Y-102449999D02*
X129349999Y-99349999D01*
X129349999Y-97825997D02*
X129349999Y-99349999D01*
X136500000Y-90675996D02*
X136437998Y-90737998D01*
X136437998Y-90737998D02*
X129349999Y-97825997D01*
X111183999Y-81210001D02*
X109950000Y-79976002D01*
X112196003Y-81210001D02*
X111183999Y-81210001D01*
X109950000Y-74200000D02*
X111760000Y-72390000D01*
X109950000Y-79976002D02*
X109950000Y-74200000D01*
X114400000Y-83413998D02*
X114400000Y-86100000D01*
X113743001Y-82756999D02*
X114400000Y-83413998D01*
X112196003Y-81210001D02*
X113743001Y-82756999D01*
X113786002Y-82800000D02*
X113743001Y-82756999D01*
X128975736Y-102500000D02*
X123900000Y-97424264D01*
X129400000Y-102500000D02*
X128975736Y-102500000D01*
X123900000Y-97424264D02*
X123900000Y-94100000D01*
D18*
X129349999Y-97825997D02*
X133500000Y-93675996D01*
D19*
X119700000Y-89900000D02*
X119700000Y-89940000D01*
X123900000Y-94100000D02*
X119700000Y-89900000D01*
X119700000Y-89900000D02*
X119700000Y-89900000D01*
X113900000Y-82800000D02*
X113786002Y-82800000D01*
X136500000Y-88700000D02*
X136500000Y-90300000D01*
X136500000Y-90300000D02*
X136500000Y-90675996D01*
D18*
%TO.N,GPIO0*%
X126735998Y-82200000D02*
X126630499Y-82305499D01*
X129000000Y-82200000D02*
X126735998Y-82200000D01*
X126630499Y-82305499D02*
X122700000Y-86235998D01*
%TO.N,TX*%
X121300000Y-86046447D02*
X121300000Y-86300000D01*
X126571448Y-80775000D02*
X126398224Y-80948224D01*
X129000000Y-80775000D02*
X126571448Y-80775000D01*
X126398224Y-80948224D02*
X121300000Y-86046447D01*
X126546447Y-80800000D02*
X126398224Y-80948224D01*
%TO.N,RX*%
X122000000Y-86046447D02*
X122000000Y-86300000D01*
X126571448Y-81475000D02*
X126360724Y-81685724D01*
X129000000Y-81475000D02*
X126571448Y-81475000D01*
X126360724Y-81685724D02*
X122000000Y-86046447D01*
X126546447Y-81500000D02*
X126360724Y-81685724D01*
%TO.N,RESET*%
X131900000Y-93140000D02*
X131640000Y-93400000D01*
X116000001Y-85024265D02*
X116000001Y-70999999D01*
X116000001Y-87449999D02*
X114650000Y-88800000D01*
X116000001Y-85024265D02*
X116000001Y-87449999D01*
X114650000Y-89750000D02*
X113900000Y-90500000D01*
X114650000Y-88800000D02*
X114650000Y-89750000D01*
X113900000Y-92140000D02*
X115700000Y-93940000D01*
X113900000Y-90500000D02*
X113900000Y-92140000D01*
X129225998Y-93140000D02*
X124386018Y-88300020D01*
X131900000Y-93140000D02*
X129225998Y-93140000D01*
X121354620Y-88300020D02*
X118554600Y-85500000D01*
X124386018Y-88300020D02*
X121354620Y-88300020D01*
X116475736Y-85500000D02*
X116000001Y-85024265D01*
X118554600Y-85500000D02*
X116475736Y-85500000D01*
X118100000Y-68900000D02*
X118050000Y-68950000D01*
X119700000Y-68900000D02*
X118100000Y-68900000D01*
X116000001Y-70999999D02*
X118050000Y-68950000D01*
%TO.N,BOOTN*%
X134900000Y-77114002D02*
X134900000Y-74900000D01*
X126800000Y-82800000D02*
X129500000Y-82800000D01*
X123450000Y-86150000D02*
X126800000Y-82800000D01*
X123450000Y-86300000D02*
X123450000Y-86150000D01*
X134900000Y-77114002D02*
X134900000Y-77400000D01*
X129500000Y-82800000D02*
X134900000Y-77400000D01*
%TO.N,MOSI*%
X112400000Y-83190000D02*
X111760000Y-82550000D01*
X112400000Y-86100000D02*
X112400000Y-83190000D01*
X126950000Y-90050000D02*
X124800010Y-87900010D01*
X121520309Y-87900010D02*
X118220299Y-84600000D01*
X124800010Y-87900010D02*
X121520309Y-87900010D01*
%TO.N,GND*%
X124900000Y-97100000D02*
X124800000Y-97200000D01*
X128100000Y-97100000D02*
X124900000Y-97100000D01*
X124800000Y-95200000D02*
X126100000Y-93900000D01*
X124800000Y-97200000D02*
X124800000Y-95200000D01*
X111100000Y-97300000D02*
X111100000Y-96871762D01*
X110400000Y-88600000D02*
X110400000Y-86100000D01*
X111100000Y-89300000D02*
X110400000Y-88600000D01*
X113350000Y-89050000D02*
X111100000Y-91300000D01*
X113350000Y-88800000D02*
X113350000Y-89050000D01*
%TO.N,INT*%
X128800000Y-87500000D02*
X131900000Y-90600000D01*
X121685998Y-87500000D02*
X128800000Y-87500000D01*
X119700000Y-80900000D02*
X119700000Y-85514002D01*
X120042999Y-85857001D02*
X121685998Y-87500000D01*
X119700000Y-85514002D02*
X120042999Y-85857001D01*
D19*
%TO.N,BAT_SENCE*%
X131037998Y-103600000D02*
X131200000Y-103600000D01*
D18*
X130000000Y-102824264D02*
X130000000Y-99200000D01*
X130775736Y-103600000D02*
X130000000Y-102824264D01*
X131200000Y-103600000D02*
X130775736Y-103600000D01*
%TO.N,EN*%
X112900020Y-95100020D02*
X111100000Y-93300000D01*
X112900020Y-102700020D02*
X112900020Y-95100020D01*
X118000000Y-107800000D02*
X112900020Y-102700020D01*
X124450000Y-107800000D02*
X118000000Y-107800000D01*
X125250000Y-107000000D02*
X124450000Y-107800000D01*
X127000000Y-107000000D02*
X125250000Y-107000000D01*
%TO.N,D-G*%
X132200000Y-99900000D02*
X130300000Y-98000000D01*
X132200000Y-102800000D02*
X132200000Y-99900000D01*
%TO.N,C-G*%
X132999999Y-97399999D02*
X132700000Y-97100000D01*
X132999999Y-102888003D02*
X132999999Y-97399999D01*
X132488001Y-103400001D02*
X132999999Y-102888003D01*
X131911999Y-103400001D02*
X132488001Y-103400001D01*
X131311998Y-102800000D02*
X131911999Y-103400001D01*
X131200000Y-102800000D02*
X131311998Y-102800000D01*
%TD*%
D20*
%TO.N,GND*%
X139848001Y-95992529D02*
X139848000Y-95992539D01*
X139848001Y-109348000D01*
X115828023Y-109348000D01*
X116020813Y-109266196D01*
X116213948Y-109134734D01*
X116377725Y-108968119D01*
X116505850Y-108772754D01*
X116593399Y-108556147D01*
X116593803Y-108529744D01*
X116468361Y-108347000D01*
X115027000Y-108347000D01*
X115027000Y-108367000D01*
X114773000Y-108367000D01*
X114773000Y-108347000D01*
X113331639Y-108347000D01*
X113206197Y-108529744D01*
X113206601Y-108556147D01*
X113294150Y-108772754D01*
X113422275Y-108968119D01*
X113586052Y-109134734D01*
X113779187Y-109266196D01*
X113971977Y-109348000D01*
X112028023Y-109348000D01*
X112220813Y-109266196D01*
X112413948Y-109134734D01*
X112577725Y-108968119D01*
X112705850Y-108772754D01*
X112793399Y-108556147D01*
X112793803Y-108529744D01*
X112668361Y-108347000D01*
X111227000Y-108347000D01*
X111227000Y-108367000D01*
X110973000Y-108367000D01*
X110973000Y-108347000D01*
X109531639Y-108347000D01*
X109406197Y-108529744D01*
X109406601Y-108556147D01*
X109494150Y-108772754D01*
X109622275Y-108968119D01*
X109786052Y-109134734D01*
X109979187Y-109266196D01*
X110171977Y-109348000D01*
X109152000Y-109348000D01*
X109152000Y-107910256D01*
X109406197Y-107910256D01*
X109531639Y-108093000D01*
X110973000Y-108093000D01*
X110973000Y-107035000D01*
X111227000Y-107035000D01*
X111227000Y-108093000D01*
X112668361Y-108093000D01*
X112793803Y-107910256D01*
X113206197Y-107910256D01*
X113331639Y-108093000D01*
X114773000Y-108093000D01*
X114773000Y-107035000D01*
X115027000Y-107035000D01*
X115027000Y-108093000D01*
X116468361Y-108093000D01*
X116593803Y-107910256D01*
X116593399Y-107883853D01*
X116505850Y-107667246D01*
X116377725Y-107471881D01*
X116213948Y-107305266D01*
X116020813Y-107173804D01*
X115805742Y-107082546D01*
X115577000Y-107035000D01*
X115027000Y-107035000D01*
X114773000Y-107035000D01*
X114223000Y-107035000D01*
X113994258Y-107082546D01*
X113779187Y-107173804D01*
X113586052Y-107305266D01*
X113422275Y-107471881D01*
X113294150Y-107667246D01*
X113206601Y-107883853D01*
X113206197Y-107910256D01*
X112793803Y-107910256D01*
X112793399Y-107883853D01*
X112705850Y-107667246D01*
X112577725Y-107471881D01*
X112413948Y-107305266D01*
X112220813Y-107173804D01*
X112005742Y-107082546D01*
X111777000Y-107035000D01*
X111227000Y-107035000D01*
X110973000Y-107035000D01*
X110423000Y-107035000D01*
X110194258Y-107082546D01*
X109979187Y-107173804D01*
X109786052Y-107305266D01*
X109622275Y-107471881D01*
X109494150Y-107667246D01*
X109406601Y-107883853D01*
X109406197Y-107910256D01*
X109152000Y-107910256D01*
X109152000Y-99889744D01*
X109406197Y-99889744D01*
X109406601Y-99916147D01*
X109494150Y-100132754D01*
X109622275Y-100328119D01*
X109786052Y-100494734D01*
X109979187Y-100626196D01*
X110194258Y-100717454D01*
X110423000Y-100765000D01*
X110973000Y-100765000D01*
X110973000Y-99707000D01*
X109531639Y-99707000D01*
X109406197Y-99889744D01*
X109152000Y-99889744D01*
X109152000Y-99270256D01*
X109406197Y-99270256D01*
X109531639Y-99453000D01*
X110973000Y-99453000D01*
X110973000Y-99433000D01*
X111227000Y-99433000D01*
X111227000Y-99453000D01*
X111247000Y-99453000D01*
X111247000Y-99707000D01*
X111227000Y-99707000D01*
X111227000Y-100765000D01*
X111777000Y-100765000D01*
X112005742Y-100717454D01*
X112073011Y-100688911D01*
X112073011Y-102844732D01*
X112070945Y-102865709D01*
X112073011Y-102886686D01*
X112073011Y-102886687D01*
X112079189Y-102949416D01*
X112090627Y-102987120D01*
X112103606Y-103029905D01*
X112143255Y-103104085D01*
X112183242Y-103152809D01*
X112183247Y-103152814D01*
X112196616Y-103169104D01*
X112212906Y-103182473D01*
X117517547Y-108487115D01*
X117530916Y-108503405D01*
X117547206Y-108516774D01*
X117547210Y-108516778D01*
X117595934Y-108556766D01*
X117652849Y-108587186D01*
X117670115Y-108596415D01*
X117750604Y-108620832D01*
X117813333Y-108627010D01*
X117813344Y-108627010D01*
X117834311Y-108629075D01*
X117855278Y-108627010D01*
X125779023Y-108627010D01*
X125799990Y-108629075D01*
X125820957Y-108627010D01*
X125820968Y-108627010D01*
X125883697Y-108620832D01*
X125964186Y-108596415D01*
X126038366Y-108556765D01*
X126103385Y-108503405D01*
X126116758Y-108487110D01*
X126276868Y-108327000D01*
X126361754Y-108327000D01*
X126482889Y-108302905D01*
X126596996Y-108255640D01*
X126699689Y-108187023D01*
X126787023Y-108099689D01*
X126855640Y-107996996D01*
X126902905Y-107882889D01*
X126927000Y-107761754D01*
X126927000Y-107638246D01*
X126924208Y-107624208D01*
X126938246Y-107627000D01*
X127061754Y-107627000D01*
X127182889Y-107602905D01*
X127296996Y-107555640D01*
X127399689Y-107487023D01*
X127487023Y-107399689D01*
X127555640Y-107296996D01*
X127602905Y-107182889D01*
X127627000Y-107061754D01*
X127627000Y-106938246D01*
X127602905Y-106817111D01*
X127555640Y-106703004D01*
X127487023Y-106600311D01*
X127399689Y-106512977D01*
X127296996Y-106444360D01*
X127182889Y-106397095D01*
X127061754Y-106373000D01*
X126938246Y-106373000D01*
X126817111Y-106397095D01*
X126703004Y-106444360D01*
X126600311Y-106512977D01*
X126540288Y-106573000D01*
X125270967Y-106573000D01*
X125250000Y-106570935D01*
X125229033Y-106573000D01*
X125229022Y-106573000D01*
X125166293Y-106579178D01*
X125085804Y-106603595D01*
X125051273Y-106622052D01*
X125011623Y-106643245D01*
X124962899Y-106683232D01*
X124962895Y-106683236D01*
X124946605Y-106696605D01*
X124933236Y-106712895D01*
X124273132Y-107373000D01*
X118176869Y-107373000D01*
X113327020Y-102523152D01*
X113327020Y-100182874D01*
X113422275Y-100328119D01*
X113586052Y-100494734D01*
X113779187Y-100626196D01*
X113994258Y-100717454D01*
X114223000Y-100765000D01*
X114773000Y-100765000D01*
X114773000Y-99707000D01*
X115027000Y-99707000D01*
X115027000Y-100765000D01*
X115577000Y-100765000D01*
X115805742Y-100717454D01*
X116020813Y-100626196D01*
X116213948Y-100494734D01*
X116377725Y-100328119D01*
X116505850Y-100132754D01*
X116593399Y-99916147D01*
X116593803Y-99889744D01*
X116468361Y-99707000D01*
X115027000Y-99707000D01*
X114773000Y-99707000D01*
X114753000Y-99707000D01*
X114753000Y-99453000D01*
X114773000Y-99453000D01*
X114773000Y-98395000D01*
X115027000Y-98395000D01*
X115027000Y-99453000D01*
X116468361Y-99453000D01*
X116593803Y-99270256D01*
X116593399Y-99243853D01*
X116505850Y-99027246D01*
X116377725Y-98831881D01*
X116213948Y-98665266D01*
X116020813Y-98533804D01*
X115805742Y-98442546D01*
X115577000Y-98395000D01*
X115027000Y-98395000D01*
X114773000Y-98395000D01*
X114223000Y-98395000D01*
X113994258Y-98442546D01*
X113779187Y-98533804D01*
X113586052Y-98665266D01*
X113422275Y-98831881D01*
X113327020Y-98977126D01*
X113327020Y-96364076D01*
X114523000Y-96364076D01*
X114523000Y-96595924D01*
X114568231Y-96823318D01*
X114656956Y-97037519D01*
X114785764Y-97230294D01*
X114949706Y-97394236D01*
X115142481Y-97523044D01*
X115356682Y-97611769D01*
X115584076Y-97657000D01*
X115815924Y-97657000D01*
X116043318Y-97611769D01*
X116257519Y-97523044D01*
X116450294Y-97394236D01*
X116614236Y-97230294D01*
X116743044Y-97037519D01*
X116831769Y-96823318D01*
X116877000Y-96595924D01*
X116877000Y-96364076D01*
X117063000Y-96364076D01*
X117063000Y-96595924D01*
X117108231Y-96823318D01*
X117196956Y-97037519D01*
X117325764Y-97230294D01*
X117489706Y-97394236D01*
X117682481Y-97523044D01*
X117896682Y-97611769D01*
X118124076Y-97657000D01*
X118355924Y-97657000D01*
X118583318Y-97611769D01*
X118797519Y-97523044D01*
X118990294Y-97394236D01*
X119154236Y-97230294D01*
X119283044Y-97037519D01*
X119371769Y-96823318D01*
X119417000Y-96595924D01*
X119417000Y-96364076D01*
X119371769Y-96136682D01*
X119283044Y-95922481D01*
X119154236Y-95729706D01*
X118990294Y-95565764D01*
X118797519Y-95436956D01*
X118583318Y-95348231D01*
X118355924Y-95303000D01*
X118124076Y-95303000D01*
X117896682Y-95348231D01*
X117682481Y-95436956D01*
X117489706Y-95565764D01*
X117325764Y-95729706D01*
X117196956Y-95922481D01*
X117108231Y-96136682D01*
X117063000Y-96364076D01*
X116877000Y-96364076D01*
X116831769Y-96136682D01*
X116743044Y-95922481D01*
X116614236Y-95729706D01*
X116450294Y-95565764D01*
X116257519Y-95436956D01*
X116043318Y-95348231D01*
X115815924Y-95303000D01*
X115584076Y-95303000D01*
X115356682Y-95348231D01*
X115142481Y-95436956D01*
X114949706Y-95565764D01*
X114785764Y-95729706D01*
X114656956Y-95922481D01*
X114568231Y-96136682D01*
X114523000Y-96364076D01*
X113327020Y-96364076D01*
X113327020Y-95120987D01*
X113329085Y-95100020D01*
X113327020Y-95079053D01*
X113327020Y-95079042D01*
X113320842Y-95016313D01*
X113296425Y-94935824D01*
X113279199Y-94903596D01*
X113256776Y-94861643D01*
X113216788Y-94812919D01*
X113216784Y-94812915D01*
X113203415Y-94796625D01*
X113187125Y-94783256D01*
X112110353Y-93706485D01*
X112147150Y-93617650D01*
X112189000Y-93407257D01*
X112189000Y-93192743D01*
X112147150Y-92982350D01*
X112065059Y-92784165D01*
X111945881Y-92605803D01*
X111824816Y-92484738D01*
X111885960Y-92265565D01*
X111100000Y-91479605D01*
X110314040Y-92265565D01*
X110375184Y-92484738D01*
X110254119Y-92605803D01*
X110134941Y-92784165D01*
X110052850Y-92982350D01*
X110011000Y-93192743D01*
X110011000Y-93407257D01*
X110052850Y-93617650D01*
X110134941Y-93815835D01*
X110254119Y-93994197D01*
X110405803Y-94145881D01*
X110584165Y-94265059D01*
X110668520Y-94300000D01*
X110584165Y-94334941D01*
X110405803Y-94454119D01*
X110254119Y-94605803D01*
X110134941Y-94784165D01*
X110052850Y-94982350D01*
X110011000Y-95192743D01*
X110011000Y-95407257D01*
X110052850Y-95617650D01*
X110134941Y-95815835D01*
X110254119Y-95994197D01*
X110375184Y-96115262D01*
X110314040Y-96334435D01*
X111100000Y-97120395D01*
X111114143Y-97106253D01*
X111293748Y-97285858D01*
X111279605Y-97300000D01*
X111293748Y-97314143D01*
X111114143Y-97493748D01*
X111100000Y-97479605D01*
X110314040Y-98265565D01*
X110354142Y-98409313D01*
X110194258Y-98442546D01*
X109979187Y-98533804D01*
X109786052Y-98665266D01*
X109622275Y-98831881D01*
X109494150Y-99027246D01*
X109406601Y-99243853D01*
X109406197Y-99270256D01*
X109152000Y-99270256D01*
X109152000Y-97372017D01*
X109698090Y-97372017D01*
X109739078Y-97644133D01*
X109832364Y-97903023D01*
X109894344Y-98018980D01*
X110134435Y-98085960D01*
X110920395Y-97300000D01*
X110134435Y-96514040D01*
X109894344Y-96581020D01*
X109777244Y-96830048D01*
X109710977Y-97097135D01*
X109698090Y-97372017D01*
X109152000Y-97372017D01*
X109152000Y-91372017D01*
X109698090Y-91372017D01*
X109739078Y-91644133D01*
X109832364Y-91903023D01*
X109894344Y-92018980D01*
X110134435Y-92085960D01*
X110920395Y-91300000D01*
X111279605Y-91300000D01*
X112065565Y-92085960D01*
X112305656Y-92018980D01*
X112422756Y-91769952D01*
X112489023Y-91502865D01*
X112501910Y-91227983D01*
X112460922Y-90955867D01*
X112367636Y-90696977D01*
X112305656Y-90581020D01*
X112065565Y-90514040D01*
X111279605Y-91300000D01*
X110920395Y-91300000D01*
X110134435Y-90514040D01*
X109894344Y-90581020D01*
X109777244Y-90830048D01*
X109710977Y-91097135D01*
X109698090Y-91372017D01*
X109152000Y-91372017D01*
X109152000Y-90265565D01*
X110314040Y-90265565D01*
X110323647Y-90300000D01*
X110314040Y-90334435D01*
X110340687Y-90361082D01*
X110381020Y-90505656D01*
X110577786Y-90598181D01*
X111100000Y-91120395D01*
X111624445Y-90595950D01*
X111703023Y-90567636D01*
X111818980Y-90505656D01*
X111820557Y-90500000D01*
X113470935Y-90500000D01*
X113473000Y-90520967D01*
X113473001Y-92119023D01*
X113470935Y-92140000D01*
X113479179Y-92223706D01*
X113503596Y-92304196D01*
X113543245Y-92378376D01*
X113583232Y-92427100D01*
X113583237Y-92427105D01*
X113596606Y-92443395D01*
X113612896Y-92456764D01*
X114622294Y-93466163D01*
X114568231Y-93596682D01*
X114523000Y-93824076D01*
X114523000Y-94055924D01*
X114568231Y-94283318D01*
X114656956Y-94497519D01*
X114785764Y-94690294D01*
X114949706Y-94854236D01*
X115142481Y-94983044D01*
X115356682Y-95071769D01*
X115584076Y-95117000D01*
X115815924Y-95117000D01*
X116043318Y-95071769D01*
X116257519Y-94983044D01*
X116450294Y-94854236D01*
X116614236Y-94690294D01*
X116743044Y-94497519D01*
X116831769Y-94283318D01*
X116877000Y-94055924D01*
X116877000Y-93824076D01*
X117063000Y-93824076D01*
X117063000Y-94055924D01*
X117108231Y-94283318D01*
X117196956Y-94497519D01*
X117325764Y-94690294D01*
X117489706Y-94854236D01*
X117682481Y-94983044D01*
X117896682Y-95071769D01*
X118124076Y-95117000D01*
X118355924Y-95117000D01*
X118583318Y-95071769D01*
X118797519Y-94983044D01*
X118990294Y-94854236D01*
X119154236Y-94690294D01*
X119283044Y-94497519D01*
X119371769Y-94283318D01*
X119417000Y-94055924D01*
X119417000Y-93824076D01*
X119371769Y-93596682D01*
X119283044Y-93382481D01*
X119154236Y-93189706D01*
X118990294Y-93025764D01*
X118797519Y-92896956D01*
X118583318Y-92808231D01*
X118355924Y-92763000D01*
X118124076Y-92763000D01*
X117896682Y-92808231D01*
X117682481Y-92896956D01*
X117489706Y-93025764D01*
X117325764Y-93189706D01*
X117196956Y-93382481D01*
X117108231Y-93596682D01*
X117063000Y-93824076D01*
X116877000Y-93824076D01*
X116831769Y-93596682D01*
X116743044Y-93382481D01*
X116614236Y-93189706D01*
X116450294Y-93025764D01*
X116257519Y-92896956D01*
X116231890Y-92886340D01*
X116550000Y-92888072D01*
X116674482Y-92875812D01*
X116794180Y-92839502D01*
X116904494Y-92780537D01*
X117001185Y-92701185D01*
X117080537Y-92604494D01*
X117139502Y-92494180D01*
X117175812Y-92374482D01*
X117188072Y-92250000D01*
X117186340Y-91931890D01*
X117196956Y-91957519D01*
X117325764Y-92150294D01*
X117489706Y-92314236D01*
X117682481Y-92443044D01*
X117896682Y-92531769D01*
X118124076Y-92577000D01*
X118355924Y-92577000D01*
X118583318Y-92531769D01*
X118797519Y-92443044D01*
X118990294Y-92314236D01*
X119154236Y-92150294D01*
X119283044Y-91957519D01*
X119371769Y-91743318D01*
X119417000Y-91515924D01*
X119417000Y-91284076D01*
X119371769Y-91056682D01*
X119283044Y-90842481D01*
X119154236Y-90649706D01*
X118990294Y-90485764D01*
X118797519Y-90356956D01*
X118583318Y-90268231D01*
X118355924Y-90223000D01*
X118124076Y-90223000D01*
X117896682Y-90268231D01*
X117682481Y-90356956D01*
X117489706Y-90485764D01*
X117325764Y-90649706D01*
X117196956Y-90842481D01*
X117186340Y-90868110D01*
X117188072Y-90550000D01*
X117175812Y-90425518D01*
X117139502Y-90305820D01*
X117080537Y-90195506D01*
X117001185Y-90098815D01*
X116904494Y-90019463D01*
X116794180Y-89960498D01*
X116674482Y-89924188D01*
X116550000Y-89911928D01*
X115985750Y-89915000D01*
X115827000Y-90073750D01*
X115827000Y-91273000D01*
X115847000Y-91273000D01*
X115847000Y-91527000D01*
X115827000Y-91527000D01*
X115827000Y-91547000D01*
X115573000Y-91547000D01*
X115573000Y-91527000D01*
X115553000Y-91527000D01*
X115553000Y-91273000D01*
X115573000Y-91273000D01*
X115573000Y-90073750D01*
X115414250Y-89915000D01*
X115046768Y-89912999D01*
X115057209Y-89878582D01*
X115150000Y-89878582D01*
X115214103Y-89872268D01*
X115275743Y-89853570D01*
X115332550Y-89823206D01*
X115382343Y-89782343D01*
X115423206Y-89732550D01*
X115453570Y-89675743D01*
X115472268Y-89614103D01*
X115478582Y-89550000D01*
X115478582Y-88575286D01*
X116287106Y-87766763D01*
X116303396Y-87753394D01*
X116316765Y-87737104D01*
X116316769Y-87737100D01*
X116356757Y-87688376D01*
X116396405Y-87614196D01*
X116396406Y-87614195D01*
X116420823Y-87533706D01*
X116427001Y-87470977D01*
X116427001Y-87470966D01*
X116429066Y-87449999D01*
X116427001Y-87429032D01*
X116427001Y-85924266D01*
X116454758Y-85927000D01*
X116454769Y-85927000D01*
X116475736Y-85929065D01*
X116496703Y-85927000D01*
X118377732Y-85927000D01*
X121037861Y-88587131D01*
X121051225Y-88603415D01*
X121067509Y-88616779D01*
X121067518Y-88616788D01*
X121116243Y-88656775D01*
X121146599Y-88673000D01*
X121190424Y-88696425D01*
X121270913Y-88720842D01*
X121333642Y-88727020D01*
X121333654Y-88727020D01*
X121354619Y-88729085D01*
X121375584Y-88727020D01*
X124209150Y-88727020D01*
X128909239Y-93427111D01*
X128922603Y-93443395D01*
X128938887Y-93456759D01*
X128938896Y-93456768D01*
X128987621Y-93496755D01*
X129015769Y-93511800D01*
X129061802Y-93536405D01*
X129142291Y-93560822D01*
X129205020Y-93567000D01*
X129205032Y-93567000D01*
X129225997Y-93569065D01*
X129246962Y-93567000D01*
X130802893Y-93567000D01*
X130856956Y-93697519D01*
X130985764Y-93890294D01*
X131149706Y-94054236D01*
X131342481Y-94183044D01*
X131556682Y-94271769D01*
X131784076Y-94317000D01*
X132015924Y-94317000D01*
X132226253Y-94275163D01*
X129029275Y-97472142D01*
X129011078Y-97487076D01*
X128951470Y-97559708D01*
X128907177Y-97642575D01*
X128879902Y-97732490D01*
X128872999Y-97802575D01*
X128872999Y-97802582D01*
X128870693Y-97825997D01*
X128872999Y-97849412D01*
X128872999Y-98269131D01*
X128316768Y-97712900D01*
X128303395Y-97696605D01*
X128238376Y-97643245D01*
X128164196Y-97603595D01*
X128083707Y-97579178D01*
X128020978Y-97573000D01*
X128020967Y-97573000D01*
X128000000Y-97570935D01*
X127979033Y-97573000D01*
X127159712Y-97573000D01*
X127099689Y-97512977D01*
X126996996Y-97444360D01*
X126882889Y-97397095D01*
X126761754Y-97373000D01*
X126638246Y-97373000D01*
X126517111Y-97397095D01*
X126403004Y-97444360D01*
X126300311Y-97512977D01*
X126212977Y-97600311D01*
X126144360Y-97703004D01*
X126097095Y-97817111D01*
X126073000Y-97938246D01*
X126073000Y-98061754D01*
X126097095Y-98182889D01*
X126144360Y-98296996D01*
X126212977Y-98399689D01*
X126300311Y-98487023D01*
X126403004Y-98555640D01*
X126517111Y-98602905D01*
X126638246Y-98627000D01*
X126761754Y-98627000D01*
X126882889Y-98602905D01*
X126996996Y-98555640D01*
X127099689Y-98487023D01*
X127159712Y-98427000D01*
X127823132Y-98427000D01*
X128873000Y-99476869D01*
X128872999Y-101722683D01*
X124377000Y-97226685D01*
X124377000Y-94123415D01*
X124379306Y-94100000D01*
X124377000Y-94076585D01*
X124377000Y-94076577D01*
X124370097Y-94006492D01*
X124342822Y-93916577D01*
X124298529Y-93833711D01*
X124238921Y-93761079D01*
X124220729Y-93746150D01*
X120266882Y-89792303D01*
X120254826Y-89731695D01*
X120211331Y-89626688D01*
X120148185Y-89532184D01*
X120067816Y-89451815D01*
X119973312Y-89388669D01*
X119868305Y-89345174D01*
X119756830Y-89323000D01*
X119643170Y-89323000D01*
X119531695Y-89345174D01*
X119426688Y-89388669D01*
X119332184Y-89451815D01*
X119251815Y-89532184D01*
X119188669Y-89626688D01*
X119145174Y-89731695D01*
X119123000Y-89843170D01*
X119123000Y-89956830D01*
X119145174Y-90068305D01*
X119188669Y-90173312D01*
X119251815Y-90267816D01*
X119332184Y-90348185D01*
X119426688Y-90411331D01*
X119531695Y-90454826D01*
X119592303Y-90466882D01*
X123423001Y-94297581D01*
X123423000Y-97400849D01*
X123420694Y-97424264D01*
X123423000Y-97447679D01*
X123423000Y-97447686D01*
X123429903Y-97517771D01*
X123457178Y-97607686D01*
X123501471Y-97690553D01*
X123561079Y-97763185D01*
X123579276Y-97778119D01*
X128621886Y-102820730D01*
X128636815Y-102838921D01*
X128655006Y-102853850D01*
X128655008Y-102853852D01*
X128667637Y-102864216D01*
X128709447Y-102898529D01*
X128792313Y-102942822D01*
X128882228Y-102970097D01*
X128952313Y-102977000D01*
X128952321Y-102977000D01*
X128975736Y-102979306D01*
X128991083Y-102977795D01*
X129000311Y-102987023D01*
X129103004Y-103055640D01*
X129217111Y-103102905D01*
X129338246Y-103127000D01*
X129461754Y-103127000D01*
X129582889Y-103102905D01*
X129652594Y-103074032D01*
X129683232Y-103111364D01*
X129696605Y-103127659D01*
X129712900Y-103141032D01*
X130458977Y-103887111D01*
X130472341Y-103903395D01*
X130488625Y-103916759D01*
X130488634Y-103916768D01*
X130537359Y-103956755D01*
X130577009Y-103977948D01*
X130611540Y-103996405D01*
X130692029Y-104020822D01*
X130738707Y-104025419D01*
X130800311Y-104087023D01*
X130903004Y-104155640D01*
X131017111Y-104202905D01*
X131138246Y-104227000D01*
X131261754Y-104227000D01*
X131382889Y-104202905D01*
X131496996Y-104155640D01*
X131599689Y-104087023D01*
X131687023Y-103999689D01*
X131755640Y-103896996D01*
X131791780Y-103809747D01*
X131828292Y-103820823D01*
X131891021Y-103827001D01*
X131891032Y-103827001D01*
X131911999Y-103829066D01*
X131932966Y-103827001D01*
X132467034Y-103827001D01*
X132488001Y-103829066D01*
X132508968Y-103827001D01*
X132508979Y-103827001D01*
X132571708Y-103820823D01*
X132652197Y-103796406D01*
X132726377Y-103756756D01*
X132791396Y-103703396D01*
X132804769Y-103687101D01*
X133287105Y-103204766D01*
X133303394Y-103191398D01*
X133316763Y-103175108D01*
X133316767Y-103175104D01*
X133356755Y-103126379D01*
X133396404Y-103052200D01*
X133413120Y-102997095D01*
X133420821Y-102971710D01*
X133426999Y-102908981D01*
X133426999Y-102908970D01*
X133429064Y-102888003D01*
X133426999Y-102867036D01*
X133426999Y-97420966D01*
X133429064Y-97399999D01*
X133426999Y-97379032D01*
X133426999Y-97379021D01*
X133420821Y-97316292D01*
X133396404Y-97235803D01*
X133396404Y-97235802D01*
X133356755Y-97161622D01*
X133327000Y-97125367D01*
X133327000Y-97038246D01*
X133302905Y-96917111D01*
X133255640Y-96803004D01*
X133187023Y-96700311D01*
X133099689Y-96612977D01*
X132996996Y-96544360D01*
X132882889Y-96497095D01*
X132761754Y-96473000D01*
X132638246Y-96473000D01*
X132517111Y-96497095D01*
X132403004Y-96544360D01*
X132300311Y-96612977D01*
X132212977Y-96700311D01*
X132144360Y-96803004D01*
X132097095Y-96917111D01*
X132073000Y-97038246D01*
X132073000Y-97161754D01*
X132097095Y-97282889D01*
X132144360Y-97396996D01*
X132212977Y-97499689D01*
X132300311Y-97587023D01*
X132403004Y-97655640D01*
X132517111Y-97702905D01*
X132573000Y-97714022D01*
X132573000Y-99692014D01*
X132556756Y-99661623D01*
X132516768Y-99612899D01*
X132516764Y-99612895D01*
X132503395Y-99596605D01*
X132487105Y-99583236D01*
X130927000Y-98023132D01*
X130927000Y-97938246D01*
X130902905Y-97817111D01*
X130855640Y-97703004D01*
X130787023Y-97600311D01*
X130699689Y-97512977D01*
X130596996Y-97444360D01*
X130482889Y-97397095D01*
X130458359Y-97392216D01*
X136791850Y-91058726D01*
X136791855Y-91058720D01*
X136820724Y-91029851D01*
X136838921Y-91014917D01*
X136898529Y-90942285D01*
X136942822Y-90859419D01*
X136970097Y-90769504D01*
X136977000Y-90699418D01*
X136977000Y-90699412D01*
X136979306Y-90675997D01*
X136977000Y-90652582D01*
X136977000Y-89024692D01*
X137011331Y-88973312D01*
X137054826Y-88868305D01*
X137077000Y-88756830D01*
X137077000Y-88643170D01*
X137054826Y-88531695D01*
X137011331Y-88426688D01*
X136948185Y-88332184D01*
X136867816Y-88251815D01*
X136773312Y-88188669D01*
X136668305Y-88145174D01*
X136556830Y-88123000D01*
X136443170Y-88123000D01*
X136331695Y-88145174D01*
X136226688Y-88188669D01*
X136132184Y-88251815D01*
X136051815Y-88332184D01*
X135988669Y-88426688D01*
X135945174Y-88531695D01*
X135923000Y-88643170D01*
X135923000Y-88756830D01*
X135945174Y-88868305D01*
X135988669Y-88973312D01*
X136023000Y-89024692D01*
X136023001Y-90276568D01*
X136023000Y-90276578D01*
X136023000Y-90478416D01*
X133035163Y-93466253D01*
X133077000Y-93255924D01*
X133077000Y-93024076D01*
X133031769Y-92796682D01*
X132943044Y-92582481D01*
X132814236Y-92389706D01*
X132650294Y-92225764D01*
X132457519Y-92096956D01*
X132243318Y-92008231D01*
X132015924Y-91963000D01*
X131784076Y-91963000D01*
X131556682Y-92008231D01*
X131342481Y-92096956D01*
X131149706Y-92225764D01*
X130985764Y-92389706D01*
X130856956Y-92582481D01*
X130802893Y-92713000D01*
X129402868Y-92713000D01*
X127240028Y-90550161D01*
X127317816Y-90498185D01*
X127398185Y-90417816D01*
X127461331Y-90323312D01*
X127504826Y-90218305D01*
X127527000Y-90106830D01*
X127527000Y-89993170D01*
X127504826Y-89881695D01*
X127461331Y-89776688D01*
X127398185Y-89682184D01*
X127317816Y-89601815D01*
X127223312Y-89538669D01*
X127118305Y-89495174D01*
X127006830Y-89473000D01*
X126976869Y-89473000D01*
X125430868Y-87927000D01*
X128623132Y-87927000D01*
X130721418Y-90025287D01*
X130721418Y-91450000D01*
X130727732Y-91514103D01*
X130746430Y-91575743D01*
X130776794Y-91632550D01*
X130817657Y-91682343D01*
X130867450Y-91723206D01*
X130924257Y-91753570D01*
X130985897Y-91772268D01*
X131050000Y-91778582D01*
X132750000Y-91778582D01*
X132814103Y-91772268D01*
X132875743Y-91753570D01*
X132932550Y-91723206D01*
X132982343Y-91682343D01*
X133023206Y-91632550D01*
X133053570Y-91575743D01*
X133072268Y-91514103D01*
X133078582Y-91450000D01*
X133078582Y-89750000D01*
X133072268Y-89685897D01*
X133053570Y-89624257D01*
X133023206Y-89567450D01*
X132982343Y-89517657D01*
X132932550Y-89476794D01*
X132875743Y-89446430D01*
X132814103Y-89427732D01*
X132750000Y-89421418D01*
X131325287Y-89421418D01*
X129116766Y-87212898D01*
X129103395Y-87196605D01*
X129038376Y-87143245D01*
X128964196Y-87103595D01*
X128883707Y-87079178D01*
X128820978Y-87073000D01*
X128820967Y-87073000D01*
X128800000Y-87070935D01*
X128779033Y-87073000D01*
X121862867Y-87073000D01*
X121580015Y-86790148D01*
X121625000Y-86760089D01*
X121701688Y-86811331D01*
X121806695Y-86854826D01*
X121918170Y-86877000D01*
X122031830Y-86877000D01*
X122143305Y-86854826D01*
X122248312Y-86811331D01*
X122325000Y-86760089D01*
X122401688Y-86811331D01*
X122506695Y-86854826D01*
X122618170Y-86877000D01*
X122731830Y-86877000D01*
X122843305Y-86854826D01*
X122948312Y-86811331D01*
X123037500Y-86751737D01*
X123126688Y-86811331D01*
X123231695Y-86854826D01*
X123343170Y-86877000D01*
X123456830Y-86877000D01*
X123568305Y-86854826D01*
X123673312Y-86811331D01*
X123767816Y-86748185D01*
X123848185Y-86667816D01*
X123911331Y-86573312D01*
X123954826Y-86468305D01*
X123977000Y-86356830D01*
X123977000Y-86243170D01*
X123974295Y-86229573D01*
X126976869Y-83227000D01*
X129479033Y-83227000D01*
X129500000Y-83229065D01*
X129520967Y-83227000D01*
X129520978Y-83227000D01*
X129583707Y-83220822D01*
X129664196Y-83196405D01*
X129738376Y-83156755D01*
X129803395Y-83103395D01*
X129816768Y-83087100D01*
X135187111Y-77716759D01*
X135203395Y-77703395D01*
X135216759Y-77687111D01*
X135216768Y-77687102D01*
X135256755Y-77638377D01*
X135296404Y-77564197D01*
X135296405Y-77564196D01*
X135320822Y-77483707D01*
X135327000Y-77420978D01*
X135327000Y-77420966D01*
X135329065Y-77400001D01*
X135327000Y-77379036D01*
X135327000Y-75289001D01*
X135348185Y-75267816D01*
X135411331Y-75173312D01*
X135454826Y-75068305D01*
X135477000Y-74956830D01*
X135477000Y-74843170D01*
X135454826Y-74731695D01*
X135411331Y-74626688D01*
X135348185Y-74532184D01*
X135267816Y-74451815D01*
X135173312Y-74388669D01*
X135068305Y-74345174D01*
X134956830Y-74323000D01*
X134843170Y-74323000D01*
X134731695Y-74345174D01*
X134626688Y-74388669D01*
X134532184Y-74451815D01*
X134451815Y-74532184D01*
X134388669Y-74626688D01*
X134345174Y-74731695D01*
X134323000Y-74843170D01*
X134323000Y-74956830D01*
X134345174Y-75068305D01*
X134388669Y-75173312D01*
X134451815Y-75267816D01*
X134473001Y-75289002D01*
X134473000Y-77093024D01*
X134473000Y-77223130D01*
X129573012Y-82123120D01*
X129554826Y-82031695D01*
X129511331Y-81926688D01*
X129451737Y-81837500D01*
X129511331Y-81748312D01*
X129554826Y-81643305D01*
X129577000Y-81531830D01*
X129577000Y-81418170D01*
X129554826Y-81306695D01*
X129511331Y-81201688D01*
X129460089Y-81125000D01*
X129511331Y-81048312D01*
X129554826Y-80943305D01*
X129577000Y-80831830D01*
X129577000Y-80718170D01*
X129554826Y-80606695D01*
X129511331Y-80501688D01*
X129448185Y-80407184D01*
X129367816Y-80326815D01*
X129273312Y-80263669D01*
X129168305Y-80220174D01*
X129056830Y-80198000D01*
X128943170Y-80198000D01*
X128831695Y-80220174D01*
X128726688Y-80263669D01*
X128632184Y-80326815D01*
X128610999Y-80348000D01*
X126592415Y-80348000D01*
X126571448Y-80345935D01*
X126550481Y-80348000D01*
X126550470Y-80348000D01*
X126487741Y-80354178D01*
X126407252Y-80378595D01*
X126388405Y-80388669D01*
X126333072Y-80418244D01*
X126299132Y-80446099D01*
X126268053Y-80471605D01*
X126254684Y-80487895D01*
X126111128Y-80631452D01*
X126111123Y-80631456D01*
X121012900Y-85729679D01*
X120996605Y-85743052D01*
X120983233Y-85759346D01*
X120983232Y-85759347D01*
X120943245Y-85808071D01*
X120926908Y-85838636D01*
X120907184Y-85851815D01*
X120826815Y-85932184D01*
X120784852Y-85994986D01*
X120359771Y-85569905D01*
X120359767Y-85569900D01*
X120127000Y-85337134D01*
X120127000Y-81289001D01*
X120148185Y-81267816D01*
X120211331Y-81173312D01*
X120254826Y-81068305D01*
X120277000Y-80956830D01*
X120277000Y-80843170D01*
X120254826Y-80731695D01*
X120211331Y-80626688D01*
X120148185Y-80532184D01*
X120067816Y-80451815D01*
X119973312Y-80388669D01*
X119868305Y-80345174D01*
X119756830Y-80323000D01*
X119643170Y-80323000D01*
X119531695Y-80345174D01*
X119426688Y-80388669D01*
X119332184Y-80451815D01*
X119251815Y-80532184D01*
X119188669Y-80626688D01*
X119145174Y-80731695D01*
X119123000Y-80843170D01*
X119123000Y-80956830D01*
X119145174Y-81068305D01*
X119188669Y-81173312D01*
X119251815Y-81267816D01*
X119273000Y-81289001D01*
X119273001Y-85048834D01*
X118814500Y-84590333D01*
X118814500Y-84555670D01*
X118792326Y-84444195D01*
X118748831Y-84339188D01*
X118685685Y-84244684D01*
X118605316Y-84164315D01*
X118510812Y-84101169D01*
X118405805Y-84057674D01*
X118294330Y-84035500D01*
X118180670Y-84035500D01*
X118069195Y-84057674D01*
X117964188Y-84101169D01*
X117869684Y-84164315D01*
X117789315Y-84244684D01*
X117726169Y-84339188D01*
X117682674Y-84444195D01*
X117660500Y-84555670D01*
X117660500Y-84669330D01*
X117682674Y-84780805D01*
X117726169Y-84885812D01*
X117789315Y-84980316D01*
X117869684Y-85060685D01*
X117888115Y-85073000D01*
X116652605Y-85073000D01*
X116427001Y-84847397D01*
X116427001Y-71176867D01*
X118276870Y-69327000D01*
X119310999Y-69327000D01*
X119332184Y-69348185D01*
X119426688Y-69411331D01*
X119531695Y-69454826D01*
X119643170Y-69477000D01*
X119756830Y-69477000D01*
X119868305Y-69454826D01*
X119973312Y-69411331D01*
X120067816Y-69348185D01*
X120148185Y-69267816D01*
X120211331Y-69173312D01*
X120254826Y-69068305D01*
X120277000Y-68956830D01*
X120277000Y-68843170D01*
X120254826Y-68731695D01*
X120211331Y-68626688D01*
X120148185Y-68532184D01*
X120067816Y-68451815D01*
X119973312Y-68388669D01*
X119868305Y-68345174D01*
X119756830Y-68323000D01*
X119643170Y-68323000D01*
X119531695Y-68345174D01*
X119426688Y-68388669D01*
X119332184Y-68451815D01*
X119310999Y-68473000D01*
X118120967Y-68473000D01*
X118100000Y-68470935D01*
X118079033Y-68473000D01*
X118079022Y-68473000D01*
X118016293Y-68479178D01*
X117935804Y-68503595D01*
X117903363Y-68520935D01*
X117861624Y-68543244D01*
X117814434Y-68581973D01*
X117796605Y-68596605D01*
X117783232Y-68612900D01*
X117762909Y-68633223D01*
X117762898Y-68633232D01*
X115712896Y-70683236D01*
X115696607Y-70696604D01*
X115683238Y-70712894D01*
X115683233Y-70712899D01*
X115643246Y-70761623D01*
X115603597Y-70835803D01*
X115579180Y-70916293D01*
X115570936Y-70999999D01*
X115573002Y-71020976D01*
X115573001Y-85003287D01*
X115573001Y-85003298D01*
X115570936Y-85024265D01*
X115573001Y-85045232D01*
X115573002Y-87273129D01*
X115124713Y-87721418D01*
X114394387Y-87721418D01*
X114380537Y-87695506D01*
X114301185Y-87598815D01*
X114204494Y-87519463D01*
X114094180Y-87460498D01*
X113974482Y-87424188D01*
X113850000Y-87411928D01*
X113635750Y-87415000D01*
X113477000Y-87573750D01*
X113477000Y-88673000D01*
X113497000Y-88673000D01*
X113497000Y-88927000D01*
X113477000Y-88927000D01*
X113477000Y-90026250D01*
X113623441Y-90172691D01*
X113612900Y-90183232D01*
X113596605Y-90196605D01*
X113583233Y-90212899D01*
X113583232Y-90212900D01*
X113543245Y-90261624D01*
X113534000Y-90278921D01*
X113503595Y-90335805D01*
X113479178Y-90416294D01*
X113473000Y-90479023D01*
X113473000Y-90479033D01*
X113470935Y-90500000D01*
X111820557Y-90500000D01*
X111859313Y-90361082D01*
X111885960Y-90334435D01*
X111876353Y-90300000D01*
X111885960Y-90265565D01*
X111859313Y-90238918D01*
X111818980Y-90094344D01*
X111622214Y-90001819D01*
X111100000Y-89479605D01*
X110575555Y-90004050D01*
X110496977Y-90032364D01*
X110381020Y-90094344D01*
X110340687Y-90238918D01*
X110314040Y-90265565D01*
X109152000Y-90265565D01*
X109152000Y-89372017D01*
X109698090Y-89372017D01*
X109739078Y-89644133D01*
X109832364Y-89903023D01*
X109894344Y-90018980D01*
X110134435Y-90085960D01*
X110920395Y-89300000D01*
X111279605Y-89300000D01*
X112065565Y-90085960D01*
X112305656Y-90018980D01*
X112344910Y-89935501D01*
X112398815Y-90001185D01*
X112495506Y-90080537D01*
X112605820Y-90139502D01*
X112725518Y-90175812D01*
X112850000Y-90188072D01*
X113064250Y-90185000D01*
X113223000Y-90026250D01*
X113223000Y-88927000D01*
X113203000Y-88927000D01*
X113203000Y-88673000D01*
X113223000Y-88673000D01*
X113223000Y-87573750D01*
X113064250Y-87415000D01*
X112850000Y-87411928D01*
X112725518Y-87424188D01*
X112605820Y-87460498D01*
X112495506Y-87519463D01*
X112398815Y-87598815D01*
X112319463Y-87695506D01*
X112260498Y-87805820D01*
X112224188Y-87925518D01*
X112211928Y-88050000D01*
X112215000Y-88514250D01*
X112272528Y-88571778D01*
X112065565Y-88514040D01*
X111279605Y-89300000D01*
X110920395Y-89300000D01*
X110134435Y-88514040D01*
X109894344Y-88581020D01*
X109777244Y-88830048D01*
X109710977Y-89097135D01*
X109698090Y-89372017D01*
X109152000Y-89372017D01*
X109152000Y-88334435D01*
X110314040Y-88334435D01*
X111100000Y-89120395D01*
X111885960Y-88334435D01*
X111818980Y-88094344D01*
X111569952Y-87977244D01*
X111302865Y-87910977D01*
X111027983Y-87898090D01*
X110755867Y-87939078D01*
X110496977Y-88032364D01*
X110381020Y-88094344D01*
X110314040Y-88334435D01*
X109152000Y-88334435D01*
X109152000Y-74200000D01*
X109470694Y-74200000D01*
X109473001Y-74223425D01*
X109473000Y-79952587D01*
X109470694Y-79976002D01*
X109473000Y-79999417D01*
X109473000Y-79999424D01*
X109479903Y-80069509D01*
X109507178Y-80159424D01*
X109551471Y-80242291D01*
X109611079Y-80314923D01*
X109629276Y-80329857D01*
X110830146Y-81530728D01*
X110845078Y-81548922D01*
X110917710Y-81608530D01*
X110995409Y-81650061D01*
X110845764Y-81799706D01*
X110716956Y-81992481D01*
X110628231Y-82206682D01*
X110583000Y-82434076D01*
X110583000Y-82665924D01*
X110628231Y-82893318D01*
X110716956Y-83107519D01*
X110845764Y-83300294D01*
X111009706Y-83464236D01*
X111202481Y-83593044D01*
X111416682Y-83681769D01*
X111644076Y-83727000D01*
X111875924Y-83727000D01*
X111973001Y-83707690D01*
X111973000Y-85021418D01*
X111200000Y-85021418D01*
X111136234Y-85027665D01*
X111074575Y-85046298D01*
X111017736Y-85076603D01*
X110967901Y-85117415D01*
X110926985Y-85167164D01*
X110896562Y-85223940D01*
X110877799Y-85285560D01*
X110871418Y-85349656D01*
X110877665Y-85413766D01*
X110896298Y-85475425D01*
X110926603Y-85532264D01*
X111305094Y-86100000D01*
X110926603Y-86667736D01*
X110896430Y-86724257D01*
X110877732Y-86785897D01*
X110871418Y-86850000D01*
X110877732Y-86914103D01*
X110896430Y-86975743D01*
X110926794Y-87032550D01*
X110967657Y-87082343D01*
X111017450Y-87123206D01*
X111074257Y-87153570D01*
X111135897Y-87172268D01*
X111200000Y-87178582D01*
X113600000Y-87178582D01*
X113663766Y-87172335D01*
X113725425Y-87153702D01*
X113749995Y-87140602D01*
X113774257Y-87153570D01*
X113835897Y-87172268D01*
X113900000Y-87178582D01*
X114900000Y-87178582D01*
X114964103Y-87172268D01*
X115025743Y-87153570D01*
X115082550Y-87123206D01*
X115132343Y-87082343D01*
X115173206Y-87032550D01*
X115203570Y-86975743D01*
X115222268Y-86914103D01*
X115228582Y-86850000D01*
X115228582Y-85350000D01*
X115222268Y-85285897D01*
X115203570Y-85224257D01*
X115173206Y-85167450D01*
X115132343Y-85117657D01*
X115082550Y-85076794D01*
X115025743Y-85046430D01*
X114964103Y-85027732D01*
X114900000Y-85021418D01*
X114877000Y-85021418D01*
X114877000Y-83437413D01*
X114879306Y-83413998D01*
X114877000Y-83390583D01*
X114877000Y-83390575D01*
X114870097Y-83320490D01*
X114842822Y-83230575D01*
X114798529Y-83147709D01*
X114738921Y-83075077D01*
X114720729Y-83060147D01*
X114477000Y-82816418D01*
X114477000Y-82743170D01*
X114454826Y-82631695D01*
X114411331Y-82526688D01*
X114348185Y-82432184D01*
X114267816Y-82351815D01*
X114173312Y-82288669D01*
X114068305Y-82245174D01*
X113956830Y-82223000D01*
X113883582Y-82223000D01*
X112549858Y-80889277D01*
X112547782Y-80886748D01*
X112674236Y-80760294D01*
X112803044Y-80567519D01*
X112891769Y-80353318D01*
X112937000Y-80125924D01*
X112937000Y-79894076D01*
X112891769Y-79666682D01*
X112803044Y-79452481D01*
X112674236Y-79259706D01*
X112510294Y-79095764D01*
X112317519Y-78966956D01*
X112103318Y-78878231D01*
X111875924Y-78833000D01*
X111644076Y-78833000D01*
X111416682Y-78878231D01*
X111202481Y-78966956D01*
X111009706Y-79095764D01*
X110845764Y-79259706D01*
X110716956Y-79452481D01*
X110628231Y-79666682D01*
X110583000Y-79894076D01*
X110583000Y-79934423D01*
X110427000Y-79778423D01*
X110427000Y-75568098D01*
X110488359Y-75696920D01*
X110662412Y-75930269D01*
X110878645Y-76125178D01*
X111128748Y-76274157D01*
X111367179Y-76358736D01*
X111202481Y-76426956D01*
X111009706Y-76555764D01*
X110845764Y-76719706D01*
X110716956Y-76912481D01*
X110628231Y-77126682D01*
X110583000Y-77354076D01*
X110583000Y-77585924D01*
X110628231Y-77813318D01*
X110716956Y-78027519D01*
X110845764Y-78220294D01*
X111009706Y-78384236D01*
X111202481Y-78513044D01*
X111416682Y-78601769D01*
X111644076Y-78647000D01*
X111875924Y-78647000D01*
X112103318Y-78601769D01*
X112317519Y-78513044D01*
X112510294Y-78384236D01*
X112674236Y-78220294D01*
X112803044Y-78027519D01*
X112891769Y-77813318D01*
X112937000Y-77585924D01*
X112937000Y-77354076D01*
X112891769Y-77126682D01*
X112803044Y-76912481D01*
X112674236Y-76719706D01*
X112510294Y-76555764D01*
X112317519Y-76426956D01*
X112152821Y-76358736D01*
X112391252Y-76274157D01*
X112641355Y-76125178D01*
X112857588Y-75930269D01*
X113031641Y-75696920D01*
X113156825Y-75434099D01*
X113201476Y-75286890D01*
X113080155Y-75057000D01*
X111887000Y-75057000D01*
X111887000Y-75077000D01*
X111633000Y-75077000D01*
X111633000Y-75057000D01*
X111613000Y-75057000D01*
X111613000Y-74803000D01*
X111633000Y-74803000D01*
X111633000Y-74783000D01*
X111887000Y-74783000D01*
X111887000Y-74803000D01*
X113080155Y-74803000D01*
X113201476Y-74573110D01*
X113156825Y-74425901D01*
X113031641Y-74163080D01*
X112857588Y-73929731D01*
X112641355Y-73734822D01*
X112391252Y-73585843D01*
X112342592Y-73568582D01*
X112610000Y-73568582D01*
X112674103Y-73562268D01*
X112735743Y-73543570D01*
X112792550Y-73513206D01*
X112842343Y-73472343D01*
X112883206Y-73422550D01*
X112913570Y-73365743D01*
X112932268Y-73304103D01*
X112938582Y-73240000D01*
X112938582Y-71540000D01*
X112932268Y-71475897D01*
X112913570Y-71414257D01*
X112883206Y-71357450D01*
X112842343Y-71307657D01*
X112792550Y-71266794D01*
X112735743Y-71236430D01*
X112674103Y-71217732D01*
X112610000Y-71211418D01*
X110910000Y-71211418D01*
X110845897Y-71217732D01*
X110784257Y-71236430D01*
X110727450Y-71266794D01*
X110677657Y-71307657D01*
X110636794Y-71357450D01*
X110606430Y-71414257D01*
X110587732Y-71475897D01*
X110581418Y-71540000D01*
X110581418Y-72894002D01*
X109629271Y-73846150D01*
X109611080Y-73861079D01*
X109551472Y-73933711D01*
X109527796Y-73978005D01*
X109507178Y-74016578D01*
X109479903Y-74106493D01*
X109470694Y-74200000D01*
X109152000Y-74200000D01*
X109152000Y-67652000D01*
X139848000Y-67652000D01*
X139848001Y-95992529D01*
%TA.AperFunction,Conductor*%
D21*
G36*
X139848001Y-95992529D02*
G01*
X139848000Y-95992539D01*
X139848001Y-109348000D01*
X115828023Y-109348000D01*
X116020813Y-109266196D01*
X116213948Y-109134734D01*
X116377725Y-108968119D01*
X116505850Y-108772754D01*
X116593399Y-108556147D01*
X116593803Y-108529744D01*
X116468361Y-108347000D01*
X115027000Y-108347000D01*
X115027000Y-108367000D01*
X114773000Y-108367000D01*
X114773000Y-108347000D01*
X113331639Y-108347000D01*
X113206197Y-108529744D01*
X113206601Y-108556147D01*
X113294150Y-108772754D01*
X113422275Y-108968119D01*
X113586052Y-109134734D01*
X113779187Y-109266196D01*
X113971977Y-109348000D01*
X112028023Y-109348000D01*
X112220813Y-109266196D01*
X112413948Y-109134734D01*
X112577725Y-108968119D01*
X112705850Y-108772754D01*
X112793399Y-108556147D01*
X112793803Y-108529744D01*
X112668361Y-108347000D01*
X111227000Y-108347000D01*
X111227000Y-108367000D01*
X110973000Y-108367000D01*
X110973000Y-108347000D01*
X109531639Y-108347000D01*
X109406197Y-108529744D01*
X109406601Y-108556147D01*
X109494150Y-108772754D01*
X109622275Y-108968119D01*
X109786052Y-109134734D01*
X109979187Y-109266196D01*
X110171977Y-109348000D01*
X109152000Y-109348000D01*
X109152000Y-107910256D01*
X109406197Y-107910256D01*
X109531639Y-108093000D01*
X110973000Y-108093000D01*
X110973000Y-107035000D01*
X111227000Y-107035000D01*
X111227000Y-108093000D01*
X112668361Y-108093000D01*
X112793803Y-107910256D01*
X113206197Y-107910256D01*
X113331639Y-108093000D01*
X114773000Y-108093000D01*
X114773000Y-107035000D01*
X115027000Y-107035000D01*
X115027000Y-108093000D01*
X116468361Y-108093000D01*
X116593803Y-107910256D01*
X116593399Y-107883853D01*
X116505850Y-107667246D01*
X116377725Y-107471881D01*
X116213948Y-107305266D01*
X116020813Y-107173804D01*
X115805742Y-107082546D01*
X115577000Y-107035000D01*
X115027000Y-107035000D01*
X114773000Y-107035000D01*
X114223000Y-107035000D01*
X113994258Y-107082546D01*
X113779187Y-107173804D01*
X113586052Y-107305266D01*
X113422275Y-107471881D01*
X113294150Y-107667246D01*
X113206601Y-107883853D01*
X113206197Y-107910256D01*
X112793803Y-107910256D01*
X112793399Y-107883853D01*
X112705850Y-107667246D01*
X112577725Y-107471881D01*
X112413948Y-107305266D01*
X112220813Y-107173804D01*
X112005742Y-107082546D01*
X111777000Y-107035000D01*
X111227000Y-107035000D01*
X110973000Y-107035000D01*
X110423000Y-107035000D01*
X110194258Y-107082546D01*
X109979187Y-107173804D01*
X109786052Y-107305266D01*
X109622275Y-107471881D01*
X109494150Y-107667246D01*
X109406601Y-107883853D01*
X109406197Y-107910256D01*
X109152000Y-107910256D01*
X109152000Y-99889744D01*
X109406197Y-99889744D01*
X109406601Y-99916147D01*
X109494150Y-100132754D01*
X109622275Y-100328119D01*
X109786052Y-100494734D01*
X109979187Y-100626196D01*
X110194258Y-100717454D01*
X110423000Y-100765000D01*
X110973000Y-100765000D01*
X110973000Y-99707000D01*
X109531639Y-99707000D01*
X109406197Y-99889744D01*
X109152000Y-99889744D01*
X109152000Y-99270256D01*
X109406197Y-99270256D01*
X109531639Y-99453000D01*
X110973000Y-99453000D01*
X110973000Y-99433000D01*
X111227000Y-99433000D01*
X111227000Y-99453000D01*
X111247000Y-99453000D01*
X111247000Y-99707000D01*
X111227000Y-99707000D01*
X111227000Y-100765000D01*
X111777000Y-100765000D01*
X112005742Y-100717454D01*
X112073011Y-100688911D01*
X112073011Y-102844732D01*
X112070945Y-102865709D01*
X112073011Y-102886686D01*
X112073011Y-102886687D01*
X112079189Y-102949416D01*
X112090627Y-102987120D01*
X112103606Y-103029905D01*
X112143255Y-103104085D01*
X112183242Y-103152809D01*
X112183247Y-103152814D01*
X112196616Y-103169104D01*
X112212906Y-103182473D01*
X117517547Y-108487115D01*
X117530916Y-108503405D01*
X117547206Y-108516774D01*
X117547210Y-108516778D01*
X117595934Y-108556766D01*
X117652849Y-108587186D01*
X117670115Y-108596415D01*
X117750604Y-108620832D01*
X117813333Y-108627010D01*
X117813344Y-108627010D01*
X117834311Y-108629075D01*
X117855278Y-108627010D01*
X125779023Y-108627010D01*
X125799990Y-108629075D01*
X125820957Y-108627010D01*
X125820968Y-108627010D01*
X125883697Y-108620832D01*
X125964186Y-108596415D01*
X126038366Y-108556765D01*
X126103385Y-108503405D01*
X126116758Y-108487110D01*
X126276868Y-108327000D01*
X126361754Y-108327000D01*
X126482889Y-108302905D01*
X126596996Y-108255640D01*
X126699689Y-108187023D01*
X126787023Y-108099689D01*
X126855640Y-107996996D01*
X126902905Y-107882889D01*
X126927000Y-107761754D01*
X126927000Y-107638246D01*
X126924208Y-107624208D01*
X126938246Y-107627000D01*
X127061754Y-107627000D01*
X127182889Y-107602905D01*
X127296996Y-107555640D01*
X127399689Y-107487023D01*
X127487023Y-107399689D01*
X127555640Y-107296996D01*
X127602905Y-107182889D01*
X127627000Y-107061754D01*
X127627000Y-106938246D01*
X127602905Y-106817111D01*
X127555640Y-106703004D01*
X127487023Y-106600311D01*
X127399689Y-106512977D01*
X127296996Y-106444360D01*
X127182889Y-106397095D01*
X127061754Y-106373000D01*
X126938246Y-106373000D01*
X126817111Y-106397095D01*
X126703004Y-106444360D01*
X126600311Y-106512977D01*
X126540288Y-106573000D01*
X125270967Y-106573000D01*
X125250000Y-106570935D01*
X125229033Y-106573000D01*
X125229022Y-106573000D01*
X125166293Y-106579178D01*
X125085804Y-106603595D01*
X125051273Y-106622052D01*
X125011623Y-106643245D01*
X124962899Y-106683232D01*
X124962895Y-106683236D01*
X124946605Y-106696605D01*
X124933236Y-106712895D01*
X124273132Y-107373000D01*
X118176869Y-107373000D01*
X113327020Y-102523152D01*
X113327020Y-100182874D01*
X113422275Y-100328119D01*
X113586052Y-100494734D01*
X113779187Y-100626196D01*
X113994258Y-100717454D01*
X114223000Y-100765000D01*
X114773000Y-100765000D01*
X114773000Y-99707000D01*
X115027000Y-99707000D01*
X115027000Y-100765000D01*
X115577000Y-100765000D01*
X115805742Y-100717454D01*
X116020813Y-100626196D01*
X116213948Y-100494734D01*
X116377725Y-100328119D01*
X116505850Y-100132754D01*
X116593399Y-99916147D01*
X116593803Y-99889744D01*
X116468361Y-99707000D01*
X115027000Y-99707000D01*
X114773000Y-99707000D01*
X114753000Y-99707000D01*
X114753000Y-99453000D01*
X114773000Y-99453000D01*
X114773000Y-98395000D01*
X115027000Y-98395000D01*
X115027000Y-99453000D01*
X116468361Y-99453000D01*
X116593803Y-99270256D01*
X116593399Y-99243853D01*
X116505850Y-99027246D01*
X116377725Y-98831881D01*
X116213948Y-98665266D01*
X116020813Y-98533804D01*
X115805742Y-98442546D01*
X115577000Y-98395000D01*
X115027000Y-98395000D01*
X114773000Y-98395000D01*
X114223000Y-98395000D01*
X113994258Y-98442546D01*
X113779187Y-98533804D01*
X113586052Y-98665266D01*
X113422275Y-98831881D01*
X113327020Y-98977126D01*
X113327020Y-96364076D01*
X114523000Y-96364076D01*
X114523000Y-96595924D01*
X114568231Y-96823318D01*
X114656956Y-97037519D01*
X114785764Y-97230294D01*
X114949706Y-97394236D01*
X115142481Y-97523044D01*
X115356682Y-97611769D01*
X115584076Y-97657000D01*
X115815924Y-97657000D01*
X116043318Y-97611769D01*
X116257519Y-97523044D01*
X116450294Y-97394236D01*
X116614236Y-97230294D01*
X116743044Y-97037519D01*
X116831769Y-96823318D01*
X116877000Y-96595924D01*
X116877000Y-96364076D01*
X117063000Y-96364076D01*
X117063000Y-96595924D01*
X117108231Y-96823318D01*
X117196956Y-97037519D01*
X117325764Y-97230294D01*
X117489706Y-97394236D01*
X117682481Y-97523044D01*
X117896682Y-97611769D01*
X118124076Y-97657000D01*
X118355924Y-97657000D01*
X118583318Y-97611769D01*
X118797519Y-97523044D01*
X118990294Y-97394236D01*
X119154236Y-97230294D01*
X119283044Y-97037519D01*
X119371769Y-96823318D01*
X119417000Y-96595924D01*
X119417000Y-96364076D01*
X119371769Y-96136682D01*
X119283044Y-95922481D01*
X119154236Y-95729706D01*
X118990294Y-95565764D01*
X118797519Y-95436956D01*
X118583318Y-95348231D01*
X118355924Y-95303000D01*
X118124076Y-95303000D01*
X117896682Y-95348231D01*
X117682481Y-95436956D01*
X117489706Y-95565764D01*
X117325764Y-95729706D01*
X117196956Y-95922481D01*
X117108231Y-96136682D01*
X117063000Y-96364076D01*
X116877000Y-96364076D01*
X116831769Y-96136682D01*
X116743044Y-95922481D01*
X116614236Y-95729706D01*
X116450294Y-95565764D01*
X116257519Y-95436956D01*
X116043318Y-95348231D01*
X115815924Y-95303000D01*
X115584076Y-95303000D01*
X115356682Y-95348231D01*
X115142481Y-95436956D01*
X114949706Y-95565764D01*
X114785764Y-95729706D01*
X114656956Y-95922481D01*
X114568231Y-96136682D01*
X114523000Y-96364076D01*
X113327020Y-96364076D01*
X113327020Y-95120987D01*
X113329085Y-95100020D01*
X113327020Y-95079053D01*
X113327020Y-95079042D01*
X113320842Y-95016313D01*
X113296425Y-94935824D01*
X113279199Y-94903596D01*
X113256776Y-94861643D01*
X113216788Y-94812919D01*
X113216784Y-94812915D01*
X113203415Y-94796625D01*
X113187125Y-94783256D01*
X112110353Y-93706485D01*
X112147150Y-93617650D01*
X112189000Y-93407257D01*
X112189000Y-93192743D01*
X112147150Y-92982350D01*
X112065059Y-92784165D01*
X111945881Y-92605803D01*
X111824816Y-92484738D01*
X111885960Y-92265565D01*
X111100000Y-91479605D01*
X110314040Y-92265565D01*
X110375184Y-92484738D01*
X110254119Y-92605803D01*
X110134941Y-92784165D01*
X110052850Y-92982350D01*
X110011000Y-93192743D01*
X110011000Y-93407257D01*
X110052850Y-93617650D01*
X110134941Y-93815835D01*
X110254119Y-93994197D01*
X110405803Y-94145881D01*
X110584165Y-94265059D01*
X110668520Y-94300000D01*
X110584165Y-94334941D01*
X110405803Y-94454119D01*
X110254119Y-94605803D01*
X110134941Y-94784165D01*
X110052850Y-94982350D01*
X110011000Y-95192743D01*
X110011000Y-95407257D01*
X110052850Y-95617650D01*
X110134941Y-95815835D01*
X110254119Y-95994197D01*
X110375184Y-96115262D01*
X110314040Y-96334435D01*
X111100000Y-97120395D01*
X111114143Y-97106253D01*
X111293748Y-97285858D01*
X111279605Y-97300000D01*
X111293748Y-97314143D01*
X111114143Y-97493748D01*
X111100000Y-97479605D01*
X110314040Y-98265565D01*
X110354142Y-98409313D01*
X110194258Y-98442546D01*
X109979187Y-98533804D01*
X109786052Y-98665266D01*
X109622275Y-98831881D01*
X109494150Y-99027246D01*
X109406601Y-99243853D01*
X109406197Y-99270256D01*
X109152000Y-99270256D01*
X109152000Y-97372017D01*
X109698090Y-97372017D01*
X109739078Y-97644133D01*
X109832364Y-97903023D01*
X109894344Y-98018980D01*
X110134435Y-98085960D01*
X110920395Y-97300000D01*
X110134435Y-96514040D01*
X109894344Y-96581020D01*
X109777244Y-96830048D01*
X109710977Y-97097135D01*
X109698090Y-97372017D01*
X109152000Y-97372017D01*
X109152000Y-91372017D01*
X109698090Y-91372017D01*
X109739078Y-91644133D01*
X109832364Y-91903023D01*
X109894344Y-92018980D01*
X110134435Y-92085960D01*
X110920395Y-91300000D01*
X111279605Y-91300000D01*
X112065565Y-92085960D01*
X112305656Y-92018980D01*
X112422756Y-91769952D01*
X112489023Y-91502865D01*
X112501910Y-91227983D01*
X112460922Y-90955867D01*
X112367636Y-90696977D01*
X112305656Y-90581020D01*
X112065565Y-90514040D01*
X111279605Y-91300000D01*
X110920395Y-91300000D01*
X110134435Y-90514040D01*
X109894344Y-90581020D01*
X109777244Y-90830048D01*
X109710977Y-91097135D01*
X109698090Y-91372017D01*
X109152000Y-91372017D01*
X109152000Y-90265565D01*
X110314040Y-90265565D01*
X110323647Y-90300000D01*
X110314040Y-90334435D01*
X110340687Y-90361082D01*
X110381020Y-90505656D01*
X110577786Y-90598181D01*
X111100000Y-91120395D01*
X111624445Y-90595950D01*
X111703023Y-90567636D01*
X111818980Y-90505656D01*
X111820557Y-90500000D01*
X113470935Y-90500000D01*
X113473000Y-90520967D01*
X113473001Y-92119023D01*
X113470935Y-92140000D01*
X113479179Y-92223706D01*
X113503596Y-92304196D01*
X113543245Y-92378376D01*
X113583232Y-92427100D01*
X113583237Y-92427105D01*
X113596606Y-92443395D01*
X113612896Y-92456764D01*
X114622294Y-93466163D01*
X114568231Y-93596682D01*
X114523000Y-93824076D01*
X114523000Y-94055924D01*
X114568231Y-94283318D01*
X114656956Y-94497519D01*
X114785764Y-94690294D01*
X114949706Y-94854236D01*
X115142481Y-94983044D01*
X115356682Y-95071769D01*
X115584076Y-95117000D01*
X115815924Y-95117000D01*
X116043318Y-95071769D01*
X116257519Y-94983044D01*
X116450294Y-94854236D01*
X116614236Y-94690294D01*
X116743044Y-94497519D01*
X116831769Y-94283318D01*
X116877000Y-94055924D01*
X116877000Y-93824076D01*
X117063000Y-93824076D01*
X117063000Y-94055924D01*
X117108231Y-94283318D01*
X117196956Y-94497519D01*
X117325764Y-94690294D01*
X117489706Y-94854236D01*
X117682481Y-94983044D01*
X117896682Y-95071769D01*
X118124076Y-95117000D01*
X118355924Y-95117000D01*
X118583318Y-95071769D01*
X118797519Y-94983044D01*
X118990294Y-94854236D01*
X119154236Y-94690294D01*
X119283044Y-94497519D01*
X119371769Y-94283318D01*
X119417000Y-94055924D01*
X119417000Y-93824076D01*
X119371769Y-93596682D01*
X119283044Y-93382481D01*
X119154236Y-93189706D01*
X118990294Y-93025764D01*
X118797519Y-92896956D01*
X118583318Y-92808231D01*
X118355924Y-92763000D01*
X118124076Y-92763000D01*
X117896682Y-92808231D01*
X117682481Y-92896956D01*
X117489706Y-93025764D01*
X117325764Y-93189706D01*
X117196956Y-93382481D01*
X117108231Y-93596682D01*
X117063000Y-93824076D01*
X116877000Y-93824076D01*
X116831769Y-93596682D01*
X116743044Y-93382481D01*
X116614236Y-93189706D01*
X116450294Y-93025764D01*
X116257519Y-92896956D01*
X116231890Y-92886340D01*
X116550000Y-92888072D01*
X116674482Y-92875812D01*
X116794180Y-92839502D01*
X116904494Y-92780537D01*
X117001185Y-92701185D01*
X117080537Y-92604494D01*
X117139502Y-92494180D01*
X117175812Y-92374482D01*
X117188072Y-92250000D01*
X117186340Y-91931890D01*
X117196956Y-91957519D01*
X117325764Y-92150294D01*
X117489706Y-92314236D01*
X117682481Y-92443044D01*
X117896682Y-92531769D01*
X118124076Y-92577000D01*
X118355924Y-92577000D01*
X118583318Y-92531769D01*
X118797519Y-92443044D01*
X118990294Y-92314236D01*
X119154236Y-92150294D01*
X119283044Y-91957519D01*
X119371769Y-91743318D01*
X119417000Y-91515924D01*
X119417000Y-91284076D01*
X119371769Y-91056682D01*
X119283044Y-90842481D01*
X119154236Y-90649706D01*
X118990294Y-90485764D01*
X118797519Y-90356956D01*
X118583318Y-90268231D01*
X118355924Y-90223000D01*
X118124076Y-90223000D01*
X117896682Y-90268231D01*
X117682481Y-90356956D01*
X117489706Y-90485764D01*
X117325764Y-90649706D01*
X117196956Y-90842481D01*
X117186340Y-90868110D01*
X117188072Y-90550000D01*
X117175812Y-90425518D01*
X117139502Y-90305820D01*
X117080537Y-90195506D01*
X117001185Y-90098815D01*
X116904494Y-90019463D01*
X116794180Y-89960498D01*
X116674482Y-89924188D01*
X116550000Y-89911928D01*
X115985750Y-89915000D01*
X115827000Y-90073750D01*
X115827000Y-91273000D01*
X115847000Y-91273000D01*
X115847000Y-91527000D01*
X115827000Y-91527000D01*
X115827000Y-91547000D01*
X115573000Y-91547000D01*
X115573000Y-91527000D01*
X115553000Y-91527000D01*
X115553000Y-91273000D01*
X115573000Y-91273000D01*
X115573000Y-90073750D01*
X115414250Y-89915000D01*
X115046768Y-89912999D01*
X115057209Y-89878582D01*
X115150000Y-89878582D01*
X115214103Y-89872268D01*
X115275743Y-89853570D01*
X115332550Y-89823206D01*
X115382343Y-89782343D01*
X115423206Y-89732550D01*
X115453570Y-89675743D01*
X115472268Y-89614103D01*
X115478582Y-89550000D01*
X115478582Y-88575286D01*
X116287106Y-87766763D01*
X116303396Y-87753394D01*
X116316765Y-87737104D01*
X116316769Y-87737100D01*
X116356757Y-87688376D01*
X116396405Y-87614196D01*
X116396406Y-87614195D01*
X116420823Y-87533706D01*
X116427001Y-87470977D01*
X116427001Y-87470966D01*
X116429066Y-87449999D01*
X116427001Y-87429032D01*
X116427001Y-85924266D01*
X116454758Y-85927000D01*
X116454769Y-85927000D01*
X116475736Y-85929065D01*
X116496703Y-85927000D01*
X118377732Y-85927000D01*
X121037861Y-88587131D01*
X121051225Y-88603415D01*
X121067509Y-88616779D01*
X121067518Y-88616788D01*
X121116243Y-88656775D01*
X121146599Y-88673000D01*
X121190424Y-88696425D01*
X121270913Y-88720842D01*
X121333642Y-88727020D01*
X121333654Y-88727020D01*
X121354619Y-88729085D01*
X121375584Y-88727020D01*
X124209150Y-88727020D01*
X128909239Y-93427111D01*
X128922603Y-93443395D01*
X128938887Y-93456759D01*
X128938896Y-93456768D01*
X128987621Y-93496755D01*
X129015769Y-93511800D01*
X129061802Y-93536405D01*
X129142291Y-93560822D01*
X129205020Y-93567000D01*
X129205032Y-93567000D01*
X129225997Y-93569065D01*
X129246962Y-93567000D01*
X130802893Y-93567000D01*
X130856956Y-93697519D01*
X130985764Y-93890294D01*
X131149706Y-94054236D01*
X131342481Y-94183044D01*
X131556682Y-94271769D01*
X131784076Y-94317000D01*
X132015924Y-94317000D01*
X132226253Y-94275163D01*
X129029275Y-97472142D01*
X129011078Y-97487076D01*
X128951470Y-97559708D01*
X128907177Y-97642575D01*
X128879902Y-97732490D01*
X128872999Y-97802575D01*
X128872999Y-97802582D01*
X128870693Y-97825997D01*
X128872999Y-97849412D01*
X128872999Y-98269131D01*
X128316768Y-97712900D01*
X128303395Y-97696605D01*
X128238376Y-97643245D01*
X128164196Y-97603595D01*
X128083707Y-97579178D01*
X128020978Y-97573000D01*
X128020967Y-97573000D01*
X128000000Y-97570935D01*
X127979033Y-97573000D01*
X127159712Y-97573000D01*
X127099689Y-97512977D01*
X126996996Y-97444360D01*
X126882889Y-97397095D01*
X126761754Y-97373000D01*
X126638246Y-97373000D01*
X126517111Y-97397095D01*
X126403004Y-97444360D01*
X126300311Y-97512977D01*
X126212977Y-97600311D01*
X126144360Y-97703004D01*
X126097095Y-97817111D01*
X126073000Y-97938246D01*
X126073000Y-98061754D01*
X126097095Y-98182889D01*
X126144360Y-98296996D01*
X126212977Y-98399689D01*
X126300311Y-98487023D01*
X126403004Y-98555640D01*
X126517111Y-98602905D01*
X126638246Y-98627000D01*
X126761754Y-98627000D01*
X126882889Y-98602905D01*
X126996996Y-98555640D01*
X127099689Y-98487023D01*
X127159712Y-98427000D01*
X127823132Y-98427000D01*
X128873000Y-99476869D01*
X128872999Y-101722683D01*
X124377000Y-97226685D01*
X124377000Y-94123415D01*
X124379306Y-94100000D01*
X124377000Y-94076585D01*
X124377000Y-94076577D01*
X124370097Y-94006492D01*
X124342822Y-93916577D01*
X124298529Y-93833711D01*
X124238921Y-93761079D01*
X124220729Y-93746150D01*
X120266882Y-89792303D01*
X120254826Y-89731695D01*
X120211331Y-89626688D01*
X120148185Y-89532184D01*
X120067816Y-89451815D01*
X119973312Y-89388669D01*
X119868305Y-89345174D01*
X119756830Y-89323000D01*
X119643170Y-89323000D01*
X119531695Y-89345174D01*
X119426688Y-89388669D01*
X119332184Y-89451815D01*
X119251815Y-89532184D01*
X119188669Y-89626688D01*
X119145174Y-89731695D01*
X119123000Y-89843170D01*
X119123000Y-89956830D01*
X119145174Y-90068305D01*
X119188669Y-90173312D01*
X119251815Y-90267816D01*
X119332184Y-90348185D01*
X119426688Y-90411331D01*
X119531695Y-90454826D01*
X119592303Y-90466882D01*
X123423001Y-94297581D01*
X123423000Y-97400849D01*
X123420694Y-97424264D01*
X123423000Y-97447679D01*
X123423000Y-97447686D01*
X123429903Y-97517771D01*
X123457178Y-97607686D01*
X123501471Y-97690553D01*
X123561079Y-97763185D01*
X123579276Y-97778119D01*
X128621886Y-102820730D01*
X128636815Y-102838921D01*
X128655006Y-102853850D01*
X128655008Y-102853852D01*
X128667637Y-102864216D01*
X128709447Y-102898529D01*
X128792313Y-102942822D01*
X128882228Y-102970097D01*
X128952313Y-102977000D01*
X128952321Y-102977000D01*
X128975736Y-102979306D01*
X128991083Y-102977795D01*
X129000311Y-102987023D01*
X129103004Y-103055640D01*
X129217111Y-103102905D01*
X129338246Y-103127000D01*
X129461754Y-103127000D01*
X129582889Y-103102905D01*
X129652594Y-103074032D01*
X129683232Y-103111364D01*
X129696605Y-103127659D01*
X129712900Y-103141032D01*
X130458977Y-103887111D01*
X130472341Y-103903395D01*
X130488625Y-103916759D01*
X130488634Y-103916768D01*
X130537359Y-103956755D01*
X130577009Y-103977948D01*
X130611540Y-103996405D01*
X130692029Y-104020822D01*
X130738707Y-104025419D01*
X130800311Y-104087023D01*
X130903004Y-104155640D01*
X131017111Y-104202905D01*
X131138246Y-104227000D01*
X131261754Y-104227000D01*
X131382889Y-104202905D01*
X131496996Y-104155640D01*
X131599689Y-104087023D01*
X131687023Y-103999689D01*
X131755640Y-103896996D01*
X131791780Y-103809747D01*
X131828292Y-103820823D01*
X131891021Y-103827001D01*
X131891032Y-103827001D01*
X131911999Y-103829066D01*
X131932966Y-103827001D01*
X132467034Y-103827001D01*
X132488001Y-103829066D01*
X132508968Y-103827001D01*
X132508979Y-103827001D01*
X132571708Y-103820823D01*
X132652197Y-103796406D01*
X132726377Y-103756756D01*
X132791396Y-103703396D01*
X132804769Y-103687101D01*
X133287105Y-103204766D01*
X133303394Y-103191398D01*
X133316763Y-103175108D01*
X133316767Y-103175104D01*
X133356755Y-103126379D01*
X133396404Y-103052200D01*
X133413120Y-102997095D01*
X133420821Y-102971710D01*
X133426999Y-102908981D01*
X133426999Y-102908970D01*
X133429064Y-102888003D01*
X133426999Y-102867036D01*
X133426999Y-97420966D01*
X133429064Y-97399999D01*
X133426999Y-97379032D01*
X133426999Y-97379021D01*
X133420821Y-97316292D01*
X133396404Y-97235803D01*
X133396404Y-97235802D01*
X133356755Y-97161622D01*
X133327000Y-97125367D01*
X133327000Y-97038246D01*
X133302905Y-96917111D01*
X133255640Y-96803004D01*
X133187023Y-96700311D01*
X133099689Y-96612977D01*
X132996996Y-96544360D01*
X132882889Y-96497095D01*
X132761754Y-96473000D01*
X132638246Y-96473000D01*
X132517111Y-96497095D01*
X132403004Y-96544360D01*
X132300311Y-96612977D01*
X132212977Y-96700311D01*
X132144360Y-96803004D01*
X132097095Y-96917111D01*
X132073000Y-97038246D01*
X132073000Y-97161754D01*
X132097095Y-97282889D01*
X132144360Y-97396996D01*
X132212977Y-97499689D01*
X132300311Y-97587023D01*
X132403004Y-97655640D01*
X132517111Y-97702905D01*
X132573000Y-97714022D01*
X132573000Y-99692014D01*
X132556756Y-99661623D01*
X132516768Y-99612899D01*
X132516764Y-99612895D01*
X132503395Y-99596605D01*
X132487105Y-99583236D01*
X130927000Y-98023132D01*
X130927000Y-97938246D01*
X130902905Y-97817111D01*
X130855640Y-97703004D01*
X130787023Y-97600311D01*
X130699689Y-97512977D01*
X130596996Y-97444360D01*
X130482889Y-97397095D01*
X130458359Y-97392216D01*
X136791850Y-91058726D01*
X136791855Y-91058720D01*
X136820724Y-91029851D01*
X136838921Y-91014917D01*
X136898529Y-90942285D01*
X136942822Y-90859419D01*
X136970097Y-90769504D01*
X136977000Y-90699418D01*
X136977000Y-90699412D01*
X136979306Y-90675997D01*
X136977000Y-90652582D01*
X136977000Y-89024692D01*
X137011331Y-88973312D01*
X137054826Y-88868305D01*
X137077000Y-88756830D01*
X137077000Y-88643170D01*
X137054826Y-88531695D01*
X137011331Y-88426688D01*
X136948185Y-88332184D01*
X136867816Y-88251815D01*
X136773312Y-88188669D01*
X136668305Y-88145174D01*
X136556830Y-88123000D01*
X136443170Y-88123000D01*
X136331695Y-88145174D01*
X136226688Y-88188669D01*
X136132184Y-88251815D01*
X136051815Y-88332184D01*
X135988669Y-88426688D01*
X135945174Y-88531695D01*
X135923000Y-88643170D01*
X135923000Y-88756830D01*
X135945174Y-88868305D01*
X135988669Y-88973312D01*
X136023000Y-89024692D01*
X136023001Y-90276568D01*
X136023000Y-90276578D01*
X136023000Y-90478416D01*
X133035163Y-93466253D01*
X133077000Y-93255924D01*
X133077000Y-93024076D01*
X133031769Y-92796682D01*
X132943044Y-92582481D01*
X132814236Y-92389706D01*
X132650294Y-92225764D01*
X132457519Y-92096956D01*
X132243318Y-92008231D01*
X132015924Y-91963000D01*
X131784076Y-91963000D01*
X131556682Y-92008231D01*
X131342481Y-92096956D01*
X131149706Y-92225764D01*
X130985764Y-92389706D01*
X130856956Y-92582481D01*
X130802893Y-92713000D01*
X129402868Y-92713000D01*
X127240028Y-90550161D01*
X127317816Y-90498185D01*
X127398185Y-90417816D01*
X127461331Y-90323312D01*
X127504826Y-90218305D01*
X127527000Y-90106830D01*
X127527000Y-89993170D01*
X127504826Y-89881695D01*
X127461331Y-89776688D01*
X127398185Y-89682184D01*
X127317816Y-89601815D01*
X127223312Y-89538669D01*
X127118305Y-89495174D01*
X127006830Y-89473000D01*
X126976869Y-89473000D01*
X125430868Y-87927000D01*
X128623132Y-87927000D01*
X130721418Y-90025287D01*
X130721418Y-91450000D01*
X130727732Y-91514103D01*
X130746430Y-91575743D01*
X130776794Y-91632550D01*
X130817657Y-91682343D01*
X130867450Y-91723206D01*
X130924257Y-91753570D01*
X130985897Y-91772268D01*
X131050000Y-91778582D01*
X132750000Y-91778582D01*
X132814103Y-91772268D01*
X132875743Y-91753570D01*
X132932550Y-91723206D01*
X132982343Y-91682343D01*
X133023206Y-91632550D01*
X133053570Y-91575743D01*
X133072268Y-91514103D01*
X133078582Y-91450000D01*
X133078582Y-89750000D01*
X133072268Y-89685897D01*
X133053570Y-89624257D01*
X133023206Y-89567450D01*
X132982343Y-89517657D01*
X132932550Y-89476794D01*
X132875743Y-89446430D01*
X132814103Y-89427732D01*
X132750000Y-89421418D01*
X131325287Y-89421418D01*
X129116766Y-87212898D01*
X129103395Y-87196605D01*
X129038376Y-87143245D01*
X128964196Y-87103595D01*
X128883707Y-87079178D01*
X128820978Y-87073000D01*
X128820967Y-87073000D01*
X128800000Y-87070935D01*
X128779033Y-87073000D01*
X121862867Y-87073000D01*
X121580015Y-86790148D01*
X121625000Y-86760089D01*
X121701688Y-86811331D01*
X121806695Y-86854826D01*
X121918170Y-86877000D01*
X122031830Y-86877000D01*
X122143305Y-86854826D01*
X122248312Y-86811331D01*
X122325000Y-86760089D01*
X122401688Y-86811331D01*
X122506695Y-86854826D01*
X122618170Y-86877000D01*
X122731830Y-86877000D01*
X122843305Y-86854826D01*
X122948312Y-86811331D01*
X123037500Y-86751737D01*
X123126688Y-86811331D01*
X123231695Y-86854826D01*
X123343170Y-86877000D01*
X123456830Y-86877000D01*
X123568305Y-86854826D01*
X123673312Y-86811331D01*
X123767816Y-86748185D01*
X123848185Y-86667816D01*
X123911331Y-86573312D01*
X123954826Y-86468305D01*
X123977000Y-86356830D01*
X123977000Y-86243170D01*
X123974295Y-86229573D01*
X126976869Y-83227000D01*
X129479033Y-83227000D01*
X129500000Y-83229065D01*
X129520967Y-83227000D01*
X129520978Y-83227000D01*
X129583707Y-83220822D01*
X129664196Y-83196405D01*
X129738376Y-83156755D01*
X129803395Y-83103395D01*
X129816768Y-83087100D01*
X135187111Y-77716759D01*
X135203395Y-77703395D01*
X135216759Y-77687111D01*
X135216768Y-77687102D01*
X135256755Y-77638377D01*
X135296404Y-77564197D01*
X135296405Y-77564196D01*
X135320822Y-77483707D01*
X135327000Y-77420978D01*
X135327000Y-77420966D01*
X135329065Y-77400001D01*
X135327000Y-77379036D01*
X135327000Y-75289001D01*
X135348185Y-75267816D01*
X135411331Y-75173312D01*
X135454826Y-75068305D01*
X135477000Y-74956830D01*
X135477000Y-74843170D01*
X135454826Y-74731695D01*
X135411331Y-74626688D01*
X135348185Y-74532184D01*
X135267816Y-74451815D01*
X135173312Y-74388669D01*
X135068305Y-74345174D01*
X134956830Y-74323000D01*
X134843170Y-74323000D01*
X134731695Y-74345174D01*
X134626688Y-74388669D01*
X134532184Y-74451815D01*
X134451815Y-74532184D01*
X134388669Y-74626688D01*
X134345174Y-74731695D01*
X134323000Y-74843170D01*
X134323000Y-74956830D01*
X134345174Y-75068305D01*
X134388669Y-75173312D01*
X134451815Y-75267816D01*
X134473001Y-75289002D01*
X134473000Y-77093024D01*
X134473000Y-77223130D01*
X129573012Y-82123120D01*
X129554826Y-82031695D01*
X129511331Y-81926688D01*
X129451737Y-81837500D01*
X129511331Y-81748312D01*
X129554826Y-81643305D01*
X129577000Y-81531830D01*
X129577000Y-81418170D01*
X129554826Y-81306695D01*
X129511331Y-81201688D01*
X129460089Y-81125000D01*
X129511331Y-81048312D01*
X129554826Y-80943305D01*
X129577000Y-80831830D01*
X129577000Y-80718170D01*
X129554826Y-80606695D01*
X129511331Y-80501688D01*
X129448185Y-80407184D01*
X129367816Y-80326815D01*
X129273312Y-80263669D01*
X129168305Y-80220174D01*
X129056830Y-80198000D01*
X128943170Y-80198000D01*
X128831695Y-80220174D01*
X128726688Y-80263669D01*
X128632184Y-80326815D01*
X128610999Y-80348000D01*
X126592415Y-80348000D01*
X126571448Y-80345935D01*
X126550481Y-80348000D01*
X126550470Y-80348000D01*
X126487741Y-80354178D01*
X126407252Y-80378595D01*
X126388405Y-80388669D01*
X126333072Y-80418244D01*
X126299132Y-80446099D01*
X126268053Y-80471605D01*
X126254684Y-80487895D01*
X126111128Y-80631452D01*
X126111123Y-80631456D01*
X121012900Y-85729679D01*
X120996605Y-85743052D01*
X120983233Y-85759346D01*
X120983232Y-85759347D01*
X120943245Y-85808071D01*
X120926908Y-85838636D01*
X120907184Y-85851815D01*
X120826815Y-85932184D01*
X120784852Y-85994986D01*
X120359771Y-85569905D01*
X120359767Y-85569900D01*
X120127000Y-85337134D01*
X120127000Y-81289001D01*
X120148185Y-81267816D01*
X120211331Y-81173312D01*
X120254826Y-81068305D01*
X120277000Y-80956830D01*
X120277000Y-80843170D01*
X120254826Y-80731695D01*
X120211331Y-80626688D01*
X120148185Y-80532184D01*
X120067816Y-80451815D01*
X119973312Y-80388669D01*
X119868305Y-80345174D01*
X119756830Y-80323000D01*
X119643170Y-80323000D01*
X119531695Y-80345174D01*
X119426688Y-80388669D01*
X119332184Y-80451815D01*
X119251815Y-80532184D01*
X119188669Y-80626688D01*
X119145174Y-80731695D01*
X119123000Y-80843170D01*
X119123000Y-80956830D01*
X119145174Y-81068305D01*
X119188669Y-81173312D01*
X119251815Y-81267816D01*
X119273000Y-81289001D01*
X119273001Y-85048834D01*
X118814500Y-84590333D01*
X118814500Y-84555670D01*
X118792326Y-84444195D01*
X118748831Y-84339188D01*
X118685685Y-84244684D01*
X118605316Y-84164315D01*
X118510812Y-84101169D01*
X118405805Y-84057674D01*
X118294330Y-84035500D01*
X118180670Y-84035500D01*
X118069195Y-84057674D01*
X117964188Y-84101169D01*
X117869684Y-84164315D01*
X117789315Y-84244684D01*
X117726169Y-84339188D01*
X117682674Y-84444195D01*
X117660500Y-84555670D01*
X117660500Y-84669330D01*
X117682674Y-84780805D01*
X117726169Y-84885812D01*
X117789315Y-84980316D01*
X117869684Y-85060685D01*
X117888115Y-85073000D01*
X116652605Y-85073000D01*
X116427001Y-84847397D01*
X116427001Y-71176867D01*
X118276870Y-69327000D01*
X119310999Y-69327000D01*
X119332184Y-69348185D01*
X119426688Y-69411331D01*
X119531695Y-69454826D01*
X119643170Y-69477000D01*
X119756830Y-69477000D01*
X119868305Y-69454826D01*
X119973312Y-69411331D01*
X120067816Y-69348185D01*
X120148185Y-69267816D01*
X120211331Y-69173312D01*
X120254826Y-69068305D01*
X120277000Y-68956830D01*
X120277000Y-68843170D01*
X120254826Y-68731695D01*
X120211331Y-68626688D01*
X120148185Y-68532184D01*
X120067816Y-68451815D01*
X119973312Y-68388669D01*
X119868305Y-68345174D01*
X119756830Y-68323000D01*
X119643170Y-68323000D01*
X119531695Y-68345174D01*
X119426688Y-68388669D01*
X119332184Y-68451815D01*
X119310999Y-68473000D01*
X118120967Y-68473000D01*
X118100000Y-68470935D01*
X118079033Y-68473000D01*
X118079022Y-68473000D01*
X118016293Y-68479178D01*
X117935804Y-68503595D01*
X117903363Y-68520935D01*
X117861624Y-68543244D01*
X117814434Y-68581973D01*
X117796605Y-68596605D01*
X117783232Y-68612900D01*
X117762909Y-68633223D01*
X117762898Y-68633232D01*
X115712896Y-70683236D01*
X115696607Y-70696604D01*
X115683238Y-70712894D01*
X115683233Y-70712899D01*
X115643246Y-70761623D01*
X115603597Y-70835803D01*
X115579180Y-70916293D01*
X115570936Y-70999999D01*
X115573002Y-71020976D01*
X115573001Y-85003287D01*
X115573001Y-85003298D01*
X115570936Y-85024265D01*
X115573001Y-85045232D01*
X115573002Y-87273129D01*
X115124713Y-87721418D01*
X114394387Y-87721418D01*
X114380537Y-87695506D01*
X114301185Y-87598815D01*
X114204494Y-87519463D01*
X114094180Y-87460498D01*
X113974482Y-87424188D01*
X113850000Y-87411928D01*
X113635750Y-87415000D01*
X113477000Y-87573750D01*
X113477000Y-88673000D01*
X113497000Y-88673000D01*
X113497000Y-88927000D01*
X113477000Y-88927000D01*
X113477000Y-90026250D01*
X113623441Y-90172691D01*
X113612900Y-90183232D01*
X113596605Y-90196605D01*
X113583233Y-90212899D01*
X113583232Y-90212900D01*
X113543245Y-90261624D01*
X113534000Y-90278921D01*
X113503595Y-90335805D01*
X113479178Y-90416294D01*
X113473000Y-90479023D01*
X113473000Y-90479033D01*
X113470935Y-90500000D01*
X111820557Y-90500000D01*
X111859313Y-90361082D01*
X111885960Y-90334435D01*
X111876353Y-90300000D01*
X111885960Y-90265565D01*
X111859313Y-90238918D01*
X111818980Y-90094344D01*
X111622214Y-90001819D01*
X111100000Y-89479605D01*
X110575555Y-90004050D01*
X110496977Y-90032364D01*
X110381020Y-90094344D01*
X110340687Y-90238918D01*
X110314040Y-90265565D01*
X109152000Y-90265565D01*
X109152000Y-89372017D01*
X109698090Y-89372017D01*
X109739078Y-89644133D01*
X109832364Y-89903023D01*
X109894344Y-90018980D01*
X110134435Y-90085960D01*
X110920395Y-89300000D01*
X111279605Y-89300000D01*
X112065565Y-90085960D01*
X112305656Y-90018980D01*
X112344910Y-89935501D01*
X112398815Y-90001185D01*
X112495506Y-90080537D01*
X112605820Y-90139502D01*
X112725518Y-90175812D01*
X112850000Y-90188072D01*
X113064250Y-90185000D01*
X113223000Y-90026250D01*
X113223000Y-88927000D01*
X113203000Y-88927000D01*
X113203000Y-88673000D01*
X113223000Y-88673000D01*
X113223000Y-87573750D01*
X113064250Y-87415000D01*
X112850000Y-87411928D01*
X112725518Y-87424188D01*
X112605820Y-87460498D01*
X112495506Y-87519463D01*
X112398815Y-87598815D01*
X112319463Y-87695506D01*
X112260498Y-87805820D01*
X112224188Y-87925518D01*
X112211928Y-88050000D01*
X112215000Y-88514250D01*
X112272528Y-88571778D01*
X112065565Y-88514040D01*
X111279605Y-89300000D01*
X110920395Y-89300000D01*
X110134435Y-88514040D01*
X109894344Y-88581020D01*
X109777244Y-88830048D01*
X109710977Y-89097135D01*
X109698090Y-89372017D01*
X109152000Y-89372017D01*
X109152000Y-88334435D01*
X110314040Y-88334435D01*
X111100000Y-89120395D01*
X111885960Y-88334435D01*
X111818980Y-88094344D01*
X111569952Y-87977244D01*
X111302865Y-87910977D01*
X111027983Y-87898090D01*
X110755867Y-87939078D01*
X110496977Y-88032364D01*
X110381020Y-88094344D01*
X110314040Y-88334435D01*
X109152000Y-88334435D01*
X109152000Y-74200000D01*
X109470694Y-74200000D01*
X109473001Y-74223425D01*
X109473000Y-79952587D01*
X109470694Y-79976002D01*
X109473000Y-79999417D01*
X109473000Y-79999424D01*
X109479903Y-80069509D01*
X109507178Y-80159424D01*
X109551471Y-80242291D01*
X109611079Y-80314923D01*
X109629276Y-80329857D01*
X110830146Y-81530728D01*
X110845078Y-81548922D01*
X110917710Y-81608530D01*
X110995409Y-81650061D01*
X110845764Y-81799706D01*
X110716956Y-81992481D01*
X110628231Y-82206682D01*
X110583000Y-82434076D01*
X110583000Y-82665924D01*
X110628231Y-82893318D01*
X110716956Y-83107519D01*
X110845764Y-83300294D01*
X111009706Y-83464236D01*
X111202481Y-83593044D01*
X111416682Y-83681769D01*
X111644076Y-83727000D01*
X111875924Y-83727000D01*
X111973001Y-83707690D01*
X111973000Y-85021418D01*
X111200000Y-85021418D01*
X111136234Y-85027665D01*
X111074575Y-85046298D01*
X111017736Y-85076603D01*
X110967901Y-85117415D01*
X110926985Y-85167164D01*
X110896562Y-85223940D01*
X110877799Y-85285560D01*
X110871418Y-85349656D01*
X110877665Y-85413766D01*
X110896298Y-85475425D01*
X110926603Y-85532264D01*
X111305094Y-86100000D01*
X110926603Y-86667736D01*
X110896430Y-86724257D01*
X110877732Y-86785897D01*
X110871418Y-86850000D01*
X110877732Y-86914103D01*
X110896430Y-86975743D01*
X110926794Y-87032550D01*
X110967657Y-87082343D01*
X111017450Y-87123206D01*
X111074257Y-87153570D01*
X111135897Y-87172268D01*
X111200000Y-87178582D01*
X113600000Y-87178582D01*
X113663766Y-87172335D01*
X113725425Y-87153702D01*
X113749995Y-87140602D01*
X113774257Y-87153570D01*
X113835897Y-87172268D01*
X113900000Y-87178582D01*
X114900000Y-87178582D01*
X114964103Y-87172268D01*
X115025743Y-87153570D01*
X115082550Y-87123206D01*
X115132343Y-87082343D01*
X115173206Y-87032550D01*
X115203570Y-86975743D01*
X115222268Y-86914103D01*
X115228582Y-86850000D01*
X115228582Y-85350000D01*
X115222268Y-85285897D01*
X115203570Y-85224257D01*
X115173206Y-85167450D01*
X115132343Y-85117657D01*
X115082550Y-85076794D01*
X115025743Y-85046430D01*
X114964103Y-85027732D01*
X114900000Y-85021418D01*
X114877000Y-85021418D01*
X114877000Y-83437413D01*
X114879306Y-83413998D01*
X114877000Y-83390583D01*
X114877000Y-83390575D01*
X114870097Y-83320490D01*
X114842822Y-83230575D01*
X114798529Y-83147709D01*
X114738921Y-83075077D01*
X114720729Y-83060147D01*
X114477000Y-82816418D01*
X114477000Y-82743170D01*
X114454826Y-82631695D01*
X114411331Y-82526688D01*
X114348185Y-82432184D01*
X114267816Y-82351815D01*
X114173312Y-82288669D01*
X114068305Y-82245174D01*
X113956830Y-82223000D01*
X113883582Y-82223000D01*
X112549858Y-80889277D01*
X112547782Y-80886748D01*
X112674236Y-80760294D01*
X112803044Y-80567519D01*
X112891769Y-80353318D01*
X112937000Y-80125924D01*
X112937000Y-79894076D01*
X112891769Y-79666682D01*
X112803044Y-79452481D01*
X112674236Y-79259706D01*
X112510294Y-79095764D01*
X112317519Y-78966956D01*
X112103318Y-78878231D01*
X111875924Y-78833000D01*
X111644076Y-78833000D01*
X111416682Y-78878231D01*
X111202481Y-78966956D01*
X111009706Y-79095764D01*
X110845764Y-79259706D01*
X110716956Y-79452481D01*
X110628231Y-79666682D01*
X110583000Y-79894076D01*
X110583000Y-79934423D01*
X110427000Y-79778423D01*
X110427000Y-75568098D01*
X110488359Y-75696920D01*
X110662412Y-75930269D01*
X110878645Y-76125178D01*
X111128748Y-76274157D01*
X111367179Y-76358736D01*
X111202481Y-76426956D01*
X111009706Y-76555764D01*
X110845764Y-76719706D01*
X110716956Y-76912481D01*
X110628231Y-77126682D01*
X110583000Y-77354076D01*
X110583000Y-77585924D01*
X110628231Y-77813318D01*
X110716956Y-78027519D01*
X110845764Y-78220294D01*
X111009706Y-78384236D01*
X111202481Y-78513044D01*
X111416682Y-78601769D01*
X111644076Y-78647000D01*
X111875924Y-78647000D01*
X112103318Y-78601769D01*
X112317519Y-78513044D01*
X112510294Y-78384236D01*
X112674236Y-78220294D01*
X112803044Y-78027519D01*
X112891769Y-77813318D01*
X112937000Y-77585924D01*
X112937000Y-77354076D01*
X112891769Y-77126682D01*
X112803044Y-76912481D01*
X112674236Y-76719706D01*
X112510294Y-76555764D01*
X112317519Y-76426956D01*
X112152821Y-76358736D01*
X112391252Y-76274157D01*
X112641355Y-76125178D01*
X112857588Y-75930269D01*
X113031641Y-75696920D01*
X113156825Y-75434099D01*
X113201476Y-75286890D01*
X113080155Y-75057000D01*
X111887000Y-75057000D01*
X111887000Y-75077000D01*
X111633000Y-75077000D01*
X111633000Y-75057000D01*
X111613000Y-75057000D01*
X111613000Y-74803000D01*
X111633000Y-74803000D01*
X111633000Y-74783000D01*
X111887000Y-74783000D01*
X111887000Y-74803000D01*
X113080155Y-74803000D01*
X113201476Y-74573110D01*
X113156825Y-74425901D01*
X113031641Y-74163080D01*
X112857588Y-73929731D01*
X112641355Y-73734822D01*
X112391252Y-73585843D01*
X112342592Y-73568582D01*
X112610000Y-73568582D01*
X112674103Y-73562268D01*
X112735743Y-73543570D01*
X112792550Y-73513206D01*
X112842343Y-73472343D01*
X112883206Y-73422550D01*
X112913570Y-73365743D01*
X112932268Y-73304103D01*
X112938582Y-73240000D01*
X112938582Y-71540000D01*
X112932268Y-71475897D01*
X112913570Y-71414257D01*
X112883206Y-71357450D01*
X112842343Y-71307657D01*
X112792550Y-71266794D01*
X112735743Y-71236430D01*
X112674103Y-71217732D01*
X112610000Y-71211418D01*
X110910000Y-71211418D01*
X110845897Y-71217732D01*
X110784257Y-71236430D01*
X110727450Y-71266794D01*
X110677657Y-71307657D01*
X110636794Y-71357450D01*
X110606430Y-71414257D01*
X110587732Y-71475897D01*
X110581418Y-71540000D01*
X110581418Y-72894002D01*
X109629271Y-73846150D01*
X109611080Y-73861079D01*
X109551472Y-73933711D01*
X109527796Y-73978005D01*
X109507178Y-74016578D01*
X109479903Y-74106493D01*
X109470694Y-74200000D01*
X109152000Y-74200000D01*
X109152000Y-67652000D01*
X139848000Y-67652000D01*
X139848001Y-95992529D01*
G37*
%TD.AperFunction*%
%TD*%
D20*
%TO.N,GND*%
X123582087Y-104323010D02*
X123816701Y-107373000D01*
X118176869Y-107373000D01*
X118027000Y-107223131D01*
X118027000Y-104131455D01*
X123582087Y-104323010D01*
%TA.AperFunction,Conductor*%
D21*
G36*
X123582087Y-104323010D02*
G01*
X123816701Y-107373000D01*
X118176869Y-107373000D01*
X118027000Y-107223131D01*
X118027000Y-104131455D01*
X123582087Y-104323010D01*
G37*
%TD.AperFunction*%
%TD*%
D20*
%TO.N,GND*%
X129184518Y-105189658D02*
X129554867Y-107782099D01*
X126872984Y-107955124D01*
X126902905Y-107882889D01*
X126927000Y-107761754D01*
X126927000Y-107638246D01*
X126924208Y-107624208D01*
X126938246Y-107627000D01*
X127061754Y-107627000D01*
X127182889Y-107602905D01*
X127296996Y-107555640D01*
X127399689Y-107487023D01*
X127487023Y-107399689D01*
X127555640Y-107296996D01*
X127602905Y-107182889D01*
X127627000Y-107061754D01*
X127627000Y-106938246D01*
X127602905Y-106817111D01*
X127555640Y-106703004D01*
X127487023Y-106600311D01*
X127399689Y-106512977D01*
X127296996Y-106444360D01*
X127182889Y-106397095D01*
X127061754Y-106373000D01*
X126938246Y-106373000D01*
X126817111Y-106397095D01*
X126703004Y-106444360D01*
X126649991Y-106479782D01*
X126536376Y-104093875D01*
X129184518Y-105189658D01*
%TA.AperFunction,Conductor*%
D21*
G36*
X129184518Y-105189658D02*
G01*
X129554867Y-107782099D01*
X126872984Y-107955124D01*
X126902905Y-107882889D01*
X126927000Y-107761754D01*
X126927000Y-107638246D01*
X126924208Y-107624208D01*
X126938246Y-107627000D01*
X127061754Y-107627000D01*
X127182889Y-107602905D01*
X127296996Y-107555640D01*
X127399689Y-107487023D01*
X127487023Y-107399689D01*
X127555640Y-107296996D01*
X127602905Y-107182889D01*
X127627000Y-107061754D01*
X127627000Y-106938246D01*
X127602905Y-106817111D01*
X127555640Y-106703004D01*
X127487023Y-106600311D01*
X127399689Y-106512977D01*
X127296996Y-106444360D01*
X127182889Y-106397095D01*
X127061754Y-106373000D01*
X126938246Y-106373000D01*
X126817111Y-106397095D01*
X126703004Y-106444360D01*
X126649991Y-106479782D01*
X126536376Y-104093875D01*
X129184518Y-105189658D01*
G37*
%TD.AperFunction*%
%TD*%
M02*
